<svg width="24" height="24" viewBox="0 0 24 24" fill="none" xmlns="http://www.w3.org/2000/svg">
<path d="M11.9766 21C12.1735 21 12.3686 20.9612 12.5506 20.8858C12.7326 20.8104 12.8979 20.6999 13.0372 20.5607C13.1765 20.4214 13.287 20.256 13.3624 20.074C13.4378 19.892 13.4766 19.697 13.4766 19.5C13.4766 19.303 13.4378 19.108 13.3624 18.926C13.287 18.744 13.1765 18.5786 13.0372 18.4393C12.8979 18.3001 12.7326 18.1896 12.5506 18.1142C12.3686 18.0388 12.1735 18 11.9766 18C11.7796 18 11.5845 18.0388 11.4025 18.1142C11.2205 18.1896 11.0552 18.3001 10.9159 18.4393C10.7766 18.5786 10.6661 18.744 10.5907 18.926C10.5154 19.108 10.4766 19.303 10.4766 19.5C10.4766 19.697 10.5154 19.892 10.5907 20.074C10.6661 20.256 10.7766 20.4214 10.9159 20.5607C11.0552 20.6999 11.2205 20.8104 11.4025 20.8858C11.5845 20.9612 11.7796 21 11.9766 21ZM11.9766 13.5C12.3744 13.5 12.7559 13.342 13.0372 13.0607C13.3185 12.7794 13.4766 12.3978 13.4766 12C13.4766 11.6022 13.3185 11.2206 13.0372 10.9393C12.7559 10.658 12.3744 10.5 11.9766 10.5C11.5787 10.5 11.1972 10.658 10.9159 10.9393C10.6346 11.2206 10.4766 11.6022 10.4766 12C10.4766 12.3978 10.6346 12.7794 10.9159 13.0607C11.1972 13.342 11.5787 13.5 11.9766 13.5ZM11.9766 6C12.3744 6 12.7559 5.84196 13.0372 5.56066C13.3185 5.27935 13.4766 4.89782 13.4766 4.5C13.4766 4.10217 13.3185 3.72064 13.0372 3.43934C12.7559 3.15804 12.3744 3 11.9766 3C11.5787 3 11.1972 3.15804 10.9159 3.43934C10.6346 3.72064 10.4766 4.10217 10.4766 4.5C10.4766 4.89782 10.6346 5.27935 10.9159 5.56066C11.1972 5.84196 11.5787 6 11.9766 6Z" fill="black" fill-opacity="0.65"/>
</svg>
