<svg width="40" height="40" viewBox="0 0 40 40" fill="none" xmlns="http://www.w3.org/2000/svg">
<circle cx="20" cy="20" r="20" fill="#FF6700" fill-opacity="0.2"/>
<path fill-rule="evenodd" clip-rule="evenodd" d="M20 12C17.79 12 16 13.79 16 16C16 18.21 17.79 20 20 20C22.21 20 24 18.21 24 16C24 13.79 22.21 12 20 12ZM22.1 16C22.1 14.84 21.16 13.9 20 13.9C18.84 13.9 17.9 14.84 17.9 16C17.9 17.16 18.84 18.1 20 18.1C21.16 18.1 22.1 17.16 22.1 16ZM26.1 25C26.1 24.36 22.97 22.9 20 22.9C17.03 22.9 13.9 24.36 13.9 25V26.1H26.1V25ZM12 25C12 22.34 17.33 21 20 21C22.67 21 28 22.34 28 25V28H12V25Z" fill="#FF6700" fill-opacity="0.54"/>
</svg>
