<svg width="438" height="241" viewBox="0 0 438 241" fill="none" xmlns="http://www.w3.org/2000/svg">
<g clip-path="url(#clip0)">
<path d="M239.486 82H139.288C136.329 82 133.931 84.3988 133.931 87.3577V127.497C133.931 130.456 136.329 132.855 139.288 132.855H239.486C242.445 132.855 244.843 130.456 244.843 127.497V87.3577C244.843 84.3988 242.445 82 239.486 82Z" fill="white" stroke="#999999" stroke-width="1.97616" stroke-linecap="round" stroke-linejoin="round"/>
<path d="M158.462 117.464C164.005 117.464 168.499 112.97 168.499 107.427C168.499 101.884 164.005 97.3909 158.462 97.3909C152.919 97.3909 148.426 101.884 148.426 107.427C148.426 112.97 152.919 117.464 158.462 117.464Z" fill="#FF6600"/>
<path d="M156.949 114.288C155.939 114.288 155.168 114.003 154.638 113.435C154.107 112.854 153.841 112.027 153.841 110.953V100.834H155.926V111.105C155.926 111.559 156.014 111.888 156.191 112.09C156.38 112.292 156.645 112.393 156.986 112.393C157.327 112.393 157.586 112.292 157.763 112.09C157.952 111.888 158.047 111.559 158.047 111.105V100.834H160.055V110.953C160.055 112.027 159.79 112.854 159.26 113.435C158.73 114.003 157.959 114.288 156.948 114.288H156.949Z" fill="url(#paint0_linear)"/>
<path d="M155.919 100.819L158.69 103.391L160.171 101.429L163.304 102.531L163.336 101.56L169.502 107.42L169.433 115.133L161.066 118.542L154.799 113.618L155.919 100.819Z" fill="url(#paint1_linear)"/>
<path d="M156.949 114.288C155.939 114.288 155.168 114.003 154.638 113.435C154.107 112.854 153.841 112.027 153.841 110.953V100.834H155.926V111.105C155.926 111.559 156.014 111.888 156.191 112.09C156.38 112.292 156.645 112.393 156.986 112.393C157.327 112.393 157.586 112.292 157.763 112.09C157.952 111.888 158.047 111.559 158.047 111.105V100.834H160.055V110.953C160.055 112.027 159.79 112.854 159.26 113.435C158.73 114.003 157.959 114.288 156.948 114.288H156.949Z" fill="white"/>
<path d="M158.027 100.834H161.115C162.157 100.834 162.939 101.116 163.46 101.68C163.981 102.244 164.242 103.07 164.242 104.159V105.485C164.242 106.574 163.98 107.401 163.46 107.965C162.939 108.528 162.157 108.81 161.115 108.81H160.124V113.411H158.027V100.834ZM161.115 106.888C161.458 106.888 161.712 106.793 161.878 106.6C162.056 106.409 162.146 106.081 162.146 105.62V104.025C162.146 103.564 162.057 103.237 161.878 103.044C161.712 102.853 161.459 102.756 161.115 102.756H160.124V106.888L161.115 106.888Z" fill="white"/>
<path d="M176.654 112.593C175.888 112.593 175.309 112.378 174.917 111.948C174.525 111.508 174.329 110.881 174.329 110.068V109.494H175.821V110.182C175.821 110.833 176.094 111.158 176.639 111.158C176.907 111.158 177.108 111.082 177.242 110.929C177.386 110.766 177.457 110.508 177.457 110.154C177.457 109.733 177.362 109.364 177.17 109.049C176.979 108.723 176.625 108.336 176.108 107.886C175.458 107.312 175.003 106.796 174.745 106.337C174.487 105.868 174.358 105.342 174.358 104.758C174.358 103.964 174.558 103.352 174.96 102.921C175.362 102.481 175.946 102.261 176.711 102.261C177.467 102.261 178.036 102.481 178.419 102.921C178.811 103.352 179.007 103.973 179.007 104.787V105.203H177.515V104.686C177.515 104.342 177.448 104.093 177.314 103.94C177.18 103.777 176.984 103.696 176.725 103.696C176.199 103.696 175.936 104.017 175.936 104.658C175.936 105.021 176.032 105.361 176.223 105.676C176.424 105.992 176.783 106.375 177.299 106.825C177.96 107.399 178.414 107.92 178.663 108.389C178.911 108.857 179.036 109.408 179.036 110.039C179.036 110.862 178.83 111.493 178.419 111.933C178.017 112.373 177.429 112.593 176.654 112.593Z" fill="#002C39"/>
<path d="M179.927 102.405H182.251C183.036 102.405 183.624 102.615 184.016 103.036C184.409 103.457 184.605 104.074 184.605 104.887V105.877C184.605 106.691 184.409 107.308 184.016 107.729C183.624 108.15 183.036 108.36 182.251 108.36H181.505V112.45H179.927V102.405ZM182.251 106.925C182.51 106.925 182.701 106.853 182.825 106.71C182.959 106.566 183.026 106.322 183.026 105.978V104.787C183.026 104.442 182.959 104.198 182.825 104.055C182.701 103.911 182.51 103.84 182.251 103.84H181.505V106.925H182.251Z" fill="#002C39"/>
<path d="M186.192 102.405H188.33L189.966 112.45H188.388L188.101 110.455V110.484H186.307L186.02 112.45H184.556L186.192 102.405ZM187.914 109.121L187.211 104.155H187.182L186.493 109.121H187.914Z" fill="#002C39"/>
<path d="M192.914 112.593C192.158 112.593 191.579 112.378 191.177 111.948C190.785 111.517 190.589 110.91 190.589 110.125V104.729C190.589 103.945 190.785 103.337 191.177 102.907C191.579 102.476 192.158 102.261 192.914 102.261C193.67 102.261 194.244 102.476 194.636 102.907C195.038 103.337 195.239 103.945 195.239 104.729V105.791H193.746V104.629C193.746 104.007 193.483 103.696 192.957 103.696C192.431 103.696 192.168 104.007 192.168 104.629V110.24C192.168 110.852 192.431 111.158 192.957 111.158C193.483 111.158 193.746 110.852 193.746 110.24V108.704H195.239V110.125C195.239 110.91 195.038 111.517 194.636 111.948C194.244 112.378 193.67 112.593 192.914 112.593Z" fill="#002C39"/>
<path d="M196.183 102.405H200.488V103.84H197.762V106.494H199.929V107.929H197.762V111.015H200.488V112.45H196.183V102.405Z" fill="#002C39"/>
<path d="M205.919 112.593C205.163 112.593 204.584 112.378 204.182 111.948C203.79 111.517 203.594 110.91 203.594 110.125V104.729C203.594 103.945 203.79 103.337 204.182 102.907C204.584 102.476 205.163 102.261 205.919 102.261C206.674 102.261 207.248 102.476 207.641 102.907C208.042 103.337 208.243 103.945 208.243 104.729V105.791H206.751V104.629C206.751 104.007 206.488 103.696 205.962 103.696C205.435 103.696 205.172 104.007 205.172 104.629V110.24C205.172 110.852 205.435 111.158 205.962 111.158C206.488 111.158 206.751 110.852 206.751 110.24V108.704H208.243V110.125C208.243 110.91 208.042 111.517 207.641 111.948C207.248 112.378 206.674 112.593 205.919 112.593Z" fill="#002C39"/>
<path d="M209.188 102.405H210.766V111.015H213.364V112.45H209.188V102.405Z" fill="#002C39"/>
<path d="M216.346 112.593C215.571 112.593 214.978 112.373 214.567 111.933C214.155 111.493 213.95 110.871 213.95 110.068V104.787C213.95 103.983 214.155 103.361 214.567 102.921C214.978 102.481 215.571 102.261 216.346 102.261C217.121 102.261 217.714 102.481 218.126 102.921C218.537 103.361 218.743 103.983 218.743 104.787V110.068C218.743 110.871 218.537 111.493 218.126 111.933C217.714 112.373 217.121 112.593 216.346 112.593ZM216.346 111.158C216.892 111.158 217.164 110.828 217.164 110.168V104.686C217.164 104.026 216.892 103.696 216.346 103.696C215.801 103.696 215.528 104.026 215.528 104.686V110.168C215.528 110.828 215.801 111.158 216.346 111.158Z" fill="#002C39"/>
<path d="M222.107 112.593C221.341 112.593 220.758 112.378 220.356 111.948C219.954 111.508 219.753 110.881 219.753 110.068V102.405H221.332V110.182C221.332 110.527 221.399 110.776 221.533 110.929C221.676 111.082 221.877 111.158 222.135 111.158C222.394 111.158 222.59 111.082 222.724 110.929C222.867 110.776 222.939 110.527 222.939 110.182V102.405H224.46V110.068C224.46 110.881 224.259 111.508 223.857 111.948C223.456 112.378 222.872 112.593 222.107 112.593Z" fill="#002C39"/>
<path d="M225.584 102.405H227.995C228.78 102.405 229.368 102.615 229.76 103.036C230.153 103.457 230.349 104.074 230.349 104.887V109.967C230.349 110.78 230.153 111.397 229.76 111.818C229.368 112.239 228.78 112.45 227.995 112.45H225.584V102.405ZM227.966 111.015C228.225 111.015 228.421 110.938 228.555 110.785C228.698 110.632 228.77 110.383 228.77 110.039V104.815C228.77 104.471 228.698 104.222 228.555 104.069C228.421 103.916 228.225 103.84 227.966 103.84H227.163V111.015H227.966Z" fill="#002C39"/>
<path d="M37.1616 66H5.48257C2.45465 66 0 68.4547 0 71.4826V141.541C0 144.569 2.45465 147.024 5.48257 147.024H37.1616C40.1895 147.024 42.6442 144.569 42.6442 141.541V71.4826C42.6442 68.4547 40.1895 66 37.1616 66Z" fill="white" stroke="#999999" stroke-width="1.97616" stroke-linecap="round" stroke-linejoin="round"/>
<path d="M38.9608 74.7913H3.68262V134.607H38.9608V74.7913Z" fill="white" stroke="#999999" stroke-width="1.97616" stroke-linecap="round" stroke-linejoin="round"/>
<path d="M21.3223 143.782C23.0736 143.782 24.4933 142.362 24.4933 140.611C24.4933 138.859 23.0736 137.44 21.3223 137.44C19.5711 137.44 18.1514 138.859 18.1514 140.611C18.1514 142.362 19.5711 143.782 21.3223 143.782Z" fill="#999999"/>
<path d="M26.5562 69.2954H16.0889C15.3931 69.2954 14.8291 69.8594 14.8291 70.5552C14.8291 71.2511 15.3931 71.8154 16.0889 71.8154H26.5562C27.2521 71.8154 27.8161 71.2511 27.8161 70.5552C27.8161 69.8594 27.2521 69.2954 26.5562 69.2954Z" fill="#999999"/>
<path d="M51.022 108H125.553" stroke="#999999" stroke-width="2.47587"/>
<g clip-path="url(#clip1)">
<path d="M359.827 169.931C347.489 169.931 335 172.774 335 178.207C335 183.64 347.489 186.483 359.827 186.483C372.165 186.483 384.654 183.64 384.654 178.207C384.654 172.774 372.165 169.931 359.827 169.931ZM359.827 183.724C345.338 183.724 337.759 180.133 337.759 178.207C337.759 176.282 345.338 172.69 359.827 172.69C374.317 172.69 381.896 176.282 381.896 178.207C381.896 180.133 374.317 183.724 359.827 183.724Z" fill="#999999"/>
<path d="M383.275 176.828C382.514 176.828 381.896 177.445 381.896 178.207C381.896 180.133 374.317 183.724 359.827 183.724C345.338 183.724 337.759 180.133 337.759 178.207C337.759 177.445 337.141 176.828 336.379 176.828C335.618 176.828 335 177.445 335 178.207V189.242C335 194.675 347.489 197.517 359.827 197.517C372.165 197.517 384.654 194.675 384.654 189.242V178.207C384.654 177.445 384.036 176.828 383.275 176.828ZM381.896 189.242C381.896 191.167 374.317 194.759 359.827 194.759C345.338 194.759 337.759 191.167 337.759 189.242V182.22C346.476 187.844 373.177 187.844 381.896 182.22V189.242H381.896Z" fill="#999999"/>
<path d="M383.275 187.862C382.514 187.862 381.896 188.479 381.896 189.242C381.896 191.167 374.317 194.759 359.827 194.759C345.338 194.759 337.759 191.167 337.759 189.242C337.759 188.479 337.141 187.862 336.379 187.862C335.618 187.862 335 188.479 335 189.242V200.276C335 205.709 347.489 208.552 359.827 208.552C372.165 208.552 384.654 205.709 384.654 200.276V189.242C384.654 188.479 384.036 187.862 383.275 187.862ZM381.896 200.276C381.896 202.201 374.317 205.793 359.827 205.793C345.338 205.793 337.759 202.201 337.759 200.276V193.254C346.476 198.879 373.177 198.879 381.896 193.254V200.276Z" fill="#999999"/>
<path d="M383.275 198.896C382.514 198.896 381.896 199.513 381.896 200.276C381.896 202.201 374.316 205.793 359.827 205.793C345.338 205.793 337.759 202.201 337.759 200.276C337.759 199.513 337.141 198.896 336.379 198.896C335.618 198.896 335 199.513 335 200.276V211.31C335 216.743 347.489 219.586 359.827 219.586C372.165 219.586 384.654 216.743 384.654 211.31V200.276C384.654 199.513 384.036 198.896 383.275 198.896ZM381.896 211.31C381.896 213.235 374.316 216.827 359.827 216.827C345.338 216.827 337.759 213.235 337.759 211.31V204.288C346.476 209.913 373.177 209.913 381.896 204.288V211.31H381.896Z" fill="#999999"/>
<path d="M383.275 209.931C382.514 209.931 381.896 210.547 381.896 211.31C381.896 213.236 374.317 216.827 359.827 216.827C345.338 216.827 337.759 213.236 337.759 211.31C337.759 210.547 337.141 209.931 336.379 209.931C335.618 209.931 335 210.547 335 211.31V222.344C335 227.778 347.489 230.62 359.827 230.62C372.165 230.62 384.654 227.778 384.654 222.344V211.31C384.654 210.547 384.036 209.931 383.275 209.931ZM381.896 222.344C381.896 224.27 374.317 227.861 359.827 227.861C345.338 227.861 337.759 224.27 337.759 222.344V215.322C346.476 220.947 373.177 220.947 381.896 215.322V222.344H381.896Z" fill="#999999"/>
<path d="M390.171 153.38C377.834 153.38 365.344 156.223 365.344 161.656C365.344 167.089 377.834 169.932 390.171 169.932C402.509 169.932 414.999 167.089 414.999 161.656C414.999 156.223 402.509 153.38 390.171 153.38ZM390.171 167.173C375.682 167.173 368.103 163.581 368.103 161.656C368.103 159.73 375.682 156.139 390.171 156.139C404.661 156.139 412.24 159.73 412.24 161.656C412.24 163.581 404.661 167.173 390.171 167.173Z" fill="#999999"/>
<path d="M413.619 160.276C412.858 160.276 412.24 160.893 412.24 161.656C412.24 163.581 404.661 167.173 390.171 167.173C375.682 167.173 368.103 163.581 368.103 161.656C368.103 160.893 367.485 160.276 366.723 160.276C365.962 160.276 365.344 160.893 365.344 161.656V171.616C365.344 172.329 365.889 172.925 366.599 172.989C377.035 173.931 381.896 176.66 381.896 178.207C381.896 178.257 381.876 178.377 381.752 178.618C381.541 179.024 381.547 179.509 381.766 179.912C381.985 180.315 382.391 180.582 382.847 180.625C385.224 180.851 387.687 180.966 390.171 180.966C402.509 180.966 414.999 178.123 414.999 172.69V161.656C414.999 160.893 414.381 160.276 413.619 160.276ZM412.24 172.69C412.24 174.615 404.661 178.207 390.171 178.207C388.308 178.207 386.457 178.141 384.649 178.009C384.406 173.673 376.203 171.254 368.103 170.366V165.668C376.82 171.293 403.523 171.293 412.24 165.668V172.69Z" fill="#999999"/>
<path d="M413.621 182.344C412.859 182.344 412.241 182.96 412.241 183.723C412.241 185.648 404.662 189.24 390.173 189.24C387.925 189.24 385.646 189.135 383.401 188.932C383.014 188.895 382.632 189.028 382.345 189.288C382.059 189.549 381.896 189.919 381.896 190.306V200.274C381.896 200.324 381.876 200.444 381.754 200.684C381.544 201.091 381.55 201.575 381.769 201.978C381.988 202.379 382.392 202.647 382.849 202.69C385.254 202.918 387.716 203.034 390.172 203.034C402.509 203.034 414.999 200.192 415 194.757V183.723C415 182.96 414.382 182.344 413.621 182.344ZM412.24 194.759C412.24 196.684 404.661 200.276 390.172 200.276C388.327 200.276 386.478 200.21 384.654 200.074V191.803C386.492 191.934 388.341 192 390.172 192C398.988 192 407.882 190.549 412.24 187.737V194.759Z" fill="#999999"/>
<path d="M413.621 193.378C412.859 193.378 412.241 193.994 412.241 194.757C412.241 196.683 404.662 200.274 390.173 200.274C387.925 200.274 385.646 200.17 383.401 199.967C383.014 199.928 382.632 200.062 382.345 200.323C382.059 200.583 381.896 200.953 381.896 201.341V211.309C381.896 211.358 381.876 211.478 381.754 211.718C381.544 212.125 381.55 212.609 381.769 213.012C381.988 213.414 382.392 213.681 382.849 213.724C385.254 213.953 387.716 214.069 390.172 214.069C402.509 214.069 414.999 211.226 415 205.792V194.757C415 193.994 414.382 193.378 413.621 193.378ZM412.24 205.793C412.24 207.718 404.661 211.31 390.172 211.31C388.327 211.31 386.478 211.244 384.654 211.109V202.837C386.492 202.968 388.341 203.034 390.172 203.034C398.988 203.034 407.882 201.583 412.24 198.771V205.793Z" fill="#999999"/>
<path d="M413.621 171.309C412.859 171.309 412.241 171.926 412.241 172.689C412.241 174.614 404.662 178.206 390.173 178.206C387.925 178.206 385.646 178.101 383.401 177.898C383.014 177.862 382.632 177.993 382.345 178.254C382.059 178.515 381.896 178.884 381.896 179.272V189.24C381.896 189.29 381.876 189.41 381.754 189.65C381.544 190.057 381.55 190.541 381.769 190.944C381.988 191.345 382.392 191.612 382.849 191.655C385.254 191.884 387.716 192 390.172 192C402.509 192 414.999 189.157 415 183.723V172.689C415 171.926 414.382 171.309 413.621 171.309ZM412.24 183.724C412.24 185.65 404.661 189.241 390.172 189.241C388.327 189.241 386.478 189.175 384.654 189.04V180.768C386.492 180.899 388.341 180.966 390.172 180.966C398.988 180.966 407.882 179.514 412.24 176.702V183.724Z" fill="#999999"/>
</g>
<path d="M270.953 72.6846C271.61 73.516 271.91 74.3667 271.852 75.2368C271.794 76.1004 271.382 76.9157 270.615 77.6827C269.783 78.5141 268.818 78.8831 267.719 78.7896C266.624 78.6929 265.576 78.1451 264.577 77.1461L263.901 76.4694C263.246 75.8153 262.787 75.124 262.523 74.3957C262.262 73.6642 262.214 72.9521 262.378 72.2592C262.539 71.5632 262.902 70.9332 263.466 70.3692C264.213 69.6216 265.022 69.2317 265.892 69.1995C266.759 69.164 267.598 69.4782 268.41 70.1421L267.478 71.075C266.836 70.5948 266.255 70.3644 265.733 70.3837C265.214 70.3999 264.713 70.6496 264.229 71.133C263.636 71.7259 263.39 72.4107 263.49 73.1873C263.593 73.9607 264.049 74.7518 264.858 75.5607L265.539 76.2422C266.303 77.006 267.07 77.4539 267.84 77.586C268.61 77.7181 269.282 77.4974 269.856 76.9238C270.371 76.4082 270.65 75.8974 270.692 75.3915C270.734 74.8791 270.51 74.2878 270.02 73.6175L270.953 72.6846ZM277.546 70.5578C277.392 70.5062 277.166 70.3644 276.87 70.1324C276.886 70.9799 276.605 71.6921 276.028 72.2689C275.513 72.7845 274.944 73.0632 274.322 73.1051C273.7 73.1406 273.165 72.9343 272.717 72.4864C272.173 71.9418 271.957 71.3134 272.07 70.6013C272.182 69.8826 272.614 69.1479 273.365 68.3971L274.235 67.527L273.824 67.1161C273.512 66.8036 273.17 66.6489 272.8 66.6521C272.426 66.6521 272.057 66.8342 271.693 67.1983C271.374 67.5173 271.187 67.8654 271.132 68.2424C271.077 68.6194 271.164 68.9223 271.393 69.1511L270.494 70.0502C270.233 69.7892 270.073 69.446 270.015 69.0206C269.957 68.5888 270.015 68.1441 270.189 67.6865C270.367 67.2257 270.645 66.8052 271.026 66.4249C271.628 65.8223 272.252 65.5017 272.896 65.463C273.537 65.4211 274.129 65.658 274.67 66.1736L277.077 68.5808C277.558 69.0609 278.001 69.3816 278.407 69.5427L278.484 69.62L277.546 70.5578ZM275.381 71.3602C275.661 71.0798 275.854 70.7414 275.961 70.3451C276.067 69.9487 276.061 69.5781 275.941 69.2333L274.868 68.1602L274.167 68.8611C273.072 69.9568 272.845 70.8252 273.486 71.4665C273.766 71.7469 274.079 71.8725 274.424 71.8435C274.768 71.8145 275.087 71.6534 275.381 71.3602ZM281.167 65.6709C281.486 65.3518 281.668 64.9764 281.713 64.5446C281.758 64.1128 281.648 63.739 281.384 63.4232L282.23 62.5773C282.514 62.8931 282.696 63.2814 282.776 63.7422C282.857 64.203 282.818 64.6735 282.66 65.1536C282.506 65.6306 282.251 66.0463 281.897 66.4007C281.184 67.1129 280.38 67.4432 279.485 67.3917C278.589 67.3337 277.728 66.8922 276.903 66.0672L276.754 65.9174C276.244 65.4082 275.885 64.862 275.676 64.2787C275.466 63.6955 275.426 63.1203 275.555 62.5531C275.687 61.9827 275.991 61.4591 276.468 60.9821C277.055 60.3956 277.717 60.0847 278.455 60.0492C279.196 60.0105 279.86 60.2587 280.447 60.7936L279.601 61.6395C279.236 61.3269 278.83 61.1787 278.382 61.1948C277.935 61.2045 277.541 61.3785 277.203 61.7169C276.749 62.1712 276.56 62.6884 276.638 63.2685C276.715 63.8421 277.063 64.4382 277.682 65.057L277.851 65.2261C278.453 65.8288 279.041 66.1687 279.615 66.2461C280.189 66.3234 280.706 66.1317 281.167 65.6709ZM281.181 57.729C281.091 56.8461 281.363 56.0872 281.998 55.4523C283.103 54.347 284.284 54.4131 285.541 55.6505L288.997 59.1066L288.103 60.0009L284.642 56.5399C284.262 56.1661 283.896 55.9744 283.545 55.9647C283.197 55.9518 282.844 56.1242 282.486 56.4819C282.196 56.7719 282.019 57.1039 281.955 57.4777C281.89 57.8515 281.922 58.2253 282.051 58.5991L285.778 62.3259L284.884 63.2201L277.459 55.7955L278.353 54.9013L281.181 57.729ZM292.603 55.694C291.894 56.403 291.086 56.7478 290.177 56.7284C289.265 56.7059 288.419 56.3047 287.639 55.5248L287.475 55.3605C286.956 54.8417 286.592 54.281 286.382 53.6784C286.173 53.0693 286.131 52.4731 286.257 51.8899C286.382 51.3002 286.653 50.7974 287.069 50.3817C287.749 49.7018 288.501 49.3973 289.326 49.4682C290.151 49.5391 290.981 49.9918 291.815 50.8264L292.188 51.1986L288.645 54.7418C289.173 55.2445 289.74 55.5119 290.346 55.5442C290.952 55.57 291.477 55.3605 291.922 54.9158C292.238 54.6 292.441 54.2681 292.531 53.92C292.621 53.572 292.642 53.2095 292.594 52.8324L293.565 52.7116C293.801 53.8234 293.48 54.8175 292.603 55.694ZM287.803 51.1165C287.443 51.4774 287.272 51.9124 287.291 52.4216C287.307 52.9275 287.523 53.4463 287.939 53.978L290.559 51.3582L290.491 51.2905C290.011 50.8619 289.537 50.6331 289.07 50.6041C288.599 50.5719 288.177 50.7427 287.803 51.1165ZM294.339 44.5716C294.248 43.6886 294.521 42.9297 295.156 42.2949C296.261 41.1896 297.442 41.2556 298.699 42.4931L302.155 45.9492L301.261 46.8434L297.8 43.3825C297.419 43.0087 297.054 42.8169 296.702 42.8073C296.354 42.7944 296.001 42.9668 295.644 43.3245C295.354 43.6145 295.177 43.9464 295.112 44.3202C295.048 44.694 295.08 45.0679 295.209 45.4417L298.936 49.1685L298.041 50.0627L290.617 42.6381L291.511 41.7439L294.339 44.5716ZM304.465 43.6387L303.571 44.5329L298.341 39.3028L299.235 38.4086L304.465 43.6387ZM296.881 37.988C296.736 37.843 296.657 37.6771 296.644 37.4902C296.635 37.3 296.717 37.118 296.891 36.944C297.065 36.7699 297.247 36.6878 297.437 36.6974C297.627 36.7071 297.795 36.7844 297.94 36.9295C298.085 37.0745 298.161 37.2404 298.167 37.4273C298.173 37.6142 298.09 37.7947 297.916 37.9687C297.742 38.1427 297.561 38.2265 297.374 38.2201C297.191 38.2104 297.026 38.1331 296.881 37.988ZM300.618 34.4932L301.884 35.7597L302.861 34.7833L303.552 35.4745L302.575 36.4509L305.819 39.6944C306.028 39.9038 306.23 40.0182 306.423 40.0375C306.613 40.0537 306.813 39.957 307.022 39.7475C307.126 39.6444 307.248 39.4833 307.39 39.2641L308.115 39.9892C307.944 40.2889 307.747 40.5499 307.525 40.7723C307.126 41.1719 306.703 41.3523 306.259 41.3137C305.814 41.275 305.369 41.0333 304.925 40.5886L301.681 37.3452L300.729 38.2974L300.038 37.6062L300.99 36.6539L299.723 35.3875L300.618 34.4932Z" fill="black" fill-opacity="0.56"/>
<path d="M266.348 139.953C265.517 140.61 264.666 140.91 263.796 140.852C262.933 140.794 262.117 140.382 261.35 139.615C260.519 138.783 260.15 137.818 260.243 136.719C260.34 135.624 260.888 134.576 261.887 133.577L262.564 132.901C263.218 132.246 263.909 131.787 264.637 131.523C265.369 131.262 266.081 131.214 266.774 131.378C267.47 131.539 268.1 131.902 268.664 132.466C269.411 133.213 269.801 134.022 269.833 134.892C269.869 135.759 269.555 136.598 268.891 137.41L267.958 136.478C268.438 135.836 268.669 135.255 268.649 134.733C268.633 134.214 268.383 133.713 267.9 133.229C267.307 132.636 266.622 132.39 265.846 132.49C265.072 132.593 264.281 133.049 263.472 133.858L262.791 134.539C262.027 135.303 261.579 136.07 261.447 136.84C261.315 137.61 261.536 138.282 262.109 138.856C262.625 139.371 263.136 139.65 263.641 139.692C264.154 139.734 264.745 139.51 265.415 139.02L266.348 139.953ZM268.475 146.546C268.527 146.392 268.669 146.166 268.901 145.87C268.053 145.886 267.341 145.605 266.764 145.028C266.248 144.513 265.97 143.944 265.928 143.322C265.892 142.7 266.099 142.165 266.547 141.717C267.091 141.173 267.72 140.957 268.432 141.07C269.15 141.182 269.885 141.614 270.636 142.365L271.506 143.235L271.917 142.824C272.229 142.512 272.384 142.17 272.381 141.8C272.381 141.426 272.199 141.057 271.835 140.693C271.516 140.374 271.168 140.187 270.791 140.132C270.414 140.077 270.111 140.164 269.882 140.393L268.983 139.494C269.244 139.233 269.587 139.073 270.012 139.015C270.444 138.957 270.889 139.015 271.346 139.189C271.807 139.367 272.228 139.645 272.608 140.026C273.211 140.628 273.531 141.252 273.57 141.896C273.612 142.537 273.375 143.129 272.859 143.67L270.452 146.077C269.972 146.558 269.651 147.001 269.49 147.407L269.413 147.484L268.475 146.546ZM267.673 144.381C267.953 144.661 268.292 144.854 268.688 144.961C269.084 145.067 269.455 145.061 269.8 144.941L270.873 143.868L270.172 143.167C269.076 142.072 268.208 141.845 267.566 142.486C267.286 142.766 267.16 143.079 267.189 143.424C267.218 143.768 267.38 144.087 267.673 144.381ZM273.362 150.167C273.681 150.486 274.057 150.668 274.488 150.713C274.92 150.758 275.294 150.648 275.61 150.384L276.456 151.23C276.14 151.514 275.752 151.696 275.291 151.776C274.83 151.857 274.359 151.818 273.879 151.66C273.402 151.506 272.987 151.251 272.632 150.897C271.92 150.184 271.59 149.38 271.641 148.485C271.699 147.589 272.141 146.728 272.966 145.903L273.116 145.754C273.625 145.244 274.171 144.885 274.754 144.676C275.337 144.466 275.913 144.426 276.48 144.555C277.05 144.687 277.574 144.991 278.051 145.468C278.637 146.055 278.948 146.717 278.984 147.455C279.022 148.196 278.774 148.86 278.239 149.446L277.393 148.601C277.706 148.236 277.854 147.83 277.838 147.382C277.828 146.935 277.654 146.541 277.316 146.203C276.862 145.749 276.345 145.56 275.764 145.638C275.191 145.715 274.595 146.063 273.976 146.682L273.807 146.851C273.204 147.453 272.864 148.041 272.787 148.615C272.71 149.189 272.901 149.706 273.362 150.167ZM281.304 150.181C282.187 150.091 282.946 150.363 283.581 150.998C284.686 152.103 284.62 153.284 283.382 154.541L279.926 157.997L279.032 157.103L282.493 153.642C282.867 153.262 283.059 152.896 283.068 152.545C283.081 152.197 282.909 151.844 282.551 151.486C282.261 151.196 281.929 151.019 281.555 150.955C281.181 150.89 280.808 150.922 280.434 151.051L276.707 154.778L275.813 153.884L283.237 146.459L284.132 147.353L281.304 150.181ZM283.339 161.603C282.63 160.894 282.285 160.086 282.305 159.177C282.327 158.265 282.728 157.419 283.508 156.639L283.672 156.475C284.191 155.956 284.752 155.592 285.355 155.382C285.964 155.173 286.56 155.131 287.143 155.257C287.733 155.382 288.236 155.653 288.651 156.069C289.331 156.749 289.636 157.501 289.565 158.326C289.494 159.151 289.041 159.981 288.207 160.815L287.834 161.188L284.291 157.645C283.788 158.173 283.521 158.74 283.489 159.346C283.463 159.952 283.672 160.477 284.117 160.922C284.433 161.238 284.765 161.441 285.113 161.531C285.461 161.621 285.823 161.642 286.201 161.594L286.321 162.565C285.21 162.8 284.215 162.48 283.339 161.603ZM287.916 156.803C287.556 156.443 287.121 156.272 286.611 156.291C286.105 156.307 285.587 156.523 285.055 156.939L287.675 159.559L287.742 159.491C288.171 159.011 288.4 158.537 288.429 158.07C288.461 157.599 288.29 157.177 287.916 156.803ZM295.041 162.652L294.486 163.256C295.32 163.189 296.063 163.48 296.714 164.131C297.445 164.863 297.663 165.641 297.366 166.466C297.792 166.389 298.22 166.411 298.652 166.534C299.087 166.659 299.495 166.912 299.875 167.293C301.022 168.44 300.998 169.631 299.803 170.865L296.298 174.369L295.404 173.475L298.855 170.024C299.229 169.65 299.422 169.286 299.435 168.931C299.451 168.574 299.258 168.193 298.855 167.791C298.523 167.459 298.148 167.283 297.729 167.264C297.313 167.241 296.92 167.38 296.55 167.679L293.079 171.15L292.18 170.251L295.607 166.824C296.367 166.063 296.376 165.311 295.631 164.566C295.045 163.98 294.394 163.828 293.678 164.112L289.86 167.931L288.965 167.036L294.196 161.806L295.041 162.652ZM298.623 176.694L297.729 175.8L302.959 170.57L303.853 171.464L298.623 176.694ZM304.274 169.11C304.419 168.965 304.585 168.886 304.772 168.873C304.962 168.864 305.144 168.946 305.318 169.12C305.492 169.294 305.574 169.476 305.564 169.666C305.555 169.856 305.477 170.024 305.332 170.169C305.187 170.314 305.021 170.389 304.835 170.396C304.648 170.402 304.467 170.319 304.293 170.145C304.119 169.971 304.035 169.79 304.042 169.603C304.052 169.419 304.129 169.255 304.274 169.11ZM304.491 179.788C304.733 179.546 304.828 179.267 304.777 178.952C304.731 178.636 304.53 178.202 304.172 177.651C303.818 177.104 303.575 176.628 303.442 176.225C303.314 175.826 303.278 175.468 303.336 175.152C303.397 174.84 303.557 174.555 303.815 174.297C304.243 173.868 304.786 173.686 305.444 173.751C306.104 173.818 306.717 174.134 307.28 174.698C307.873 175.291 308.2 175.924 308.262 176.598C308.326 177.274 308.12 177.851 307.643 178.328L306.744 177.429C306.989 177.184 307.095 176.868 307.063 176.482C307.034 176.098 306.862 175.748 306.546 175.433C306.22 175.107 305.895 174.924 305.569 174.882C305.244 174.84 304.967 174.933 304.738 175.162C304.522 175.378 304.445 175.626 304.506 175.906C304.567 176.187 304.77 176.599 305.115 177.144C305.463 177.692 305.706 178.173 305.845 178.589C305.983 179.005 306.02 179.377 305.956 179.706C305.898 180.034 305.729 180.339 305.448 180.619C304.981 181.087 304.419 181.275 303.761 181.185C303.107 181.091 302.482 180.747 301.886 180.15C301.467 179.731 301.171 179.287 300.997 178.816C300.823 178.346 300.776 177.887 300.856 177.439C300.943 176.991 301.142 176.612 301.451 176.303L302.345 177.197C302.062 177.513 301.942 177.87 301.988 178.27C302.039 178.67 302.249 179.053 302.616 179.42C302.954 179.759 303.293 179.962 303.631 180.03C303.976 180.097 304.263 180.017 304.491 179.788ZM309.596 184.892C309.838 184.651 309.933 184.372 309.881 184.056C309.836 183.74 309.634 183.307 309.277 182.756C308.922 182.208 308.679 181.733 308.547 181.33C308.418 180.93 308.383 180.573 308.441 180.257C308.502 179.944 308.661 179.659 308.919 179.401C309.348 178.973 309.891 178.79 310.548 178.855C311.209 178.923 311.821 179.238 312.385 179.802C312.978 180.395 313.305 181.029 313.366 181.702C313.431 182.379 313.224 182.956 312.747 183.432L311.848 182.533C312.093 182.289 312.2 181.973 312.167 181.586C312.138 181.203 311.966 180.853 311.65 180.537C311.325 180.212 310.999 180.028 310.674 179.986C310.348 179.944 310.071 180.038 309.842 180.266C309.626 180.482 309.549 180.73 309.61 181.011C309.672 181.291 309.875 181.704 310.219 182.248C310.567 182.796 310.811 183.278 310.949 183.694C311.088 184.109 311.125 184.481 311.06 184.81C311.002 185.139 310.833 185.443 310.553 185.724C310.086 186.191 309.523 186.379 308.866 186.289C308.212 186.196 307.587 185.851 306.99 185.255C306.572 184.836 306.275 184.391 306.101 183.921C305.927 183.45 305.88 182.991 305.961 182.543C306.048 182.095 306.246 181.717 306.555 181.407L307.45 182.301C307.166 182.617 307.047 182.975 307.092 183.374C307.143 183.774 307.353 184.158 307.72 184.525C308.059 184.863 308.397 185.066 308.735 185.134C309.08 185.202 309.367 185.121 309.596 184.892Z" fill="black" fill-opacity="0.56"/>
<path d="M311.678 44.7897L321.256 44.7895L321.256 54.3682" stroke="#999999" stroke-width="2.19354" stroke-linecap="round" stroke-linejoin="round"/>
<path d="M268.789 97.2565L321.256 44.7892" stroke="#999999" stroke-width="2.47038"/>
<path d="M311.678 44.7897L321.256 44.7895L321.256 54.3682" stroke="#999999" stroke-width="2.19354" stroke-linecap="round" stroke-linejoin="round"/>
<path d="M268.789 97.2565L321.256 44.7892" stroke="#999999" stroke-width="2.47038"/>
<path d="M321.256 158.678L321.256 168.256L311.678 168.256" stroke="#999999" stroke-width="2.19354" stroke-linecap="round" stroke-linejoin="round"/>
<path d="M268.789 115.789L321.257 168.257" stroke="#999999" stroke-width="2.47038"/>
<path d="M396.49 47.2963C393.075 49.0778 375.384 56.3513 371.617 58.3144C367.851 60.2774 365.759 60.2587 362.783 58.8369C359.807 57.4151 340.981 49.8107 337.587 48.1887C335.891 47.3777 335.002 46.6957 335.002 46.0509V39.5816C335.002 39.5816 359.513 34.2456 363.471 32.8255C367.43 31.4054 368.799 31.3545 372.169 32.588C375.538 33.8215 395.672 37.454 398.999 38.6739V45.0533C398.999 45.693 398.233 46.4106 396.493 47.2997L396.49 47.2963Z" fill="#A41E11"/>
<path d="M396.49 40.8253C393.075 42.6068 375.384 49.8803 371.617 51.8434C367.851 53.8064 365.759 53.7877 362.783 52.3659C359.807 50.9441 340.981 43.3397 337.587 41.7177C334.194 40.0957 334.126 38.981 337.457 37.6763L363.47 27.605C367.426 26.1866 368.797 26.134 372.167 27.3674C375.536 28.6009 393.12 35.5996 396.446 36.8382C399.771 38.0767 399.902 39.0608 396.487 40.8423L396.49 40.8253Z" fill="#D82C20"/>
<path d="M396.49 36.7465C393.075 38.528 375.384 45.8015 371.617 47.7646C367.851 49.7276 365.759 49.7089 362.783 48.2871C359.807 46.8653 340.981 39.2609 337.587 37.6389C335.891 36.8279 335.002 36.1459 335.002 35.5011V29.0318C335.002 29.0318 359.513 23.6958 363.471 22.2757C367.43 20.8556 368.799 20.8047 372.169 22.0382C375.538 23.2717 395.672 26.9042 398.999 28.1241V34.5035C398.999 35.1432 398.233 35.8608 396.493 36.7499L396.49 36.7465Z" fill="#A41E11"/>
<path d="M396.49 30.2772C393.075 32.0587 375.384 39.3322 371.617 41.2953C367.851 43.2583 365.759 43.2396 362.783 41.8178C359.807 40.396 340.981 32.7916 337.587 31.1696C334.194 29.5476 334.126 28.4329 337.457 27.1282L363.47 17.0586C367.426 15.6385 368.797 15.5876 372.167 16.821C375.536 18.0545 393.12 25.0549 396.449 26.2714C399.778 27.4879 399.905 28.494 396.49 30.2755V30.2772Z" fill="#D82C20"/>
<path d="M396.49 25.8064C393.075 27.5879 375.384 34.8615 371.617 36.8262C367.851 38.7909 365.759 38.7706 362.783 37.3488C359.807 35.927 340.981 28.3226 337.587 26.7006C335.891 25.8896 335.002 25.2075 335.002 24.5628V18.09C335.002 18.09 359.513 12.7541 363.471 11.334C367.43 9.91386 368.799 9.86296 372.169 11.0964C375.538 12.3299 395.672 15.9624 398.999 17.1823V23.5617C398.999 24.2014 398.233 24.9191 396.493 25.8081L396.49 25.8064Z" fill="#A41E11"/>
<path d="M396.49 19.3354C393.075 21.1169 375.384 28.3905 371.617 30.3535C367.851 32.3165 365.759 32.2979 362.783 30.8761C359.807 29.4543 340.981 21.8499 337.587 20.2279C334.194 18.6059 334.126 17.4912 337.457 16.1864L363.47 6.11679C367.426 4.69669 368.797 4.6458 372.167 5.87926C375.536 7.11273 393.12 14.1131 396.449 15.3296C399.778 16.5461 399.905 17.5522 396.49 19.3337V19.3354Z" fill="#D82C20"/>
<path d="M368.597 16.6683L366.592 13.3344L360.188 12.7575L364.966 11.0337L363.533 8.38696L368.005 10.1345L372.223 8.75344L371.083 11.4884L375.382 13.1003L369.837 13.6771L368.597 16.6683ZM357.915 23.3056L372.744 21.0287L368.265 27.5982L357.915 23.3056Z" fill="white"/>
<path d="M353.918 20.9116C358.295 20.9116 361.844 19.536 361.844 17.839C361.844 16.142 358.295 14.7664 353.918 14.7664C349.54 14.7664 345.991 16.142 345.991 17.839C345.991 19.536 349.54 20.9116 353.918 20.9116Z" fill="white"/>
<path d="M390.715 17.391L381.943 20.8556L381.936 13.9214L390.715 17.391Z" fill="#7A0C00"/>
<path d="M381.945 20.8556L380.994 21.2289L372.23 17.7643L381.94 13.9231L381.945 20.8556Z" fill="#AD2115"/>
<path d="M362.113 74.4475L368.772 67.5626L375.657 74.2222" stroke="#999999" stroke-width="2.19354" stroke-linecap="round" stroke-linejoin="round"/>
<path d="M369 99V67" stroke="#999999" stroke-width="2.47038"/>
<path d="M369 147V123" stroke="#999999" stroke-width="2.47038"/>
<path d="M313.563 114H312.251V104.047H313.563V114ZM316.968 106.604L317.009 107.533C317.574 106.822 318.312 106.467 319.224 106.467C320.787 106.467 321.575 107.349 321.589 109.112V114H320.324V109.105C320.32 108.572 320.197 108.178 319.955 107.923C319.718 107.668 319.347 107.54 318.841 107.54C318.431 107.54 318.071 107.649 317.761 107.868C317.451 108.087 317.209 108.374 317.036 108.729V114H315.771V106.604H316.968ZM327.803 112.038C327.803 111.696 327.673 111.432 327.413 111.245C327.158 111.054 326.709 110.89 326.066 110.753C325.428 110.616 324.92 110.452 324.542 110.261C324.168 110.069 323.89 109.841 323.708 109.577C323.53 109.313 323.441 108.998 323.441 108.634C323.441 108.028 323.697 107.515 324.207 107.096C324.722 106.676 325.378 106.467 326.176 106.467C327.014 106.467 327.693 106.683 328.213 107.116C328.737 107.549 328.999 108.103 328.999 108.777H327.728C327.728 108.431 327.579 108.132 327.283 107.882C326.992 107.631 326.622 107.506 326.176 107.506C325.715 107.506 325.355 107.606 325.096 107.807C324.836 108.007 324.706 108.269 324.706 108.593C324.706 108.898 324.827 109.128 325.068 109.283C325.31 109.438 325.745 109.586 326.374 109.728C327.007 109.869 327.52 110.037 327.912 110.233C328.304 110.429 328.593 110.666 328.78 110.944C328.972 111.218 329.067 111.553 329.067 111.949C329.067 112.61 328.803 113.141 328.274 113.542C327.746 113.938 327.06 114.137 326.217 114.137C325.624 114.137 325.1 114.032 324.645 113.822C324.189 113.613 323.831 113.321 323.571 112.947C323.316 112.569 323.188 112.161 323.188 111.724H324.453C324.476 112.147 324.645 112.485 324.959 112.735C325.278 112.981 325.697 113.104 326.217 113.104C326.695 113.104 327.078 113.009 327.365 112.817C327.657 112.621 327.803 112.362 327.803 112.038ZM332.431 104.812V106.604H333.812V107.581H332.431V112.168C332.431 112.464 332.492 112.688 332.615 112.838C332.738 112.984 332.948 113.057 333.244 113.057C333.39 113.057 333.59 113.029 333.846 112.975V114C333.513 114.091 333.189 114.137 332.875 114.137C332.31 114.137 331.884 113.966 331.597 113.624C331.31 113.282 331.166 112.797 331.166 112.168V107.581H329.819V106.604H331.166V104.812H332.431ZM339.861 114C339.788 113.854 339.729 113.594 339.684 113.221C339.096 113.831 338.394 114.137 337.578 114.137C336.849 114.137 336.25 113.932 335.78 113.521C335.315 113.107 335.083 112.583 335.083 111.949C335.083 111.179 335.375 110.582 335.958 110.158C336.546 109.73 337.371 109.516 338.433 109.516H339.663V108.935C339.663 108.493 339.531 108.142 339.267 107.882C339.002 107.618 338.613 107.485 338.098 107.485C337.646 107.485 337.268 107.599 336.963 107.827C336.658 108.055 336.505 108.331 336.505 108.654H335.233C335.233 108.285 335.363 107.93 335.623 107.588C335.887 107.242 336.243 106.968 336.689 106.768C337.141 106.567 337.635 106.467 338.173 106.467C339.025 106.467 339.693 106.681 340.176 107.109C340.659 107.533 340.91 108.119 340.928 108.866V112.271C340.928 112.95 341.014 113.49 341.188 113.891V114H339.861ZM337.763 113.036C338.159 113.036 338.535 112.934 338.891 112.729C339.246 112.523 339.504 112.257 339.663 111.929V110.411H338.672C337.122 110.411 336.348 110.865 336.348 111.771C336.348 112.168 336.48 112.478 336.744 112.701C337.008 112.924 337.348 113.036 337.763 113.036ZM344.106 106.604L344.147 107.533C344.713 106.822 345.451 106.467 346.362 106.467C347.925 106.467 348.714 107.349 348.728 109.112V114H347.463V109.105C347.458 108.572 347.335 108.178 347.094 107.923C346.857 107.668 346.485 107.54 345.979 107.54C345.569 107.54 345.209 107.649 344.899 107.868C344.59 108.087 344.348 108.374 344.175 108.729V114H342.91V106.604H344.106ZM352.351 104.812V106.604H353.731V107.581H352.351V112.168C352.351 112.464 352.412 112.688 352.535 112.838C352.658 112.984 352.868 113.057 353.164 113.057C353.31 113.057 353.51 113.029 353.766 112.975V114C353.433 114.091 353.109 114.137 352.795 114.137C352.23 114.137 351.804 113.966 351.517 113.624C351.229 113.282 351.086 112.797 351.086 112.168V107.581H349.739V106.604H351.086V104.812H352.351ZM360.062 114H358.797V106.604H360.062V114ZM358.694 104.642C358.694 104.437 358.756 104.263 358.879 104.122C359.007 103.981 359.193 103.91 359.439 103.91C359.686 103.91 359.872 103.981 360 104.122C360.128 104.263 360.191 104.437 360.191 104.642C360.191 104.847 360.128 105.018 360 105.154C359.872 105.291 359.686 105.359 359.439 105.359C359.193 105.359 359.007 105.291 358.879 105.154C358.756 105.018 358.694 104.847 358.694 104.642ZM363.288 106.604L363.329 107.533C363.894 106.822 364.632 106.467 365.544 106.467C367.107 106.467 367.896 107.349 367.909 109.112V114H366.645V109.105C366.64 108.572 366.517 108.178 366.275 107.923C366.038 107.668 365.667 107.54 365.161 107.54C364.751 107.54 364.391 107.649 364.081 107.868C363.771 108.087 363.53 108.374 363.356 108.729V114H362.092V106.604H363.288ZM372.257 112.284L374.089 106.604H375.381L372.729 114H371.765L369.085 106.604H370.377L372.257 112.284ZM381.055 114C380.982 113.854 380.923 113.594 380.877 113.221C380.289 113.831 379.587 114.137 378.771 114.137C378.042 114.137 377.443 113.932 376.974 113.521C376.509 113.107 376.276 112.583 376.276 111.949C376.276 111.179 376.568 110.582 377.151 110.158C377.739 109.73 378.564 109.516 379.626 109.516H380.856V108.935C380.856 108.493 380.724 108.142 380.46 107.882C380.196 107.618 379.806 107.485 379.291 107.485C378.84 107.485 378.462 107.599 378.156 107.827C377.851 108.055 377.698 108.331 377.698 108.654H376.427C376.427 108.285 376.557 107.93 376.816 107.588C377.081 107.242 377.436 106.968 377.883 106.768C378.334 106.567 378.828 106.467 379.366 106.467C380.218 106.467 380.886 106.681 381.369 107.109C381.852 107.533 382.103 108.119 382.121 108.866V112.271C382.121 112.95 382.208 113.49 382.381 113.891V114H381.055ZM378.956 113.036C379.353 113.036 379.729 112.934 380.084 112.729C380.439 112.523 380.697 112.257 380.856 111.929V110.411H379.865C378.316 110.411 377.541 110.865 377.541 111.771C377.541 112.168 377.673 112.478 377.938 112.701C378.202 112.924 378.541 113.036 378.956 113.036ZM385.478 114H384.213V103.5H385.478V114ZM388.882 114H387.617V106.604H388.882V114ZM387.515 104.642C387.515 104.437 387.576 104.263 387.699 104.122C387.827 103.981 388.014 103.91 388.26 103.91C388.506 103.91 388.693 103.981 388.82 104.122C388.948 104.263 389.012 104.437 389.012 104.642C389.012 104.847 388.948 105.018 388.82 105.154C388.693 105.291 388.506 105.359 388.26 105.359C388.014 105.359 387.827 105.291 387.699 105.154C387.576 105.018 387.515 104.847 387.515 104.642ZM390.604 110.24C390.604 109.105 390.873 108.194 391.411 107.506C391.949 106.813 392.653 106.467 393.523 106.467C394.389 106.467 395.075 106.763 395.581 107.355V103.5H396.846V114H395.684L395.622 113.207C395.116 113.827 394.412 114.137 393.51 114.137C392.653 114.137 391.953 113.786 391.411 113.084C390.873 112.382 390.604 111.466 390.604 110.336V110.24ZM391.869 110.384C391.869 111.222 392.042 111.879 392.389 112.353C392.735 112.826 393.214 113.063 393.824 113.063C394.626 113.063 395.212 112.703 395.581 111.983V108.586C395.203 107.889 394.622 107.54 393.838 107.54C393.218 107.54 392.735 107.779 392.389 108.258C392.042 108.736 391.869 109.445 391.869 110.384ZM403.381 114C403.308 113.854 403.249 113.594 403.203 113.221C402.615 113.831 401.913 114.137 401.098 114.137C400.368 114.137 399.769 113.932 399.3 113.521C398.835 113.107 398.603 112.583 398.603 111.949C398.603 111.179 398.894 110.582 399.478 110.158C400.065 109.73 400.89 109.516 401.952 109.516H403.183V108.935C403.183 108.493 403.05 108.142 402.786 107.882C402.522 107.618 402.132 107.485 401.617 107.485C401.166 107.485 400.788 107.599 400.482 107.827C400.177 108.055 400.024 108.331 400.024 108.654H398.753C398.753 108.285 398.883 107.93 399.143 107.588C399.407 107.242 399.762 106.968 400.209 106.768C400.66 106.567 401.155 106.467 401.692 106.467C402.545 106.467 403.212 106.681 403.695 107.109C404.178 107.533 404.429 108.119 404.447 108.866V112.271C404.447 112.95 404.534 113.49 404.707 113.891V114H403.381ZM401.282 113.036C401.679 113.036 402.055 112.934 402.41 112.729C402.766 112.523 403.023 112.257 403.183 111.929V110.411H402.191C400.642 110.411 399.867 110.865 399.867 111.771C399.867 112.168 399.999 112.478 400.264 112.701C400.528 112.924 400.868 113.036 401.282 113.036ZM408.146 104.812V106.604H409.526V107.581H408.146V112.168C408.146 112.464 408.207 112.688 408.33 112.838C408.453 112.984 408.663 113.057 408.959 113.057C409.105 113.057 409.305 113.029 409.561 112.975V114C409.228 114.091 408.904 114.137 408.59 114.137C408.025 114.137 407.599 113.966 407.312 113.624C407.024 113.282 406.881 112.797 406.881 112.168V107.581H405.534V106.604H406.881V104.812H408.146ZM412.384 114H411.119V106.604H412.384V114ZM411.017 104.642C411.017 104.437 411.078 104.263 411.201 104.122C411.329 103.981 411.516 103.91 411.762 103.91C412.008 103.91 412.195 103.981 412.322 104.122C412.45 104.263 412.514 104.437 412.514 104.642C412.514 104.847 412.45 105.018 412.322 105.154C412.195 105.291 412.008 105.359 411.762 105.359C411.516 105.359 411.329 105.291 411.201 105.154C411.078 105.018 411.017 104.847 411.017 104.642ZM414.079 110.233C414.079 109.509 414.22 108.857 414.503 108.278C414.79 107.7 415.187 107.253 415.692 106.938C416.203 106.624 416.784 106.467 417.436 106.467C418.443 106.467 419.256 106.815 419.876 107.513C420.5 108.21 420.812 109.137 420.812 110.295V110.384C420.812 111.104 420.674 111.751 420.396 112.325C420.122 112.895 419.728 113.339 419.213 113.658C418.702 113.977 418.115 114.137 417.449 114.137C416.447 114.137 415.633 113.788 415.009 113.091C414.389 112.394 414.079 111.471 414.079 110.322V110.233ZM415.351 110.384C415.351 111.204 415.54 111.863 415.918 112.359C416.301 112.856 416.811 113.104 417.449 113.104C418.092 113.104 418.602 112.854 418.98 112.353C419.359 111.847 419.548 111.14 419.548 110.233C419.548 109.422 419.354 108.766 418.967 108.265C418.584 107.759 418.074 107.506 417.436 107.506C416.811 107.506 416.308 107.754 415.925 108.251C415.542 108.748 415.351 109.459 415.351 110.384ZM423.595 106.604L423.636 107.533C424.201 106.822 424.939 106.467 425.851 106.467C427.414 106.467 428.202 107.349 428.216 109.112V114H426.951V109.105C426.947 108.572 426.824 108.178 426.582 107.923C426.345 107.668 425.974 107.54 425.468 107.54C425.058 107.54 424.698 107.649 424.388 107.868C424.078 108.087 423.836 108.374 423.663 108.729V114H422.398V106.604H423.595Z" fill="black" fill-opacity="0.56"/>
</g>
<defs>
<linearGradient id="paint0_linear" x1="153.842" y1="107.561" x2="158.238" y2="114.091" gradientUnits="userSpaceOnUse">
<stop stop-color="white"/>
<stop offset="1" stop-color="#E6E6E6"/>
</linearGradient>
<linearGradient id="paint1_linear" x1="156.521" y1="105.383" x2="166.088" y2="113.406" gradientUnits="userSpaceOnUse">
<stop stop-color="#D05300"/>
<stop offset="1" stop-color="#D05300" stop-opacity="0"/>
</linearGradient>
<clipPath id="clip0">
<rect width="438" height="241" fill="white"/>
</clipPath>
<clipPath id="clip1">
<rect width="80" height="80" fill="white" transform="translate(335 152)"/>
</clipPath>
</defs>
</svg>
