<svg width="240" height="223" viewBox="0 0 240 223" fill="none" xmlns="http://www.w3.org/2000/svg">
<g clip-path="url(#clip0)">
<path d="M189.888 7.07303C189.888 7.07303 196.961 1.6976 211.956 9.05345C226.95 16.4093 237.701 10.1851 237.701 10.1851L236.004 34.7989C236.004 34.7989 220.726 40.7402 206.58 32.2527C192.434 23.7651 187.908 32.2527 187.908 32.2527L189.888 7.07303Z" fill="#FF6700"/>
<path d="M203.468 119.391C203.465 135.953 198.504 152.135 189.223 165.853C179.943 179.571 166.769 190.196 151.397 196.361C148.592 197.489 145.726 198.459 142.813 199.267C128.267 203.29 112.903 203.292 98.3557 199.273C96.3668 198.721 94.4091 198.098 92.4824 197.403C88.1006 195.827 83.8613 193.88 79.8105 191.583C54.6563 177.355 37.6785 150.356 37.6785 119.391C37.6662 98.0692 45.875 77.5636 60.597 62.1402C75.319 46.7168 95.4206 37.5633 116.72 36.5839C117.999 36.5245 119.283 36.4953 120.573 36.4962C121.991 36.4962 123.401 36.5311 124.803 36.6009C146.03 37.6827 166.029 46.8776 180.67 62.2855C195.31 77.6935 203.472 98.1368 203.468 119.391Z" fill="#FF6700"/>
<path d="M224.832 36.8439C219.387 36.8442 212.895 35.7522 206.647 32.0028C200.929 28.5722 196.189 27.4388 192.56 28.6339C191.616 28.9303 190.741 29.4129 189.987 30.053C189.233 30.6931 188.614 31.4779 188.169 32.361L187.433 34.129L190.376 5.01695L190.452 4.9447C190.702 4.70711 196.756 -0.782988 212.597 6.98881C228.113 14.6002 239.428 8.2589 239.539 8.19383L240 7.92804L239.964 8.45824L238.157 34.6498L237.99 34.7148C237.895 34.7516 232.366 36.8436 224.832 36.8439ZM195.571 27.6083C198.794 27.6083 202.601 28.9157 206.938 31.5177C220.794 39.8312 235.868 34.8714 237.618 34.2486L239.365 8.91853C237.068 10.0259 226.38 14.3802 212.348 7.4969C197.789 0.353931 191.65 4.69702 190.917 5.29103L188.317 31.0141C189.333 29.639 190.755 28.6182 192.383 28.0964C193.413 27.7646 194.489 27.5998 195.571 27.6083Z" fill="#3F3D56"/>
<path d="M118.876 202.003C110.881 202.008 102.922 200.929 95.2174 198.794C93.0848 198.203 90.9804 197.533 88.9627 196.803C84.2973 195.123 79.7832 193.05 75.4692 190.606C61.4881 182.698 49.9283 171.127 42.034 157.138C34.1397 143.149 30.2098 127.272 30.6672 111.216C31.1246 95.1604 35.952 79.533 44.6299 66.0164C53.3078 52.4997 65.5075 41.6056 79.9161 34.5064C90.7884 29.1374 102.659 26.0893 114.773 25.5558C117.505 25.4284 120.4 25.4294 123.379 25.5738C143.475 26.6078 162.615 34.4758 177.629 47.8746C192.642 61.2733 202.628 79.3988 205.933 99.2486C209.237 119.098 205.662 139.481 195.798 157.021C185.935 174.561 170.376 188.206 151.698 195.694C148.711 196.894 145.659 197.927 142.557 198.789C134.845 200.926 126.879 202.008 118.876 202.003ZM118.876 26.0283C117.494 26.0283 116.123 26.0595 114.799 26.1211C102.763 26.651 90.9684 29.6795 80.166 35.0141C64.7224 42.6218 51.8578 54.6043 43.174 69.4695C34.4903 84.3348 30.371 101.426 31.3292 118.615C32.2874 135.804 38.2806 152.332 48.5627 166.14C58.8448 179.948 72.9614 190.426 89.1549 196.27C91.1595 196.996 93.2499 197.662 95.3687 198.249C110.76 202.502 127.016 202.5 142.406 198.243C145.488 197.388 148.52 196.361 151.488 195.169C170.05 187.732 185.513 174.176 195.317 156.748C205.12 139.319 208.675 119.064 205.391 99.3394C202.108 79.6144 192.184 61.6033 177.263 48.2904C162.342 34.9775 143.321 27.162 123.351 26.1389C121.834 26.0656 120.328 26.0283 118.876 26.0283Z" fill="#3F3D56"/>
<path d="M129.448 221.145H0V221.711H129.448V221.145Z" fill="#3F3D56"/>
<path d="M22.114 221.619L21.8104 221.506C21.7437 221.481 15.1029 218.936 11.992 213.167C8.88103 207.398 10.4043 200.451 10.4201 200.382L10.4918 200.066L10.7953 200.179C10.862 200.205 17.5027 202.749 20.6137 208.518C23.7247 214.287 22.2013 221.234 22.1856 221.303L22.114 221.619ZM12.4902 212.899C15.1203 217.776 20.368 220.277 21.6977 220.848C21.9505 219.422 22.7433 213.66 20.1155 208.787C17.488 203.914 12.2382 201.41 10.908 200.837C10.6551 202.263 9.86254 208.026 12.4902 212.899H12.4902Z" fill="#3F3D56"/>
<path d="M14.3693 211.143C19.9599 214.507 22.113 221.188 22.113 221.188C22.113 221.188 15.202 222.415 9.6114 219.052C4.02079 215.688 1.86768 209.007 1.86768 209.007C1.86768 209.007 8.77871 207.78 14.3693 211.143Z" fill="#FF6700"/>
<path d="M96.8694 67.7957C111.496 67.7957 123.353 55.9388 123.353 41.3125C123.353 26.6863 111.496 14.8293 96.8694 14.8293C82.2432 14.8293 70.3862 26.6863 70.3862 41.3125C70.3862 55.9388 82.2432 67.7957 96.8694 67.7957Z" fill="#2F2E41"/>
<path d="M102.384 67.45C112.746 67.45 121.147 59.0495 121.147 48.6869C121.147 38.3244 112.746 29.9238 102.384 29.9238C92.0211 29.9238 83.6206 38.3244 83.6206 48.6869C83.6206 59.0495 92.0211 67.45 102.384 67.45Z" fill="#A0616A"/>
<path d="M87.4427 52.8564C87.4427 52.8564 84.663 75.0942 74.5865 79.6112C64.51 84.1283 102.384 81.696 102.384 81.696C102.384 81.696 102.384 61.5431 103.774 60.8481C105.163 60.1532 87.4427 52.8564 87.4427 52.8564Z" fill="#A0616A"/>
<path d="M83.2733 199.834L81.8835 207.131C81.8835 207.131 62.4254 218.597 71.807 221.724C81.1885 224.852 92.6549 208.173 92.6549 208.173L90.5701 199.834H83.2733Z" fill="#A0616A"/>
<path d="M96.8242 144.935L112.113 161.266L154.156 132.078C154.156 132.078 144.427 124.434 141.3 124.434C138.173 124.434 96.8242 144.935 96.8242 144.935Z" fill="#A0616A"/>
<path d="M179.521 59.1108C179.521 59.1108 184.038 27.4915 192.03 29.9237C200.021 32.356 187.513 63.6278 187.513 63.6278L179.521 59.1108Z" fill="#A0616A"/>
<path d="M123.231 75.7891C123.231 75.7891 108.07 73.3569 102.447 75.7891C96.8242 78.2214 79.8394 80.1566 77.7341 77.4517C75.6288 74.7467 56.8657 83.7808 56.8657 87.6029C56.8657 91.425 97.5191 149.104 97.5191 149.104C97.5191 149.104 139.562 137.29 145.122 124.782C145.122 124.782 140.257 121.307 140.257 118.527C140.257 115.748 137.825 112.968 137.825 112.968C137.825 112.968 140.605 106.019 135.74 99.7642C130.876 93.5098 123.231 75.7891 123.231 75.7891Z" fill="#D0CDE1"/>
<path d="M118.714 76.8315L123.231 75.7891C123.231 75.7891 134.35 78.5688 141.995 87.9503C149.639 97.3319 162.842 100.459 162.842 100.459L178.826 57.026L192.029 61.543C192.029 61.543 181.605 116.79 169.792 117.485C157.978 118.18 128.791 105.324 128.791 105.324L118.714 76.8315Z" fill="#D0CDE1"/>
<path d="M62.4254 84.1284C62.4254 84.1284 55.1287 84.4759 55.1287 90.7303C55.1287 96.9846 56.1711 118.527 62.4254 127.909C68.6798 137.291 74.2392 158.486 74.5867 158.833C74.9342 159.181 81.536 202.961 81.536 202.961L92.6549 201.919L90.5701 147.367L79.7987 119.57L62.4254 84.1284Z" fill="#D0CDE1"/>
<path d="M185.152 171.366C176.227 182.452 164.604 191.059 151.397 196.362L149.64 192.536L142.813 199.267C128.267 203.29 112.903 203.292 98.3556 199.273L95.4331 197.403L111.07 179.333C111.07 179.333 111.418 170.299 111.07 168.91C110.722 167.521 106.161 154.908 106.161 154.908C122.008 153.904 144.666 133.803 149.914 128.956C150.636 128.289 151.029 127.91 151.029 127.91C180.215 132.077 184.385 166.129 184.385 166.129L185.152 171.366Z" fill="#2F2E41"/>
<path d="M83.5112 52.9055C84.4487 52.9055 85.2087 51.3221 85.2087 49.369C85.2087 47.4159 84.4487 45.8325 83.5112 45.8325C82.5737 45.8325 81.8137 47.4159 81.8137 49.369C81.8137 51.3221 82.5737 52.9055 83.5112 52.9055Z" fill="#A0616A"/>
<path d="M72.7601 27.1601C78.8539 27.1601 83.7939 22.2201 83.7939 16.1263C83.7939 10.0325 78.8539 5.09253 72.7601 5.09253C66.6663 5.09253 61.7263 10.0325 61.7263 16.1263C61.7263 22.2201 66.6663 27.1601 72.7601 27.1601Z" fill="#2F2E41"/>
<path d="M61.1605 11.0338C61.1609 8.32819 62.1554 5.71704 63.9549 3.69667C65.7545 1.6763 68.2336 0.387557 70.9212 0.075405C69.3741 -0.106389 67.8062 0.0414296 66.3204 0.509135C64.8346 0.976839 63.4647 1.75383 62.3007 2.789C61.1368 3.82416 60.2052 5.09403 59.5673 6.51508C58.9294 7.93612 58.5996 9.47613 58.5996 11.0338C58.5996 12.5914 58.9294 14.1315 59.5673 15.5525C60.2052 16.9735 61.1368 18.2434 62.3007 19.2786C63.4647 20.3137 64.8346 21.0907 66.3204 21.5584C67.8062 22.0261 69.3741 22.174 70.9212 21.9922C68.2336 21.68 65.7545 20.3913 63.9549 18.3709C62.1554 16.3505 61.1609 13.7394 61.1605 11.0338Z" fill="#2F2E41"/>
<path d="M191.02 6.50708H187.059V48.0959H191.02V6.50708Z" fill="#2F2E41"/>
<path d="M79.8333 32.5357C79.8333 32.5357 84.9258 43.2865 91.1499 43.5694C97.3741 43.8523 120.573 39.3257 120.573 39.3257L112.935 23.4823L92.5645 26.0286L79.8333 32.5357Z" fill="#2F2E41"/>
</g>
<defs>
<clipPath id="clip0">
<rect width="240" height="222.115" fill="white"/>
</clipPath>
</defs>
</svg>
