<svg width="240" height="160" viewBox="0 0 240 160" fill="none" xmlns="http://www.w3.org/2000/svg">
<g clip-path="url(#clip0)">
<path d="M29.3234 140.639C29.3234 145.89 26.2014 147.724 22.3504 147.724C22.2608 147.724 22.1716 147.723 22.0829 147.721C21.9046 147.717 21.7277 147.709 21.5532 147.697C18.0774 147.451 15.377 145.523 15.377 140.639C15.377 135.585 21.8343 129.208 22.3213 128.734L22.3223 128.734C22.3407 128.715 22.3504 128.706 22.3504 128.706C22.3504 128.706 29.3234 135.387 29.3234 140.639Z" fill="#3F3D56"/>
<path d="M22.0956 146.921L24.6463 143.357L22.0893 147.312L22.0826 147.721C21.9042 147.717 21.7273 147.709 21.5528 147.697L21.8276 142.443L21.8257 142.402L21.8305 142.394L21.8562 141.898L19.293 137.933L21.864 141.526L21.8703 141.631L22.0782 137.661L19.8838 133.565L22.1049 136.964L22.321 128.734L22.322 128.706V128.734L22.2861 135.223L24.4704 132.651L22.2769 135.782L22.2192 139.337L24.2591 135.926L22.2105 139.86L22.1785 141.836L25.1396 137.088L22.1674 142.525L22.0956 146.921Z" fill="#F2F2F2"/>
<path d="M117.918 110.272C116.054 103.51 105.71 98.5253 97.6382 97.2387V93.9902C97.7874 93.9346 97.9358 93.8774 98.0833 93.8185C98.041 93.1693 97.9105 92.5289 97.6956 91.9148C101.143 90.5131 104.121 88.1583 106.279 85.126C108.55 82.7488 110.262 79.8942 111.289 76.7706C112.316 73.6471 112.632 70.3336 112.215 67.0722C111.797 63.8108 110.656 60.684 108.875 57.9201C107.094 55.1562 104.718 52.8251 101.92 51.0971C102.688 50.6133 103.284 49.9009 103.624 49.0604C103.965 48.2198 104.033 47.2935 103.819 46.4121C103.605 45.5307 103.12 44.7388 102.432 44.1479C101.744 43.5571 100.888 43.1972 99.9839 43.119C100.722 41.377 100.854 39.438 100.359 37.6121C99.8644 35.7862 98.7715 34.1789 97.2554 33.0476C95.7393 31.9162 93.8875 31.3261 91.9963 31.3716C90.1051 31.4171 88.2839 32.0957 86.824 33.2987C88.1118 32.6134 89.5551 32.2733 91.0134 32.3112C92.4718 32.3492 93.8954 32.764 95.1459 33.5154C96.3963 34.2667 97.431 35.3289 98.1492 36.5987C98.8673 37.8685 99.2446 39.3026 99.2442 40.7614C99.2442 40.8356 99.2398 40.9087 99.2379 40.9824C99.201 39.7589 98.8987 38.5579 98.3519 37.4626C97.8052 36.3674 97.0271 35.4039 96.0714 34.639C95.1157 33.874 94.0053 33.3258 92.8168 33.0322C91.6284 32.7386 90.3904 32.7067 89.1885 32.9387C87.9865 33.1706 86.8493 33.6609 85.8554 34.3756C84.8616 35.0903 84.0348 36.0123 83.4324 37.078C82.83 38.1436 82.4662 39.3274 82.3663 40.5474C82.2663 41.7675 82.4326 42.9947 82.8536 44.1442C82.208 44.2837 81.6041 44.5727 81.0904 44.9878C80.5766 45.403 80.1673 45.9328 79.8953 46.5347C79.6233 47.1366 79.4962 47.7939 79.5242 48.4538C79.5521 49.1138 79.7344 49.758 80.0563 50.3347C76.9977 51.9418 74.359 54.2445 72.3527 57.0574C70.3463 59.8703 69.0283 63.1149 68.5046 66.5301C67.981 69.9454 68.2663 73.4358 69.3377 76.7206C70.4091 80.0054 72.2367 82.9929 74.6733 85.4426C76.7263 88.2088 79.4723 90.3848 82.6345 91.7514V97.1661C74.4774 98.3315 63.7353 103.408 61.8583 110.338C60.2226 116.376 58.4766 123.008 57.6079 126.902C65.0542 132.134 80.679 135.206 90.4711 135.206C99.7747 135.206 114.981 132.433 122.208 127.669C121.425 123.391 119.624 116.468 117.918 110.272ZM103.001 47.8056C103.001 47.8826 102.998 47.9588 102.994 48.0347C102.939 47.0798 102.562 46.1717 101.925 45.4586C101.287 44.7456 100.427 44.2699 99.484 44.1092C99.5658 43.9706 99.6439 43.8296 99.7181 43.6861C100.651 43.8999 101.483 44.4237 102.08 45.172C102.676 45.9203 103.001 46.8488 103.001 47.8056Z" fill="url(#paint0_linear)"/>
<path d="M90.4549 133.727C99.4935 133.727 114.267 131.033 121.288 126.405C120.528 122.248 118.778 115.523 117.12 109.504C115.008 101.838 101.679 96.5239 93.728 96.5239H86.066C78.0903 96.5239 64.7424 101.869 62.6572 109.567C61.0681 115.434 59.3718 121.877 58.5278 125.659C65.7621 130.742 80.9418 133.727 90.4549 133.727Z" fill="#FF6700"/>
<path d="M90.3099 91.7027C102.153 91.7027 111.753 82.1023 111.753 70.2596C111.753 58.4168 102.153 48.8164 90.3099 48.8164C78.4671 48.8164 68.8667 58.4168 68.8667 70.2596C68.8667 82.1023 78.4671 91.7027 90.3099 91.7027Z" fill="#F55F44"/>
<path d="M84.5204 85.1641H95.7395C96.1847 85.1641 96.6117 85.3409 96.9265 85.6557C97.2413 85.9705 97.4181 86.3975 97.4181 86.8427V98.3141C97.4181 99.2192 97.2399 100.115 96.8935 100.952C96.5471 101.788 96.0394 102.548 95.3994 103.188C94.7594 103.828 93.9995 104.336 93.1633 104.682C92.3271 105.028 91.4308 105.207 90.5257 105.207H89.7343C88.8292 105.207 87.9329 105.028 87.0966 104.682C86.2604 104.336 85.5006 103.828 84.8606 103.188C84.2205 102.548 83.7128 101.788 83.3665 100.952C83.0201 100.115 82.8418 99.2192 82.8418 98.3141V86.8427C82.8418 86.6223 82.8852 86.404 82.9696 86.2003C83.0539 85.9966 83.1776 85.8116 83.3335 85.6557C83.4893 85.4998 83.6744 85.3762 83.8781 85.2918C84.0817 85.2075 84.3 85.1641 84.5204 85.1641Z" fill="#FDA57D"/>
<path opacity="0.05" d="M90.8033 94.8762C93.2175 94.8776 95.6096 94.4167 97.8505 93.5183C97.7357 91.7486 96.9519 90.0887 95.6581 88.8757C94.3644 87.6626 92.6576 86.9871 90.8841 86.9863H90.2867C88.5427 86.9867 86.8618 87.6393 85.5744 88.8158C84.287 89.9924 83.4861 91.6078 83.3291 93.3448C85.6905 94.3579 88.2337 94.879 90.8033 94.8762Z" fill="black"/>
<path d="M90.3476 93.0541C100.825 93.0541 109.318 84.5607 109.318 74.0835C109.318 63.6063 100.825 55.1128 90.3476 55.1128C79.8704 55.1128 71.377 63.6063 71.377 74.0835C71.377 84.5607 79.8704 93.0541 90.3476 93.0541Z" fill="#FDA57D"/>
<path d="M83.9225 53.3788C86.1903 53.3788 88.0287 51.5404 88.0287 49.2726C88.0287 47.0049 86.1903 45.1665 83.9225 45.1665C81.6548 45.1665 79.8164 47.0049 79.8164 49.2726C79.8164 51.5404 81.6548 53.3788 83.9225 53.3788Z" fill="#F55F44"/>
<path d="M98.5222 53.3788C100.79 53.3788 102.628 51.5404 102.628 49.2726C102.628 47.0049 100.79 45.1665 98.5222 45.1665C96.2544 45.1665 94.416 47.0049 94.416 49.2726C94.416 51.5404 96.2544 53.3788 98.5222 53.3788Z" fill="#F55F44"/>
<path d="M90.766 50.6409C95.3015 50.6409 98.9783 46.9641 98.9783 42.4286C98.9783 37.8931 95.3015 34.2163 90.766 34.2163C86.2305 34.2163 82.5537 37.8931 82.5537 42.4286C82.5537 46.9641 86.2305 50.6409 90.766 50.6409Z" fill="#F55F44"/>
<path d="M99.4346 44.2534C98.6181 44.2522 97.82 44.4955 97.1431 44.9521C98.0851 44.6155 99.1177 44.6346 100.047 45.0057C100.976 45.3768 101.737 46.0745 102.188 46.9675C102.639 47.8605 102.748 48.8875 102.495 49.8553C102.242 50.8231 101.644 51.6652 100.814 52.2233C101.725 51.8987 102.492 51.2626 102.98 50.4272C103.468 49.5918 103.646 48.6109 103.481 47.6576C103.316 46.7043 102.819 45.8399 102.079 45.217C101.339 44.5942 100.402 44.2529 99.4346 44.2534Z" fill="#F55F44"/>
<path d="M92.135 32.8477C90.2288 32.8448 88.3814 33.5078 86.9121 34.7223C88.7094 33.7667 90.7976 33.5128 92.7715 34.0097C94.7454 34.5066 96.4645 35.7189 97.5952 37.4115C98.7258 39.1041 99.1876 41.1564 98.8908 43.1701C98.594 45.1839 97.5599 47.0157 95.989 48.3102C97.6072 47.4503 98.8912 46.0739 99.6368 44.4001C100.382 42.7262 100.547 40.8511 100.103 39.0731C99.6603 37.295 98.6352 35.7164 97.1912 34.5883C95.7472 33.4602 93.9674 32.8475 92.135 32.8477Z" fill="#F55F44"/>
<path d="M76.6226 57.0281C76.6226 57.0281 78.9038 72.0839 107.647 63.8716L93.5034 51.5532L76.6226 57.0281Z" fill="#F55F44"/>
<path d="M28.3672 143.25H16.5569C14.3605 143.25 12.5801 145.031 12.5801 147.227V147.684C12.5801 149.88 14.3605 151.661 16.5569 151.661H28.3672C30.5635 151.661 32.344 149.88 32.344 147.684V147.227C32.344 145.031 30.5635 143.25 28.3672 143.25Z" fill="#FF6700"/>
<g opacity="0.7">
<path opacity="0.7" d="M165.537 137.878V134.848H150.384V148.864C150.384 149.647 150.696 150.399 151.25 150.953C151.804 151.507 152.555 151.818 153.339 151.818H162.582C163.366 151.818 164.117 151.507 164.671 150.953C165.225 150.399 165.537 149.647 165.537 148.864V145.757C166.581 145.757 167.584 145.342 168.322 144.603C169.061 143.865 169.476 142.863 169.476 141.818C169.476 140.773 169.061 139.771 168.322 139.032C167.584 138.293 166.581 137.878 165.537 137.878ZM165.537 144.242V139.393C166.179 139.394 166.795 139.65 167.249 140.104C167.703 140.559 167.958 141.175 167.958 141.818C167.958 142.46 167.703 143.077 167.249 143.531C166.795 143.986 166.179 144.241 165.537 144.242Z" fill="url(#paint1_linear)"/>
</g>
<path d="M165.049 138.353C164.337 138.353 163.642 138.564 163.05 138.959C162.459 139.354 161.998 139.916 161.725 140.573C161.453 141.23 161.382 141.954 161.521 142.651C161.66 143.349 162.002 143.99 162.505 144.493C163.008 144.996 163.649 145.339 164.347 145.478C165.045 145.616 165.768 145.545 166.425 145.273C167.082 145.001 167.644 144.54 168.04 143.948C168.435 143.356 168.646 142.661 168.646 141.95C168.646 141.477 168.553 141.009 168.372 140.573C168.191 140.137 167.926 139.74 167.592 139.406C167.258 139.072 166.862 138.807 166.425 138.626C165.989 138.446 165.521 138.353 165.049 138.353ZM165.049 144.163C164.611 144.163 164.183 144.033 163.819 143.79C163.455 143.547 163.171 143.201 163.004 142.797C162.836 142.392 162.792 141.947 162.878 141.518C162.963 141.088 163.174 140.694 163.483 140.384C163.793 140.075 164.187 139.864 164.617 139.779C165.046 139.693 165.491 139.737 165.896 139.905C166.3 140.072 166.646 140.356 166.889 140.72C167.132 141.084 167.262 141.512 167.262 141.95C167.262 142.537 167.029 143.1 166.614 143.515C166.199 143.93 165.636 144.163 165.049 144.163Z" fill="#FF6700"/>
<path opacity="0.1" d="M165.049 138.353C164.337 138.353 163.642 138.564 163.05 138.959C162.459 139.354 161.998 139.916 161.725 140.573C161.453 141.23 161.382 141.954 161.521 142.651C161.66 143.349 162.002 143.99 162.505 144.493C163.008 144.996 163.649 145.339 164.347 145.478C165.045 145.616 165.768 145.545 166.425 145.273C167.082 145.001 167.644 144.54 168.04 143.948C168.435 143.356 168.646 142.661 168.646 141.95C168.646 141.477 168.553 141.009 168.372 140.573C168.191 140.137 167.926 139.74 167.592 139.406C167.258 139.072 166.862 138.807 166.425 138.626C165.989 138.446 165.521 138.353 165.049 138.353ZM165.049 144.163C164.611 144.163 164.183 144.033 163.819 143.79C163.455 143.547 163.171 143.201 163.004 142.797C162.836 142.392 162.792 141.947 162.878 141.518C162.963 141.088 163.174 140.694 163.483 140.384C163.793 140.075 164.187 139.864 164.617 139.779C165.046 139.693 165.491 139.737 165.896 139.905C166.3 140.072 166.646 140.356 166.889 140.72C167.132 141.084 167.262 141.512 167.262 141.95C167.262 142.537 167.029 143.1 166.614 143.515C166.199 143.93 165.636 144.163 165.049 144.163Z" fill="black"/>
<path d="M151.214 135.585H165.049V148.368C165.049 149.088 164.763 149.777 164.255 150.286C163.746 150.795 163.056 151.08 162.337 151.08H153.926C153.207 151.08 152.517 150.795 152.009 150.286C151.5 149.777 151.214 149.088 151.214 148.368V135.585Z" fill="#FF6700"/>
<path d="M179.575 151.081H0V157.168H179.575V151.081Z" fill="#E0E0E0"/>
<g opacity="0.7">
<path opacity="0.7" d="M123.938 107.104H55.6367C53.4092 107.104 51.6035 108.91 51.6035 111.138V147.047C51.6035 149.275 53.4092 151.08 55.6367 151.08H123.938C126.166 151.08 127.971 149.275 127.971 147.047V111.138C127.971 108.91 126.166 107.104 123.938 107.104Z" fill="url(#paint2_linear)"/>
</g>
<path d="M119.124 107.916H60.4515C56.3291 107.916 52.9873 111.258 52.9873 115.38V143.616C52.9873 147.739 56.3291 151.081 60.4515 151.081H119.124C123.246 151.081 126.588 147.739 126.588 143.616V115.38C126.588 111.258 123.246 107.916 119.124 107.916Z" fill="#535461"/>
<path d="M89.7876 131.988C91.163 131.988 92.2779 130.873 92.2779 129.498C92.2779 128.123 91.163 127.008 89.7876 127.008C88.4123 127.008 87.2974 128.123 87.2974 129.498C87.2974 130.873 88.4123 131.988 89.7876 131.988Z" fill="white"/>
<path d="M171.966 157.168H7.60938V159.658H171.966V157.168Z" fill="#E0E0E0"/>
<path opacity="0.1" d="M171.966 157.168H7.60938V157.998H171.966V157.168Z" fill="black"/>
<path opacity="0.1" d="M162.559 135.585V148.383C162.559 149.098 162.274 149.784 161.768 150.29C161.263 150.796 160.576 151.08 159.861 151.08H161.244C161.96 151.08 162.646 150.796 163.152 150.29C163.658 149.784 163.942 149.098 163.942 148.383V135.585H162.559Z" fill="black"/>
<path d="M153.944 125.271C153.826 125.275 153.71 125.305 153.604 125.358C153.499 125.412 153.406 125.488 153.333 125.581C153.152 125.91 153.481 126.281 153.781 126.507C154.335 126.925 154.919 127.335 155.296 127.918C155.673 128.501 155.792 129.314 155.38 129.873C154.842 130.603 153.558 130.759 153.434 131.657C153.354 132.234 153.853 132.725 154.358 133.015C155.604 133.728 157.21 133.919 158.113 135.036C158.486 134.268 159.322 133.824 160.154 133.635C160.987 133.445 161.852 133.459 162.696 133.331C162.834 133.328 162.969 133.293 163.091 133.228C163.213 133.164 163.317 133.071 163.397 132.959C163.633 132.48 162.96 131.906 163.193 131.425C163.369 131.059 163.888 131.087 164.267 130.941C164.884 130.702 165.139 129.908 164.963 129.27C164.788 128.632 164.294 128.134 163.773 127.725C162.371 126.623 160.686 125.975 158.981 125.509C158.188 125.293 157.257 124.953 156.433 124.92C155.638 124.888 154.731 125.136 153.944 125.271Z" fill="#EEEEEE"/>
<path opacity="0.1" d="M240 0H119.15V82.7965H240V0Z" fill="#535461"/>
<g opacity="0.5">
<path opacity="0.5" d="M157.366 8.1543H131.421C130.73 8.1543 130.169 8.71469 130.169 9.40597V33.1495C130.169 33.8408 130.73 34.4012 131.421 34.4012H157.366C158.057 34.4012 158.617 33.8408 158.617 33.1495V9.40597C158.617 8.71469 158.057 8.1543 157.366 8.1543Z" fill="url(#paint3_linear)"/>
</g>
<path d="M157.057 8.35791H131.768C131.077 8.35791 130.517 8.9183 130.517 9.60958V32.7166C130.517 33.4079 131.077 33.9682 131.768 33.9682H157.057C157.748 33.9682 158.308 33.4079 158.308 32.7166V9.60958C158.308 8.9183 157.748 8.35791 157.057 8.35791Z" fill="#F5F5F5"/>
<path d="M136.094 12.5757H133.91C133.219 12.5757 132.659 13.1361 132.659 13.8274V15.5423C132.659 16.2335 133.219 16.7939 133.91 16.7939H136.094C136.785 16.7939 137.346 16.2335 137.346 15.5423V13.8274C137.346 13.1361 136.785 12.5757 136.094 12.5757Z" fill="#FF6700"/>
<path d="M157.162 12.5757H138.974C138.851 12.5757 138.752 12.6749 138.752 12.7973V12.8228C138.752 12.9452 138.851 13.0444 138.974 13.0444H157.162C157.285 13.0444 157.384 12.9452 157.384 12.8228V12.7973C157.384 12.6749 157.285 12.5757 157.162 12.5757Z" fill="#E0E0E0"/>
<path d="M157.162 13.9819H138.974C138.851 13.9819 138.752 14.0812 138.752 14.2036V14.229C138.752 14.3514 138.851 14.4506 138.974 14.4506H157.162C157.285 14.4506 157.384 14.3514 157.384 14.229V14.2036C157.384 14.0812 157.285 13.9819 157.162 13.9819Z" fill="#E0E0E0"/>
<path d="M157.162 19.0854H132.412C132.289 19.0854 132.19 19.1847 132.19 19.3071V19.3325C132.19 19.4549 132.289 19.5541 132.412 19.5541H157.162C157.284 19.5541 157.384 19.4549 157.384 19.3325V19.3071C157.384 19.1847 157.284 19.0854 157.162 19.0854Z" fill="#E0E0E0"/>
<path d="M157.162 20.4917H132.412C132.289 20.4917 132.19 20.5909 132.19 20.7133V20.7388C132.19 20.8612 132.289 20.9604 132.412 20.9604H157.162C157.284 20.9604 157.384 20.8612 157.384 20.7388V20.7133C157.384 20.5909 157.284 20.4917 157.162 20.4917Z" fill="#E0E0E0"/>
<path d="M157.162 22.3662H132.412C132.289 22.3662 132.19 22.4654 132.19 22.5878V22.6133C132.19 22.7357 132.289 22.8349 132.412 22.8349H157.162C157.284 22.8349 157.384 22.7357 157.384 22.6133V22.5878C157.384 22.4654 157.284 22.3662 157.162 22.3662Z" fill="#E0E0E0"/>
<path d="M146.498 23.7725H132.412C132.289 23.7725 132.19 23.8717 132.19 23.9941V24.0195C132.19 24.1419 132.289 24.2412 132.412 24.2412H146.498C146.62 24.2412 146.719 24.1419 146.719 24.0195V23.9941C146.719 23.8717 146.62 23.7725 146.498 23.7725Z" fill="#E0E0E0"/>
<path d="M157.162 25.6426H132.412C132.289 25.6426 132.19 25.7418 132.19 25.8642V25.8897C132.19 26.0121 132.289 26.1113 132.412 26.1113H157.162C157.284 26.1113 157.384 26.0121 157.384 25.8897V25.8642C157.384 25.7418 157.284 25.6426 157.162 25.6426Z" fill="#E0E0E0"/>
<path d="M157.162 27.0488H132.412C132.289 27.0488 132.19 27.1481 132.19 27.2705V27.2959C132.19 27.4183 132.289 27.5175 132.412 27.5175H157.162C157.284 27.5175 157.384 27.4183 157.384 27.2959V27.2705C157.384 27.1481 157.284 27.0488 157.162 27.0488Z" fill="#E0E0E0"/>
<path d="M157.162 28.9233H132.412C132.289 28.9233 132.19 29.0226 132.19 29.145V29.1704C132.19 29.2928 132.289 29.392 132.412 29.392H157.162C157.284 29.392 157.384 29.2928 157.384 29.1704V29.145C157.384 29.0226 157.284 28.9233 157.162 28.9233Z" fill="#E0E0E0"/>
<path d="M146.498 30.3296H132.412C132.289 30.3296 132.19 30.4288 132.19 30.5512V30.5767C132.19 30.6991 132.289 30.7983 132.412 30.7983H146.498C146.62 30.7983 146.719 30.6991 146.719 30.5767V30.5512C146.719 30.4288 146.62 30.3296 146.498 30.3296Z" fill="#E0E0E0"/>
<g opacity="0.5">
<path opacity="0.5" d="M161.659 14.2192H135.715C135.023 14.2192 134.463 14.7796 134.463 15.4709V39.2144C134.463 39.9057 135.023 40.4661 135.715 40.4661H161.659C162.351 40.4661 162.911 39.9057 162.911 39.2144V15.4709C162.911 14.7796 162.351 14.2192 161.659 14.2192Z" fill="url(#paint4_linear)"/>
</g>
<path d="M161.351 14.4229H136.062C135.371 14.4229 134.811 14.9832 134.811 15.6745V38.7815C134.811 39.4728 135.371 40.0332 136.062 40.0332H161.351C162.042 40.0332 162.602 39.4728 162.602 38.7815V15.6745C162.602 14.9832 162.042 14.4229 161.351 14.4229Z" fill="white"/>
<path d="M140.387 18.6411H138.204C137.513 18.6411 136.952 19.2015 136.952 19.8928V21.6077C136.952 22.299 137.513 22.8594 138.204 22.8594H140.387C141.079 22.8594 141.639 22.299 141.639 21.6077V19.8928C141.639 19.2015 141.079 18.6411 140.387 18.6411Z" fill="#FF6700"/>
<path d="M161.455 18.6411H143.267C143.144 18.6411 143.045 18.7403 143.045 18.8627V18.8882C143.045 19.0106 143.144 19.1098 143.267 19.1098H161.455C161.578 19.1098 161.677 19.0106 161.677 18.8882V18.8627C161.677 18.7403 161.578 18.6411 161.455 18.6411Z" fill="#E0E0E0"/>
<path d="M161.455 20.0474H143.267C143.144 20.0474 143.045 20.1466 143.045 20.269V20.2944C143.045 20.4168 143.144 20.5161 143.267 20.5161H161.455C161.578 20.5161 161.677 20.4168 161.677 20.2944V20.269C161.677 20.1466 161.578 20.0474 161.455 20.0474Z" fill="#E0E0E0"/>
<path d="M161.455 25.1509H136.705C136.582 25.1509 136.483 25.2501 136.483 25.3725V25.3979C136.483 25.5203 136.582 25.6196 136.705 25.6196H161.455C161.577 25.6196 161.677 25.5203 161.677 25.3979V25.3725C161.677 25.2501 161.577 25.1509 161.455 25.1509Z" fill="#E0E0E0"/>
<path d="M161.455 26.5571H136.705C136.582 26.5571 136.483 26.6564 136.483 26.7788V26.8042C136.483 26.9266 136.582 27.0258 136.705 27.0258H161.455C161.577 27.0258 161.677 26.9266 161.677 26.8042V26.7788C161.677 26.6564 161.577 26.5571 161.455 26.5571Z" fill="#E0E0E0"/>
<path d="M161.455 28.4316H136.705C136.582 28.4316 136.483 28.5309 136.483 28.6533V28.6787C136.483 28.8011 136.582 28.9003 136.705 28.9003H161.455C161.577 28.9003 161.677 28.8011 161.677 28.6787V28.6533C161.677 28.5309 161.577 28.4316 161.455 28.4316Z" fill="#E0E0E0"/>
<path d="M150.791 29.8379H136.705C136.582 29.8379 136.483 29.9371 136.483 30.0595V30.085C136.483 30.2074 136.582 30.3066 136.705 30.3066H150.791C150.913 30.3066 151.012 30.2074 151.012 30.085V30.0595C151.012 29.9371 150.913 29.8379 150.791 29.8379Z" fill="#E0E0E0"/>
<path d="M161.455 31.708H136.705C136.582 31.708 136.483 31.8072 136.483 31.9296V31.9551C136.483 32.0775 136.582 32.1767 136.705 32.1767H161.455C161.577 32.1767 161.677 32.0775 161.677 31.9551V31.9296C161.677 31.8072 161.577 31.708 161.455 31.708Z" fill="#E0E0E0"/>
<path d="M161.455 33.1143H136.705C136.582 33.1143 136.483 33.2135 136.483 33.3359V33.3613C136.483 33.4837 136.582 33.583 136.705 33.583H161.455C161.577 33.583 161.677 33.4837 161.677 33.3613V33.3359C161.677 33.2135 161.577 33.1143 161.455 33.1143Z" fill="#E0E0E0"/>
<path d="M161.455 34.9888H136.705C136.582 34.9888 136.483 35.088 136.483 35.2104V35.2358C136.483 35.3582 136.582 35.4575 136.705 35.4575H161.455C161.577 35.4575 161.677 35.3582 161.677 35.2358V35.2104C161.677 35.088 161.577 34.9888 161.455 34.9888Z" fill="#E0E0E0"/>
<path d="M150.791 36.395H136.705C136.582 36.395 136.483 36.4942 136.483 36.6166V36.6421C136.483 36.7645 136.582 36.8637 136.705 36.8637H150.791C150.913 36.8637 151.012 36.7645 151.012 36.6421V36.6166C151.012 36.4942 150.913 36.395 150.791 36.395Z" fill="#E0E0E0"/>
<path d="M190.337 18.1899H174.668V33.2438H190.337V18.1899Z" fill="url(#paint5_linear)"/>
<path d="M190.091 18.5591H174.914V32.9371H190.091V18.5591Z" fill="#F5F5F5"/>
<g opacity="0.6">
<path opacity="0.6" d="M185.36 27.0996H179.891V27.8369H185.36V27.0996Z" fill="#FF6700"/>
</g>
<path d="M187.172 28.4517H177.833V29.189H187.172V28.4517Z" fill="#BDBDBD"/>
<g opacity="0.5">
<path opacity="0.5" d="M231.68 5.01807H197.513V45.1618H231.68V5.01807Z" fill="url(#paint6_linear)"/>
</g>
<path d="M230.953 5.66406H198.563V44.2731H230.953V5.66406Z" fill="white"/>
<path d="M226.187 22.6035H203.41V23.5728H226.187V22.6035Z" fill="#E0E0E0"/>
<path d="M226.187 28.9844H203.41V29.9536H226.187V28.9844Z" fill="#E0E0E0"/>
<path d="M226.187 30.6807H203.41V31.6499H226.187V30.6807Z" fill="#E0E0E0"/>
<path d="M213.022 27.2881H203.41V28.2574H213.022V27.2881Z" fill="#E0E0E0"/>
<path opacity="0.6" d="M226.187 27.2881H218.999V28.2574H226.187V27.2881Z" fill="#3AD29F"/>
<path d="M218.595 34.6387H211.406V35.6079H218.595V34.6387Z" fill="#FF6700"/>
<g opacity="0.5">
<path opacity="0.5" d="M197.879 56.4521H177.578V73.1266H197.879V56.4521Z" fill="url(#paint7_linear)"/>
</g>
<path d="M197.603 56.7676H177.814V72.8507H197.603V56.7676Z" fill="#F2F2F2"/>
<path d="M197.603 56.7676H177.814V60.3548H197.603V56.7676Z" fill="#FF6700"/>
<path opacity="0.1" d="M197.603 56.7676H177.814V60.3548H197.603V56.7676Z" fill="black"/>
<path d="M196.027 61.6558H179.392V63.745H196.027V61.6558Z" fill="#E0E0E0"/>
<path d="M191.533 65.3213H179.392V66.0308H191.533V65.3213Z" fill="#E0E0E0"/>
<path d="M187.275 66.5435H179.392V67.253H187.275V66.5435Z" fill="#E0E0E0"/>
<path d="M189.798 67.7656H179.392V68.4752H189.798V67.7656Z" fill="#E0E0E0"/>
<path d="M191.533 68.9873H179.392V69.6969H191.533V68.9873Z" fill="#E0E0E0"/>
<path d="M183.452 70.2095H179.392V70.919H183.452V70.2095Z" fill="#E0E0E0"/>
<g opacity="0.5">
<path opacity="0.5" d="M190.029 50.3364H164.867V71.004H190.029V50.3364Z" fill="url(#paint8_linear)"/>
</g>
<path d="M189.688 50.7271H165.16V70.6617H189.688V50.7271Z" fill="white"/>
<path d="M189.688 50.7271H165.16V55.1733H189.688V50.7271Z" fill="#FF6700"/>
<path d="M187.733 56.7856H167.114V59.3752H187.733V56.7856Z" fill="#F5F5F5"/>
<path d="M182.163 61.3296H167.114V62.2091H182.163V61.3296Z" fill="#E0E0E0"/>
<path d="M176.886 62.8442H167.114V63.7237H176.886V62.8442Z" fill="#E0E0E0"/>
<path d="M180.013 64.3589H167.114V65.2383H180.013V64.3589Z" fill="#E0E0E0"/>
<path d="M182.163 65.8735H167.114V66.753H182.163V65.8735Z" fill="#E0E0E0"/>
<path d="M172.147 67.3882H167.114V68.2676H172.147V67.3882Z" fill="#E0E0E0"/>
<path d="M174.052 57.6655H168.189V58.4473H174.052V57.6655Z" fill="#69F0AE"/>
<path opacity="0.1" d="M130.556 105.22C132.432 105.22 133.953 103.699 133.953 101.823C133.953 99.9463 132.432 98.4253 130.556 98.4253C128.68 98.4253 127.159 99.9463 127.159 101.823C127.159 103.699 128.68 105.22 130.556 105.22Z" fill="#535461"/>
<path opacity="0.1" d="M136.866 94.3001C138.742 94.3001 140.263 92.7791 140.263 90.9027C140.263 89.0264 138.742 87.5054 136.866 87.5054C134.989 87.5054 133.468 89.0264 133.468 90.9027C133.468 92.7791 134.989 94.3001 136.866 94.3001Z" fill="#535461"/>
</g>
<defs>
<linearGradient id="paint0_linear" x1="89.9081" y1="135.206" x2="89.9081" y2="31.3691" gradientUnits="userSpaceOnUse">
<stop stop-color="#808080" stop-opacity="0.25"/>
<stop offset="0.53514" stop-color="#808080" stop-opacity="0.12"/>
<stop offset="1" stop-color="#808080" stop-opacity="0.1"/>
</linearGradient>
<linearGradient id="paint1_linear" x1="14346.3" y1="12163.9" x2="14346.3" y2="11128.5" gradientUnits="userSpaceOnUse">
<stop stop-color="#808080" stop-opacity="0.25"/>
<stop offset="0.53514" stop-color="#808080" stop-opacity="0.12"/>
<stop offset="1" stop-color="#808080" stop-opacity="0.1"/>
</linearGradient>
<linearGradient id="paint2_linear" x1="24703.4" y1="23993.1" x2="24703.4" y2="17040.5" gradientUnits="userSpaceOnUse">
<stop stop-color="#808080" stop-opacity="0.25"/>
<stop offset="0.53514" stop-color="#808080" stop-opacity="0.12"/>
<stop offset="1" stop-color="#808080" stop-opacity="0.1"/>
</linearGradient>
<linearGradient id="paint3_linear" x1="14898.1" y1="3254.31" x2="14898.1" y2="777.603" gradientUnits="userSpaceOnUse">
<stop stop-color="#808080" stop-opacity="0.25"/>
<stop offset="0.53514" stop-color="#808080" stop-opacity="0.12"/>
<stop offset="1" stop-color="#808080" stop-opacity="0.1"/>
</linearGradient>
<linearGradient id="paint4_linear" x1="15341.5" y1="3832.71" x2="15341.5" y2="1356" gradientUnits="userSpaceOnUse">
<stop stop-color="#808080" stop-opacity="0.25"/>
<stop offset="0.53514" stop-color="#808080" stop-opacity="0.12"/>
<stop offset="1" stop-color="#808080" stop-opacity="0.1"/>
</linearGradient>
<linearGradient id="paint5_linear" x1="10455.1" y1="1817.41" x2="10455.1" y2="1002.67" gradientUnits="userSpaceOnUse">
<stop stop-color="#808080" stop-opacity="0.25"/>
<stop offset="0.53514" stop-color="#808080" stop-opacity="0.12"/>
<stop offset="1" stop-color="#808080" stop-opacity="0.1"/>
</linearGradient>
<linearGradient id="paint6_linear" x1="26557.5" y1="6522.94" x2="26557.5" y2="729.231" gradientUnits="userSpaceOnUse">
<stop stop-color="#808080" stop-opacity="0.25"/>
<stop offset="0.53514" stop-color="#808080" stop-opacity="0.12"/>
<stop offset="1" stop-color="#808080" stop-opacity="0.1"/>
</linearGradient>
<linearGradient id="paint7_linear" x1="13879.1" y1="4440.22" x2="13879.1" y2="3440.63" gradientUnits="userSpaceOnUse">
<stop stop-color="#808080" stop-opacity="0.25"/>
<stop offset="0.53514" stop-color="#808080" stop-opacity="0.12"/>
<stop offset="1" stop-color="#808080" stop-opacity="0.1"/>
</linearGradient>
<linearGradient id="paint8_linear" x1="16217.6" y1="5326.18" x2="16217.6" y2="3790.51" gradientUnits="userSpaceOnUse">
<stop stop-color="#808080" stop-opacity="0.25"/>
<stop offset="0.53514" stop-color="#808080" stop-opacity="0.12"/>
<stop offset="1" stop-color="#808080" stop-opacity="0.1"/>
</linearGradient>
<clipPath id="clip0">
<rect width="240" height="159.658" fill="white"/>
</clipPath>
</defs>
</svg>
