<svg width="240" height="197" viewBox="0 0 240 197" fill="none" xmlns="http://www.w3.org/2000/svg">
<g clip-path="url(#clip0)">
<path d="M228.384 75.0029C217.495 32.1856 179.871 1.27743 135.708 0.0377304C112.361 -0.617661 87.7924 7.12568 69.905 34.2225C37.9293 82.6609 71.87 116.133 95.5325 132.039C106.964 139.738 117.265 148.997 126.136 159.545C142.12 178.512 172.868 202.081 209.488 165.152C236.03 138.386 235.637 103.523 228.384 75.0029Z" fill="#F2F2F2"/>
<path d="M240 140.527C240 160.9 188.324 196.087 122.049 196.087C55.7752 196.087 0 161.81 0 141.438C0 121.065 99.5066 89.0658 122.049 122.311C144.592 155.555 240 120.154 240 140.527Z" fill="#3F3D56"/>
<path opacity="0.1" d="M240 140.527C240 160.9 188.324 196.087 122.049 196.087C55.7752 196.087 0 161.81 0 141.438C0 121.065 99.5066 89.0658 122.049 122.311C144.592 155.555 240 120.154 240 140.527Z" fill="black"/>
<path d="M240 141.437C240 161.81 186.274 178.325 120 178.325C53.7258 178.325 0 161.81 0 141.437C0 121.065 97.4573 71.3045 120 104.549C142.543 137.794 240 121.065 240 141.437Z" fill="#3F3D56"/>
<path opacity="0.1" d="M166.452 161.02C185.818 161.02 201.518 155.107 201.518 147.813C201.518 140.519 185.818 134.606 166.452 134.606C147.085 134.606 131.385 140.519 131.385 147.813C131.385 155.107 147.085 161.02 166.452 161.02Z" fill="black"/>
<path opacity="0.1" d="M25.503 146.648C35.8151 146.648 44.1748 143.5 44.1748 139.616C44.1748 135.732 35.8151 132.583 25.503 132.583C15.1909 132.583 6.8313 135.732 6.8313 139.616C6.8313 143.5 15.1909 146.648 25.503 146.648Z" fill="black"/>
<path d="M5.16797 109.06C5.16797 123.636 14.3126 135.432 25.6137 135.432L5.16797 109.06Z" fill="#2F2E41"/>
<path d="M25.6135 135.432C25.6135 120.691 35.8184 108.763 48.4298 108.763L25.6135 135.432Z" fill="#FF6700"/>
<path d="M12.5757 110.381C12.5757 124.227 18.4071 135.432 25.6135 135.432L12.5757 110.381Z" fill="#FF6700"/>
<path d="M25.6135 135.432C25.6135 116.597 37.4088 101.355 51.9856 101.355L25.6135 135.432Z" fill="#2F2E41"/>
<path d="M21.3123 135.618C21.3123 135.618 24.2118 135.528 25.0856 134.906C25.9595 134.284 29.5459 133.541 29.7627 134.539C29.9794 135.537 34.1201 139.502 30.8466 139.529C27.573 139.555 23.2403 139.019 22.3681 138.487C21.4959 137.956 21.3123 135.618 21.3123 135.618Z" fill="#A8A8A8"/>
<path opacity="0.2" d="M30.905 139.181C27.6314 139.207 23.2987 138.671 22.4265 138.14C21.7623 137.735 21.4976 136.284 21.4091 135.614C21.3477 135.616 21.3123 135.618 21.3123 135.618C21.3123 135.618 21.4959 137.956 22.3681 138.487C23.2402 139.019 27.573 139.555 30.8466 139.528C31.7915 139.521 32.1179 139.185 32.1 138.687C31.9687 138.988 31.6083 139.175 30.905 139.181Z" fill="black"/>
<path opacity="0.1" d="M92.2432 113.797C105.534 113.797 116.308 109.739 116.308 104.733C116.308 99.7278 105.534 95.6699 92.2432 95.6699C78.9524 95.6699 68.178 99.7278 68.178 104.733C68.178 109.739 78.9524 113.797 92.2432 113.797Z" fill="black"/>
<path d="M66.0339 65.3506C66.0339 84.1379 77.8201 99.3404 92.3856 99.3404L66.0339 65.3506Z" fill="#2F2E41"/>
<path d="M92.3857 99.3406C92.3857 80.3421 105.538 64.9688 121.793 64.9688L92.3857 99.3406Z" fill="#FF6700"/>
<path d="M75.5818 67.0537C75.5818 84.8997 83.0976 99.3405 92.3858 99.3405L75.5818 67.0537Z" fill="#FF6700"/>
<path d="M92.3857 99.3404C92.3857 75.0646 107.588 55.4209 126.376 55.4209L92.3857 99.3404Z" fill="#2F2E41"/>
<path d="M86.8423 99.5799C86.8423 99.5799 90.5794 99.4648 91.7057 98.6628C92.8319 97.8608 97.4543 96.9032 97.7337 98.1894C98.0131 99.4756 103.35 104.587 99.1307 104.621C94.9115 104.655 89.3272 103.963 88.2031 103.279C87.079 102.594 86.8423 99.5799 86.8423 99.5799Z" fill="#A8A8A8"/>
<path opacity="0.2" d="M99.2059 104.173C94.9868 104.207 89.4025 103.516 88.2784 102.831C87.4223 102.31 87.0812 100.438 86.967 99.5752C86.888 99.5786 86.8423 99.58 86.8423 99.58C86.8423 99.58 87.079 102.594 88.2031 103.279C89.3272 103.964 94.9115 104.655 99.1307 104.621C100.349 104.611 100.769 104.178 100.746 103.536C100.577 103.924 100.112 104.166 99.2059 104.173Z" fill="black"/>
<path d="M161.796 13.3218H161.796C164.787 13.3218 167.656 14.51 169.771 16.6252C171.886 18.7403 173.074 21.609 173.074 24.6002V35.8787H150.517V24.6002C150.517 21.609 151.706 18.7403 153.821 16.6252C155.936 14.51 158.805 13.3218 161.796 13.3218L161.796 13.3218Z" fill="#2F2E41"/>
<path d="M171.258 35.2094L171.094 36.2742L170.494 40.1796V46.1056L163.612 49.3553L157.304 49.9288L154.819 41.8121L154.436 40.5619C154.436 40.5619 154.547 40.4874 154.74 40.3593C154.908 40.2446 155.142 40.0878 155.421 39.9005C156.266 39.3327 157.52 38.4802 158.642 37.6945C160.553 36.3564 158.642 28.1365 158.642 28.1365L164.95 27.563C164.95 27.563 165.524 29.0923 166.097 32.342C166.527 34.7793 169.215 35.1731 170.532 35.2171C170.774 35.2283 171.017 35.2257 171.258 35.2094Z" fill="#FFB9B9"/>
<path d="M150.995 124.673V138.818H154.818L156.73 124.099L150.995 124.673Z" fill="#FFB9B9"/>
<path d="M153.098 134.04L150.804 133.657C150.804 133.657 149.848 141.304 148.893 143.024C147.937 144.745 142.775 151.818 145.643 152.2C148.51 152.582 152.333 152.2 152.525 151.244C152.716 150.288 154.245 144.553 154.436 144.936C154.627 145.318 154.436 149.141 154.436 149.141H155.201V144.553C155.201 144.553 158.451 142.259 157.495 141.112C156.539 139.966 155.583 137.098 155.583 137.098L155.774 134.231L153.098 134.04Z" fill="#2F2E41"/>
<path d="M180.051 124.673V138.818H176.228L174.317 124.099L180.051 124.673Z" fill="#FFB9B9"/>
<path d="M177.949 134.04L180.243 133.657C180.243 133.657 181.199 141.304 182.154 143.024C183.11 144.745 188.272 151.818 185.404 152.2C182.537 152.582 178.713 152.2 178.522 151.244C178.331 150.288 176.802 144.553 176.611 144.936C176.42 145.318 176.611 149.141 176.611 149.141H175.846V144.553C175.846 144.553 172.596 142.259 173.552 141.112C174.508 139.966 175.464 137.098 175.464 137.098L175.273 134.231L177.949 134.04Z" fill="#2F2E41"/>
<path d="M161.7 31.9598C165.712 31.9598 168.964 28.7076 168.964 24.6957C168.964 20.6839 165.712 17.4316 161.7 17.4316C157.689 17.4316 154.436 20.6839 154.436 24.6957C154.436 28.7076 157.689 31.9598 161.7 31.9598Z" fill="#FFB9B9"/>
<path d="M184.448 56.4289L179.669 74.2069L179.096 80.5152L175.655 74.2069C175.655 74.2069 177.567 71.3395 177.949 69.4279C178.331 67.5163 180.052 57.3847 180.052 57.3847L174.676 45.8291L174.454 45.3531L172.596 45.3416L170.685 42.8565L171.832 39.798V37.504L171.094 36.2749L170.685 35.5924L171.258 35.2101L174.317 34.8278C174.442 34.8178 174.569 34.8262 174.692 34.8527C175.493 34.9998 177.427 35.8792 178.905 40.7538C180.816 47.0621 184.448 56.4289 184.448 56.4289Z" fill="#FFB9B9"/>
<path d="M157.303 54.1344V65.604L150.995 83.1908C150.995 83.1908 149.466 90.4549 144.878 90.8372C140.29 91.2196 147.937 82.235 147.937 82.235L152.907 63.3101V53.3698C152.907 53.3698 151.569 48.2084 151.186 45.9145C150.902 44.2017 151.467 42.3838 151.773 41.5713C151.876 41.2961 151.951 41.1355 151.951 41.1355L154.436 40.3708L154.74 40.3594L154.818 41.8122L155.01 45.341L157.303 54.1344Z" fill="#FFB9B9"/>
<path d="M172.979 60.634C172.979 60.634 174.317 64.8396 174.508 65.0307C174.699 65.2219 170.302 65.9865 170.302 65.9865H161.891L157.686 64.0749L158.068 60.4429L172.979 60.634Z" fill="#FFB9B9"/>
<path d="M175.082 63.1193C175.082 63.1193 174.699 67.3249 175.655 68.8542C176.611 70.3835 179.096 73.2509 179.861 81.6619C180.625 90.073 181.581 121.806 181.963 123.144C182.346 124.482 183.493 126.202 182.346 126.394C181.199 126.585 172.214 128.687 172.214 126.394C172.214 124.1 172.214 123.335 171.641 122.953C171.067 122.57 164.185 92.5581 164.185 92.5581L157.877 123.717C157.877 123.717 160.362 127.158 156.539 126.776C152.716 126.394 146.025 125.82 146.79 123.908C147.185 122.98 147.505 122.021 147.746 121.041L151.569 86.6321C151.569 86.6321 152.333 72.1039 157.304 64.3619L157.686 62.5195C157.686 62.5195 164.759 63.1193 167.244 63.884C169.729 64.6486 175.082 63.1193 175.082 63.1193Z" fill="#2F2E41"/>
<path d="M174.676 45.8286C174.516 47.918 173.567 60.3797 173.743 61.7809C173.743 61.7809 174.699 62.9279 171.832 62.3544C168.964 61.7809 160.553 62.3544 159.597 62.5456C158.642 62.7367 157.495 63.5014 157.495 62.1633C157.495 60.8251 157.877 56.8108 157.303 56.2373C156.73 55.6638 153.863 50.6936 154.054 49.3555C154.191 48.394 152.653 43.982 151.773 41.5715C151.876 41.2962 151.951 41.1356 151.951 41.1356L154.436 40.371L154.74 40.3595C154.908 40.2448 155.141 40.088 155.421 39.9007L156.348 44.3853L156.73 45.9146C156.73 45.9146 163.038 45.9146 168.008 42.2826L170.532 35.2173C170.774 35.2285 171.016 35.2259 171.258 35.2096L174.317 34.8273C174.442 34.8173 174.568 34.8257 174.691 34.8522L171.832 43.4295L174.454 45.3526L174.699 45.5323C174.699 45.5323 174.691 45.6374 174.676 45.8286Z" fill="#FF6584"/>
<path d="M166.957 23.2618H156.826L154.532 17.3359H168.678L166.957 23.2618Z" fill="#2F2E41"/>
<path d="M154.957 27.5984C155.261 27.5103 155.318 26.7812 155.082 25.9699C154.847 25.1587 154.41 24.5725 154.106 24.6607C153.802 24.7489 153.746 25.4779 153.981 26.2892C154.216 27.1004 154.653 27.6866 154.957 27.5984Z" fill="#FFB9B9"/>
<path d="M169.42 26.2893C169.655 25.4781 169.599 24.749 169.294 24.6609C168.99 24.5727 168.553 25.1589 168.318 25.9701C168.083 26.7813 168.139 27.5104 168.443 27.5986C168.747 27.6867 169.185 27.1006 169.42 26.2893Z" fill="#FFB9B9"/>
<path d="M145.958 87.6997H106.793V137.567H145.958V87.6997Z" fill="white"/>
<path d="M138.682 100.564H114.069C113.698 100.564 113.396 100.865 113.396 101.237V107.179C113.396 107.55 113.698 107.851 114.069 107.851H138.682C139.054 107.851 139.355 107.55 139.355 107.179V101.237C139.355 100.865 139.054 100.564 138.682 100.564Z" fill="#2F2E41"/>
<path d="M133.207 102.614C133.584 102.614 133.89 102.308 133.89 101.931C133.89 101.553 133.584 101.248 133.207 101.248C132.83 101.248 132.524 101.553 132.524 101.931C132.524 102.308 132.83 102.614 133.207 102.614Z" fill="#FF6700"/>
<path d="M135.256 102.614C135.633 102.614 135.939 102.308 135.939 101.931C135.939 101.553 135.633 101.248 135.256 101.248C134.879 101.248 134.573 101.553 134.573 101.931C134.573 102.308 134.879 102.614 135.256 102.614Z" fill="#FF6700"/>
<path d="M137.305 102.614C137.683 102.614 137.989 102.308 137.989 101.931C137.989 101.553 137.683 101.248 137.305 101.248C136.928 101.248 136.622 101.553 136.622 101.931C136.622 102.308 136.928 102.614 137.305 102.614Z" fill="#FF6700"/>
<path d="M138.682 108.99H114.069C113.698 108.99 113.396 109.291 113.396 109.662V115.604C113.396 115.975 113.698 116.276 114.069 116.276H138.682C139.054 116.276 139.355 115.975 139.355 115.604V109.662C139.355 109.291 139.054 108.99 138.682 108.99Z" fill="#2F2E41"/>
<path d="M133.207 111.039C133.584 111.039 133.89 110.733 133.89 110.356C133.89 109.979 133.584 109.673 133.207 109.673C132.83 109.673 132.524 109.979 132.524 110.356C132.524 110.733 132.83 111.039 133.207 111.039Z" fill="#FF6700"/>
<path d="M135.256 111.039C135.633 111.039 135.939 110.733 135.939 110.356C135.939 109.979 135.633 109.673 135.256 109.673C134.879 109.673 134.573 109.979 134.573 110.356C134.573 110.733 134.879 111.039 135.256 111.039Z" fill="#FF6700"/>
<path d="M137.305 111.039C137.683 111.039 137.989 110.733 137.989 110.356C137.989 109.979 137.683 109.673 137.305 109.673C136.928 109.673 136.622 109.979 136.622 110.356C136.622 110.733 136.928 111.039 137.305 111.039Z" fill="#FF6700"/>
<path d="M138.682 117.415H114.069C113.698 117.415 113.396 117.716 113.396 118.087V124.029C113.396 124.401 113.698 124.702 114.069 124.702H138.682C139.054 124.702 139.355 124.401 139.355 124.029V118.087C139.355 117.716 139.054 117.415 138.682 117.415Z" fill="#2F2E41"/>
<path d="M133.207 119.464C133.584 119.464 133.89 119.159 133.89 118.781C133.89 118.404 133.584 118.098 133.207 118.098C132.83 118.098 132.524 118.404 132.524 118.781C132.524 119.159 132.83 119.464 133.207 119.464Z" fill="#FF6700"/>
<path d="M135.256 119.464C135.633 119.464 135.939 119.159 135.939 118.781C135.939 118.404 135.633 118.098 135.256 118.098C134.879 118.098 134.573 118.404 134.573 118.781C134.573 119.159 134.879 119.464 135.256 119.464Z" fill="#FF6700"/>
<path d="M137.305 119.464C137.683 119.464 137.989 119.159 137.989 118.781C137.989 118.404 137.683 118.098 137.305 118.098C136.928 118.098 136.622 118.404 136.622 118.781C136.622 119.159 136.928 119.464 137.305 119.464Z" fill="#FF6700"/>
</g>
<defs>
<clipPath id="clip0">
<rect width="240" height="196.087" fill="white"/>
</clipPath>
</defs>
</svg>
