<svg width="64" height="64" viewBox="0 0 64 64" fill="none" xmlns="http://www.w3.org/2000/svg">
<g clip-path="url(#clip0)">
<path d="M63.5535 22.9912L56.4034 4.40069C55.0484 0.886335 51.1011 -0.86418 47.5867 0.490731C47.5357 0.510445 47.4848 0.530691 47.4342 0.551604L11.7024 15.3635C8.3001 16.7591 6.62791 20.6103 7.93127 24.0492L8.91376 26.6716H6.66001C2.98355 26.6757 0.00412921 29.6552 0 33.3316V57.3076C0.00412921 60.9841 2.98355 63.9635 6.66001 63.9676H51.9481C55.6245 63.9635 58.604 60.9841 58.6081 57.3076V33.3316C58.6059 32.9701 58.5738 32.6094 58.5122 32.2532L59.7493 31.7524C63.182 30.3454 64.8692 26.46 63.5535 22.9912ZM6.66001 28.803H51.9481C54.3398 28.8097 56.3128 30.6776 56.4502 33.0654H2.15784C2.29531 30.6775 4.26827 28.8096 6.66001 28.803ZM17.3704 22.3838L24.4929 18.8215L25.957 22.4839L18.8345 26.0452L17.3704 22.3838ZM56.4769 57.3078C56.4739 59.8078 54.4481 61.8336 51.9481 61.8366H6.66001C4.15998 61.8336 2.13413 59.8078 2.1312 57.3078V43.7214H56.4769V57.3078ZM56.4769 41.5902H2.1312V35.1966H56.4769V41.5902ZM58.9501 29.7833L57.8366 30.2341C56.6864 28.0464 54.4197 26.6752 51.9481 26.6717H22.3478L27.7877 23.9513C28.2837 23.7036 28.5071 23.117 28.3013 22.6022L26.0412 16.9545C25.8226 16.4081 25.2025 16.1423 24.6562 16.3607C24.6286 16.3718 24.6015 16.3839 24.575 16.3972L15.5398 20.9175C15.0442 21.1655 14.8213 21.752 15.0272 22.2666L16.7898 26.6717H11.1888L9.92714 23.3066C9.0327 20.9439 10.1816 18.2985 12.5187 17.3392L48.2494 2.52736C50.638 1.53689 53.3774 2.67028 54.3681 5.05896C54.3835 5.09613 54.3984 5.13355 54.4128 5.17112L61.563 23.7616C62.4676 26.1452 61.3088 28.8156 58.9501 29.7833Z" fill="#1E266D"/>
<path d="M38.3317 58.8401C40.3175 59.9938 42.7695 59.9938 44.7553 58.8401C47.8085 60.614 51.7217 59.5767 53.4955 56.5235C55.2693 53.4703 54.2321 49.5572 51.1789 47.7833C50.1989 47.214 49.0854 46.9154 47.9521 46.9181C46.8287 46.9186 45.7255 47.2171 44.7553 47.7833C41.7021 46.0095 37.7889 47.0466 36.0151 50.0998C34.2413 53.1532 35.2785 57.0662 38.3317 58.8401ZM46.537 49.3094C46.9903 49.1424 47.469 49.0545 47.9521 49.0494C50.3061 49.0494 52.2145 50.9578 52.2145 53.3118C52.2145 55.6658 50.3061 57.5742 47.9521 57.5742C47.469 57.5691 46.9903 57.4812 46.537 57.3142C48.4236 54.9793 48.4236 51.6441 46.537 49.3094ZM44.7553 50.5221C46.1761 52.1106 46.1761 54.513 44.7553 56.1015C43.3344 54.513 43.3344 52.1105 44.7553 50.5221ZM41.5585 49.0494C42.0416 49.0543 42.5203 49.1424 42.9736 49.3094C41.087 51.6441 41.087 54.9795 42.9736 57.3142C42.5203 57.4812 42.0416 57.5691 41.5585 57.5742C39.2044 57.5742 37.2961 55.6658 37.2961 53.3118C37.2961 50.9576 39.2044 49.0494 41.5585 49.0494Z" fill="#1E266D"/>
<path d="M44.9495 22.0238L45.8152 23.9713L55.9811 19.4524L55.1154 17.5049L44.9495 22.0238Z" fill="#1E266D"/>
<path d="M52.8469 12.9935L38.1631 19.771L39.0558 21.7052L53.7396 14.9277L52.8469 12.9935Z" fill="#1E266D"/>
</g>
<defs>
<clipPath id="clip0">
<rect width="64" height="64" fill="white"/>
</clipPath>
</defs>
</svg>
