<svg width="26" height="24" viewBox="0 0 26 24" fill="none" xmlns="http://www.w3.org/2000/svg">
<g clip-path="url(#clip0)">
<path d="M23.0319 16.8038L24.3373 8.50574L20.979 11.8254L20.0424 6.03503L15.7679 11.0218L13.1224 3.84348L10.4769 11.0218L6.20242 6.03503L5.26578 11.8254L1.90747 8.50574L3.21287 16.8038V19.0273H23.0319V16.8038Z" fill="#FFDB0C"/>
<path d="M23.0321 16.8038L24.3375 8.50574L20.9792 11.8254L20.0425 6.03503L15.7681 11.0218L13.1226 3.84348V19.0273H23.0321V16.8038Z" fill="#FBBF00"/>
<path d="M23.0316 16.8055H3.21265V21.2526H23.0316V16.8055Z" fill="#FFA900"/>
<path d="M23.0323 16.8055H13.1226V21.2526H23.0323V16.8055Z" fill="#FF8800"/>
<path d="M1.90754 9.60225C2.52998 9.60225 3.03456 9.11164 3.03456 8.50645C3.03456 7.90125 2.52998 7.41064 1.90754 7.41064C1.2851 7.41064 0.780518 7.90125 0.780518 8.50645C0.780518 9.11164 1.2851 9.60225 1.90754 9.60225Z" fill="#FF8800"/>
<path d="M6.20221 7.1305C6.82465 7.1305 7.32923 6.6399 7.32923 6.0347C7.32923 5.42951 6.82465 4.9389 6.20221 4.9389C5.57978 4.9389 5.0752 5.42951 5.0752 6.0347C5.0752 6.6399 5.57978 7.1305 6.20221 7.1305Z" fill="#FF421D"/>
<path d="M13.1224 4.93908C13.7448 4.93908 14.2494 4.44847 14.2494 3.84327C14.2494 3.23808 13.7448 2.74747 13.1224 2.74747C12.4999 2.74747 11.9954 3.23808 11.9954 3.84327C11.9954 4.44847 12.4999 4.93908 13.1224 4.93908Z" fill="#DE0418"/>
<path d="M24.337 9.60225C24.9594 9.60225 25.464 9.11164 25.464 8.50645C25.464 7.90125 24.9594 7.41064 24.337 7.41064C23.7145 7.41064 23.21 7.90125 23.21 8.50645C23.21 9.11164 23.7145 9.60225 24.337 9.60225Z" fill="#870215"/>
<path d="M20.0426 7.1305C20.665 7.1305 21.1696 6.6399 21.1696 6.0347C21.1696 5.42951 20.665 4.9389 20.0426 4.9389C19.4201 4.9389 18.9155 5.42951 18.9155 6.0347C18.9155 6.6399 19.4201 7.1305 20.0426 7.1305Z" fill="#A3021A"/>
</g>
<defs>
<clipPath id="clip0">
<rect x="0.780518" width="24.6838" height="24" fill="white"/>
</clipPath>
</defs>
</svg>
