<svg width="16" height="16" viewBox="0 0 16 16" fill="none" xmlns="http://www.w3.org/2000/svg">
<g clip-path="url(#clip0)">
<path d="M14.01 4.50799L14.01 4.50793C13.7681 4.16492 13.7922 3.84078 13.9282 3.60033C14.0739 3.34283 14.3556 3.16673 14.6667 3.16673C15.1265 3.16673 15.5 3.54021 15.5 4.00007C15.5 4.33543 15.305 4.62367 15.0286 4.75105C14.674 4.91395 14.4623 5.17838 14.3396 5.4627C14.3398 5.46 14.3399 5.45729 14.34 5.45459C14.3526 5.12204 14.2244 4.81222 14.01 4.50799ZM14.0453 6.24245C14.099 6.16314 14.1541 6.07478 14.2019 5.97698C14.1679 6.21871 14.1667 6.45792 14.1667 6.65273V10.8334H1.83333V6.65273C1.83333 6.45798 1.83215 6.21893 1.79809 5.97734C1.84597 6.07487 1.90108 6.16297 1.95486 6.24205C2.515 7.06799 3.38683 7.8334 4.66667 7.8334C6.69029 7.8334 7.70902 6.15563 7.91462 4.84558L7.91479 4.84451L7.91628 4.83485C7.94603 4.64274 7.98577 4.3861 7.93758 4.11997C7.88381 3.82303 7.73341 3.56149 7.47863 3.31366L7.47816 3.3132C7.27726 3.1183 7.16667 2.89744 7.16667 2.66673C7.16667 2.20687 7.54014 1.8334 8 1.8334C8.45986 1.8334 8.83333 2.20687 8.83333 2.66673C8.83333 2.89744 8.72274 3.1183 8.52184 3.3132L8.52137 3.31366C8.26676 3.56132 8.11613 3.82276 8.06221 4.11975C8.01366 4.38713 8.05395 4.64467 8.08413 4.83761L8.08533 4.8453L8.08538 4.84558C8.29098 6.15563 9.30971 7.8334 11.3333 7.8334C12.6131 7.8334 13.4849 7.06803 14.045 6.24288L14.0453 6.24245ZM1.65983 5.46172C1.53706 5.17795 1.32558 4.91419 0.971847 4.75125L0.971729 4.7512C0.695159 4.6239 0.5 4.33557 0.5 4.00007C0.5 3.54021 0.873479 3.16673 1.33333 3.16673C1.64438 3.16673 1.92614 3.34283 2.07181 3.60033C2.20783 3.84078 2.23189 4.16492 1.99003 4.50793C1.7754 4.81195 1.64686 5.12182 1.65953 5.45452C1.65962 5.45692 1.65972 5.45933 1.65983 5.46172ZM14.1667 13.1667V14.1667H1.83333V13.1667H14.1667Z" stroke="#FF6700"/>
</g>
<defs>
<clipPath id="clip0">
<rect width="16" height="16" fill="white"/>
</clipPath>
</defs>
</svg>
