<svg width="409" height="294" viewBox="0 0 409 294" fill="none" xmlns="http://www.w3.org/2000/svg">
<g clip-path="url(#clip0)">
<path d="M357.053 255.776C353.73 256.062 350.387 256.018 347.072 255.642C310.639 251.605 261.027 252.754 220.584 277.867C164.651 312.592 76.9951 282.864 38.3282 266.691C8.78401 254.339 -6.55375 224.084 2.659 195.685C2.78871 195.284 2.92201 194.883 3.06253 194.482C8.85968 177.605 20.3027 164.397 34.4731 157.396C46.824 151.293 64.8568 138.551 72.8805 114.066C76.1952 103.955 80.7422 94.4446 86.6474 86.1541C102.461 63.9512 135.565 30.8869 192.499 31.0928C202.481 31.1412 212.388 32.8219 221.83 36.0685C242.63 43.1709 261.416 57.6106 275.741 77.629C284.882 90.3968 298.58 102.266 318.191 103.233C345.408 104.584 371.382 117.283 390.866 139.883C391.428 140.533 391.983 141.187 392.538 141.847C427.231 183.267 403.134 251.739 357.053 255.776Z" fill="#6C63FF"/>
<g opacity="0.7">
<path opacity="0.7" d="M99.9677 251.714C102.714 251.714 104.94 249.483 104.94 246.731C104.94 243.979 102.714 241.748 99.9677 241.748C97.2217 241.748 94.9956 243.979 94.9956 246.731C94.9956 249.483 97.2217 251.714 99.9677 251.714Z" fill="url(#paint0_linear)"/>
</g>
<path opacity="0.2" d="M99.9674 251.49C102.59 251.49 104.716 249.359 104.716 246.731C104.716 244.102 102.59 241.972 99.9674 241.972C97.3448 241.972 95.2188 244.102 95.2188 246.731C95.2188 249.359 97.3448 251.49 99.9674 251.49Z" fill="black"/>
<path d="M73.1798 151.38C74.1946 151.38 75.0173 150.556 75.0173 149.539C75.0173 148.522 74.1946 147.697 73.1798 147.697C72.165 147.697 71.3423 148.522 71.3423 149.539C71.3423 150.556 72.165 151.38 73.1798 151.38Z" fill="white"/>
<path d="M204.327 258.26C205.342 258.26 206.165 257.436 206.165 256.419C206.165 255.402 205.342 254.577 204.327 254.577C203.312 254.577 202.49 255.402 202.49 256.419C202.49 257.436 203.312 258.26 204.327 258.26Z" fill="white"/>
<path d="M126.864 266.836C127.431 266.836 127.89 266.375 127.89 265.806C127.89 265.238 127.431 264.777 126.864 264.777C126.296 264.777 125.837 265.238 125.837 265.806C125.837 266.375 126.296 266.836 126.864 266.836Z" fill="white"/>
<path d="M354.21 217.006C354.777 217.006 355.237 216.546 355.237 215.977C355.237 215.409 354.777 214.948 354.21 214.948C353.643 214.948 353.183 215.409 353.183 215.977C353.183 216.546 353.643 217.006 354.21 217.006Z" fill="white"/>
<path d="M295.482 124.57C296.049 124.57 296.509 124.109 296.509 123.541C296.509 122.972 296.049 122.512 295.482 122.512C294.915 122.512 294.455 122.972 294.455 123.541C294.455 124.109 294.915 124.57 295.482 124.57Z" fill="white"/>
<path d="M378.71 169.705C379.277 169.705 379.737 169.244 379.737 168.676C379.737 168.107 379.277 167.646 378.71 167.646C378.143 167.646 377.683 168.107 377.683 168.676C377.683 169.244 378.143 169.705 378.71 169.705Z" fill="white"/>
<path d="M105.606 91.0795C106.621 91.0795 107.444 90.255 107.444 89.238C107.444 88.221 106.621 87.3965 105.606 87.3965C104.591 87.3965 103.769 88.221 103.769 89.238C103.769 90.255 104.591 91.0795 105.606 91.0795Z" fill="white"/>
<path d="M55.1038 213.837H53.4681V212.197H52.8015V213.837H51.1658V214.505H52.8015V216.14H53.4681V214.505H55.1038V213.837Z" fill="white"/>
<path d="M96.1773 213.114H94.5415V211.475H93.875V213.114H92.2393V213.782H93.875V215.418H94.5415V213.782H96.1773V213.114Z" fill="white"/>
<path d="M154.905 246.334H153.27V244.694H152.603V246.334H150.967V247.002H152.603V248.637H153.27V247.002H154.905V246.334Z" fill="white"/>
<path d="M236.703 47.1976H235.957V46.4502H235.655V47.1976H234.909V47.5009H235.655V48.2484H235.957V47.5009H236.703V47.1976Z" fill="white"/>
<path d="M342.99 115.803H342.245V115.056H341.942V115.803H341.196V116.106H341.942V116.854H342.245V116.106H342.99V115.803Z" fill="white"/>
<path d="M280.299 160.577H279.553V159.829H279.25V160.577H278.505V160.88H279.25V161.627H279.553V160.88H280.299V160.577Z" fill="white"/>
<path d="M25.2098 188.742H24.464V187.994H24.1613V188.742H23.4155V189.045H24.1613V189.792H24.464V189.045H25.2098V188.742Z" fill="white"/>
<path d="M55.8348 250.125H55.089V249.378H54.7863V250.125H54.0405V250.429H54.7863V251.176H55.089V250.429H55.8348V250.125Z" fill="white"/>
<path d="M152.034 56.224H151.288V55.4766H150.985V56.224H150.24V56.5273H150.985V57.2747H151.288V56.5273H152.034V56.224Z" fill="white"/>
<path d="M106.637 164.188H105.891V163.44H105.588V164.188H104.842V164.491H105.588V165.239H105.891V164.491H106.637V164.188Z" fill="white"/>
<path d="M116.365 133.135H115.619V132.388H115.316V133.135H114.57V133.438H115.316V134.186H115.619V133.438H116.365V133.135Z" fill="white"/>
<g opacity="0.7">
<path opacity="0.7" d="M269.555 204.795C271.847 204.795 273.705 202.933 273.705 200.635C273.705 198.338 271.847 196.476 269.555 196.476C267.263 196.476 265.404 198.338 265.404 200.635C265.404 202.933 267.263 204.795 269.555 204.795Z" fill="url(#paint1_linear)"/>
</g>
<path opacity="0.2" d="M269.555 204.488C271.678 204.488 273.399 202.763 273.399 200.635C273.399 198.507 271.678 196.782 269.555 196.782C267.432 196.782 265.71 198.507 265.71 200.635C265.71 202.763 267.432 204.488 269.555 204.488Z" fill="black"/>
<path opacity="0.2" d="M279.906 232.064C282.28 232.064 284.205 230.135 284.205 227.756C284.205 225.377 282.28 223.448 279.906 223.448C277.532 223.448 275.608 225.377 275.608 227.756C275.608 230.135 277.532 232.064 279.906 232.064Z" fill="black"/>
<g opacity="0.7">
<path opacity="0.7" d="M241.387 110.863C241.417 101.813 239.253 92.8914 235.082 84.8649C233.104 81.0952 231.299 78.7554 229.908 77.3147C229.377 76.7522 228.683 76.371 227.924 76.2246C227.165 76.0782 226.38 76.174 225.678 76.4986C225.117 76.698 224.61 77.0256 224.197 77.4555C222.32 79.4053 220.623 81.9835 219.153 84.7241C214.768 92.9419 212.493 102.125 212.535 111.444V117.034H208.957V52.0353C208.957 38.4153 205.916 24.9795 199.95 13.0638C197.125 7.41645 194.545 3.90674 192.567 1.75108C192.087 1.20248 191.495 0.762924 190.832 0.46179C190.169 0.160657 189.449 0.00488281 188.721 0.00488281C187.993 0.00488281 187.273 0.160657 186.61 0.46179C185.946 0.762924 185.355 1.20248 184.875 1.75108C182.194 4.67223 179.773 8.5358 177.669 12.6413C171.403 24.817 168.222 38.6392 168.222 52.6564V117.008H165.131V111.148C165.17 101.835 162.895 92.6582 158.512 84.446C157.031 81.7054 155.334 79.1273 153.468 77.1775C152.926 76.6004 152.213 76.2127 151.435 76.071C150.657 75.9294 149.854 76.0412 149.144 76.3903L149.274 76.4589C148.822 76.6607 148.412 76.9475 148.067 77.3038C146.68 78.7482 144.875 81.0844 142.897 84.8541C138.726 92.8806 136.562 101.802 136.592 110.852V207.983H147.631L146.413 215.966V239.845H155.442V215.966L154.235 207.979H165.116V119.514H168.208V207.597H177.024L175.759 215.966V239.845H184.788V215.966L183.524 207.586H195.413L194.142 215.966V239.845H203.171V215.966L201.906 207.586H208.946V119.525H212.524V208.124H215.424V207.99H225.015L223.812 215.966V239.845H232.841V215.966L231.634 207.979H241.387V110.863Z" fill="url(#paint2_linear)"/>
</g>
<path d="M157.233 211.323H148.683L150.211 200.92H155.705L157.233 211.323Z" fill="#535461"/>
<g opacity="0.1">
<path opacity="0.1" d="M149.786 205.051H156.13L155.705 202.145H150.211L149.786 205.051Z" fill="black"/>
</g>
<path d="M230.499 211.323H221.953L223.477 200.92H228.975L230.499 211.323Z" fill="#535461"/>
<g opacity="0.1">
<path opacity="0.1" d="M223.052 205.051H229.4L228.975 202.145H223.477L223.052 205.051Z" fill="black"/>
</g>
<path d="M185.012 211.323H176.465L177.989 200.92H183.487L185.012 211.323Z" fill="#535461"/>
<g opacity="0.1">
<path opacity="0.1" d="M177.564 205.051H183.913L183.487 202.145H177.989L177.564 205.051Z" fill="black"/>
</g>
<path d="M202.414 211.323H193.868L195.392 200.92H200.886L202.414 211.323Z" fill="#535461"/>
<g opacity="0.1">
<path opacity="0.1" d="M194.967 205.051H201.315L200.886 202.145H195.392L194.967 205.051Z" fill="black"/>
</g>
<path d="M218.289 114.95H157.233V117.398H218.289V114.95Z" fill="#535461"/>
<path d="M227.725 76.2855C227.402 75.9284 227.008 75.643 226.569 75.4476C226.13 75.2523 225.654 75.1514 225.174 75.1514C224.693 75.1514 224.218 75.2523 223.778 75.4476C223.339 75.643 222.945 75.9284 222.623 76.2855C220.847 78.1848 219.24 80.6943 217.838 83.3627C213.681 91.3927 211.531 100.314 211.573 109.361V203.545H238.595V108.963C238.629 100.167 236.583 91.4882 232.625 83.6371C230.748 79.9685 229.04 77.6721 227.725 76.2855Z" fill="#E0E0E0"/>
<path d="M150.236 76.2855C150.558 75.9284 150.952 75.643 151.391 75.4476C151.831 75.2523 152.306 75.1514 152.787 75.1514C153.267 75.1514 153.743 75.2523 154.182 75.4476C154.621 75.643 155.015 75.9284 155.338 76.2855C157.117 78.1848 158.721 80.6943 160.126 83.3627C164.282 91.3933 166.432 100.314 166.391 109.361V203.545H139.369V108.963C139.335 100.167 141.381 91.4882 145.339 83.6371C147.213 79.9685 148.921 77.6721 150.236 76.2855Z" fill="#E0E0E0"/>
<path d="M139.524 110.972L145.938 111.004V118.926H139.524V110.972Z" fill="#535461"/>
<path d="M159.978 110.972L166.392 111.004V118.926H159.978V110.972Z" fill="#535461"/>
<path d="M211.573 110.972L217.982 111.004V118.926H211.573V110.972Z" fill="#535461"/>
<path d="M232.027 110.972L238.436 111.004V118.926H232.027V110.972Z" fill="#535461"/>
<g opacity="0.1">
<path opacity="0.1" d="M160.126 83.2398C158.721 80.5714 157.118 78.0619 155.338 76.1626C154.835 75.6041 154.164 75.2264 153.426 75.0874C152.689 74.9485 151.926 75.056 151.256 75.3935C151.642 75.5866 151.991 75.847 152.286 76.1626C154.062 78.0619 155.669 80.5714 157.071 83.2398C161.228 91.2697 163.379 100.191 163.336 109.238V203.415H166.392V109.241C166.433 100.194 164.283 91.2714 160.126 83.2398Z" fill="black"/>
</g>
<g opacity="0.1">
<path opacity="0.1" d="M220.281 83.5002C221.682 80.8318 223.289 78.3223 225.065 76.423C225.398 76.0633 225.8 75.7757 226.247 75.5781C225.587 75.2884 224.852 75.2142 224.148 75.3658C223.443 75.5174 222.804 75.8873 222.32 76.423C220.54 78.3223 218.933 80.8318 217.532 83.5002C213.376 91.5308 211.226 100.452 211.266 109.498V203.69H214.015V109.505C213.972 100.456 216.122 91.5324 220.281 83.5002Z" fill="black"/>
</g>
<path d="M153.075 234.577H152.841C151.738 234.577 150.681 234.138 149.901 233.356C149.121 232.575 148.683 231.515 148.683 230.41V211.323H157.233V230.41C157.233 231.515 156.795 232.575 156.015 233.356C155.235 234.138 154.178 234.577 153.075 234.577Z" fill="url(#paint3_linear)"/>
<path d="M180.857 234.577H180.62C179.517 234.576 178.461 234.137 177.682 233.355C176.903 232.574 176.465 231.515 176.465 230.41V211.323H185.012V230.41C185.012 231.515 184.574 232.574 183.795 233.355C183.016 234.137 181.959 234.576 180.857 234.577Z" fill="url(#paint4_linear)"/>
<path d="M198.256 234.577H198.015C196.914 234.574 195.859 234.134 195.082 233.353C194.304 232.571 193.868 231.513 193.868 230.41V211.323H202.414V230.41C202.414 231.515 201.976 232.575 201.196 233.356C200.416 234.138 199.359 234.577 198.256 234.577Z" fill="url(#paint5_linear)"/>
<path d="M226.345 234.577H226.118C225.571 234.578 225.03 234.471 224.524 234.262C224.019 234.053 223.56 233.746 223.173 233.359C222.786 232.972 222.479 232.512 222.27 232.006C222.06 231.5 221.953 230.958 221.953 230.41V211.323H230.499V230.41C230.499 231.515 230.061 232.574 229.282 233.355C228.503 234.137 227.447 234.576 226.345 234.577Z" fill="url(#paint6_linear)"/>
<path d="M192.372 2.43696C191.926 1.90465 191.369 1.47668 190.74 1.18306C190.111 0.889449 189.425 0.737305 188.732 0.737305C188.038 0.737305 187.352 0.889449 186.723 1.18306C186.095 1.47668 185.537 1.90465 185.091 2.43696C182.569 5.28229 180.263 9.04115 178.245 13.0419C172.315 24.8999 169.303 38.361 169.303 52.0099V203.162H207.854V51.4033C207.854 38.1407 204.972 25.0443 199.337 13.4536C196.689 7.95429 194.25 4.53485 192.372 2.43696Z" fill="#EEEEEE"/>
<path d="M194.426 19.2275H182.234C180.045 19.2275 178.271 21.0058 178.271 23.1994V24.4957C178.271 26.6893 180.045 28.4676 182.234 28.4676H194.426C196.615 28.4676 198.389 26.6893 198.389 24.4957V23.1994C198.389 21.0058 196.615 19.2275 194.426 19.2275Z" fill="#535461"/>
<g opacity="0.1">
<path opacity="0.1" d="M207.671 57.1777H169.512V58.6618H207.671V57.1777Z" fill="black"/>
</g>
<path d="M274.199 112.416C273.198 111.099 271.947 109.994 270.517 109.166C268.874 108.217 267.035 107.659 265.142 107.535C263.25 107.411 261.354 107.726 259.602 108.454C257.85 109.181 256.288 110.303 255.038 111.733C253.787 113.162 252.882 114.86 252.391 116.696C251.9 118.532 251.837 120.457 252.206 122.321C252.576 124.185 253.369 125.939 254.523 127.448C255.677 128.956 257.162 130.178 258.862 131.02C260.563 131.861 262.434 132.299 264.331 132.301C264.594 132.301 264.857 132.301 265.112 132.272C267.341 132.131 269.491 131.387 271.332 130.121C273.174 128.854 274.638 127.111 275.57 125.076C276.503 123.042 276.868 120.793 276.627 118.568C276.386 116.342 275.548 114.224 274.203 112.438L274.199 112.416Z" fill="url(#paint7_linear)"/>
<path opacity="0.2" d="M276.019 119.883C276.018 122.862 274.885 125.729 272.851 127.901C270.816 130.073 268.032 131.386 265.066 131.574C264.824 131.574 264.576 131.6 264.327 131.6C262.532 131.601 260.762 131.188 259.152 130.393C257.542 129.598 256.136 128.443 255.043 127.017C253.951 125.59 253.2 123.931 252.85 122.167C252.499 120.403 252.559 118.582 253.023 116.845C253.488 115.108 254.345 113.501 255.529 112.149C256.712 110.797 258.19 109.736 259.848 109.049C261.507 108.361 263.3 108.065 265.091 108.184C266.882 108.302 268.621 108.832 270.175 109.733C271.529 110.52 272.712 111.571 273.655 112.823C275.191 114.854 276.021 117.334 276.019 119.883Z" fill="black"/>
<path opacity="0.1" d="M261.448 112.448C260.844 112.709 260.261 113.017 259.705 113.369C259.333 113.572 259.014 113.859 258.771 114.207C258.651 114.382 258.585 114.589 258.581 114.801C258.577 115.014 258.636 115.223 258.75 115.402C259.034 115.792 259.582 115.85 260.065 115.879C260.572 115.943 261.087 115.892 261.571 115.727C261.898 115.565 262.195 115.349 262.45 115.088L263.455 114.174C263.816 113.857 264.176 113.42 264.035 112.972C263.952 112.812 263.831 112.675 263.681 112.575C263.532 112.474 263.36 112.412 263.181 112.394C262.315 112.225 261.416 112.383 260.659 112.838" fill="black"/>
<g opacity="0.1">
<path opacity="0.1" d="M257.251 125.126C257.591 125.126 257.867 124.849 257.867 124.508C257.867 124.167 257.591 123.891 257.251 123.891C256.911 123.891 256.635 124.167 256.635 124.508C256.635 124.849 256.911 125.126 257.251 125.126Z" fill="black"/>
</g>
<g opacity="0.1">
<path opacity="0.1" d="M269.76 122.862C271.006 122.862 272.016 121.85 272.016 120.601C272.016 119.353 271.006 118.341 269.76 118.341C268.515 118.341 267.505 119.353 267.505 120.601C267.505 121.85 268.515 122.862 269.76 122.862Z" fill="black"/>
</g>
<g opacity="0.1">
<path opacity="0.1" d="M273.677 112.823C273.67 113.414 273.494 113.991 273.17 114.484C272.846 114.978 272.387 115.368 271.848 115.608C271.309 115.847 270.712 115.927 270.129 115.836C269.547 115.746 269.002 115.49 268.56 115.098C268.119 114.706 267.799 114.195 267.639 113.627C267.478 113.058 267.485 112.455 267.657 111.89C267.829 111.324 268.159 110.821 268.609 110.438C269.058 110.056 269.608 109.811 270.193 109.732C271.548 110.519 272.733 111.57 273.677 112.823Z" fill="black"/>
</g>
<g opacity="0.1">
<path opacity="0.1" d="M273.886 126.628C272.88 128.062 271.565 129.252 270.038 130.108C268.512 130.965 266.812 131.466 265.066 131.574C265.066 131.412 265.044 131.249 265.044 131.083C265.045 130.055 265.331 129.047 265.87 128.172C266.409 127.297 267.179 126.589 268.096 126.127C269.013 125.665 270.039 125.467 271.062 125.556C272.084 125.644 273.062 126.015 273.886 126.628Z" fill="black"/>
</g>
<path d="M114.487 179.305C113.79 178.381 112.915 177.605 111.915 177.023C110.767 176.348 109.479 175.948 108.151 175.854C106.823 175.759 105.492 175.973 104.26 176.479C103.028 176.985 101.93 177.769 101.05 178.77C100.17 179.772 99.5329 180.963 99.1878 182.251C98.8427 183.539 98.799 184.89 99.0602 186.198C99.3214 187.506 99.8804 188.736 100.694 189.793C101.507 190.849 102.552 191.702 103.749 192.287C104.945 192.872 106.26 193.172 107.591 193.164C107.775 193.164 107.952 193.164 108.139 193.146C109.691 193.041 111.187 192.518 112.468 191.633C113.748 190.748 114.767 189.533 115.416 188.115C116.066 186.698 116.321 185.132 116.157 183.581C115.992 182.031 115.413 180.554 114.48 179.305H114.487Z" fill="url(#paint8_linear)"/>
<path opacity="0.2" d="M115.756 184.516C115.755 186.595 114.965 188.595 113.545 190.11C112.126 191.625 110.183 192.542 108.114 192.673C107.944 192.673 107.753 192.673 107.598 192.673C106.347 192.673 105.113 192.384 103.991 191.829C102.869 191.275 101.89 190.469 101.128 189.474C100.367 188.479 99.844 187.322 99.6 186.093C99.356 184.863 99.3975 183.593 99.7213 182.382C100.045 181.171 100.642 180.051 101.467 179.109C102.292 178.166 103.322 177.426 104.478 176.946C105.633 176.466 106.884 176.259 108.132 176.341C109.381 176.422 110.593 176.791 111.677 177.417C112.623 177.969 113.449 178.706 114.105 179.584C115.18 181.002 115.759 182.735 115.756 184.516Z" fill="black"/>
<path opacity="0.1" d="M105.588 179.331C105.167 179.511 104.761 179.725 104.374 179.97C104.116 180.114 103.893 180.314 103.722 180.555C103.642 180.679 103.599 180.824 103.599 180.972C103.599 181.12 103.642 181.265 103.722 181.389C103.841 181.508 103.985 181.599 104.143 181.656C104.301 181.713 104.469 181.736 104.637 181.721C104.991 181.767 105.351 181.731 105.689 181.617C105.918 181.503 106.126 181.352 106.305 181.169L107.004 180.534C107.249 180.31 107.516 180.006 107.408 179.696C107.352 179.582 107.269 179.485 107.164 179.414C107.06 179.343 106.939 179.301 106.813 179.291C106.21 179.173 105.585 179.284 105.058 179.602" fill="black"/>
<g opacity="0.1">
<path opacity="0.1" d="M102.659 188.171C102.896 188.171 103.088 187.979 103.088 187.741C103.088 187.504 102.896 187.312 102.659 187.312C102.422 187.312 102.23 187.504 102.23 187.741C102.23 187.979 102.422 188.171 102.659 188.171Z" fill="black"/>
</g>
<g opacity="0.1">
<path opacity="0.1" d="M111.389 186.596C112.259 186.596 112.963 185.89 112.963 185.018C112.963 184.147 112.259 183.44 111.389 183.44C110.519 183.44 109.814 184.147 109.814 185.018C109.814 185.89 110.519 186.596 111.389 186.596Z" fill="black"/>
</g>
<g opacity="0.1">
<path opacity="0.1" d="M114.109 179.591C114.106 180.007 113.983 180.414 113.755 180.762C113.528 181.11 113.205 181.385 112.825 181.554C112.446 181.723 112.026 181.779 111.615 181.715C111.205 181.651 110.822 181.47 110.511 181.194C110.201 180.917 109.976 180.557 109.865 180.156C109.754 179.755 109.76 179.33 109.883 178.933C110.006 178.535 110.24 178.182 110.558 177.914C110.877 177.647 111.265 177.477 111.677 177.425C112.625 177.976 113.452 178.713 114.109 179.591Z" fill="black"/>
</g>
<g opacity="0.1">
<path opacity="0.1" d="M114.268 189.221C113.566 190.222 112.648 191.053 111.583 191.65C110.518 192.248 109.332 192.597 108.114 192.673C108.114 192.561 108.114 192.446 108.114 192.312C108.114 191.595 108.314 190.892 108.69 190.281C109.066 189.671 109.603 189.177 110.243 188.855C110.882 188.532 111.599 188.394 112.312 188.456C113.025 188.517 113.707 188.776 114.282 189.203L114.268 189.221Z" fill="black"/>
</g>
<path d="M344.046 155.291C344.412 155.291 344.709 154.993 344.709 154.626C344.709 154.259 344.412 153.962 344.046 153.962C343.68 153.962 343.383 154.259 343.383 154.626C343.383 154.993 343.68 155.291 344.046 155.291Z" fill="white"/>
</g>
<defs>
<linearGradient id="paint0_linear" x1="99.9677" y1="251.714" x2="99.9677" y2="241.752" gradientUnits="userSpaceOnUse">
<stop stop-color="#808080" stop-opacity="0.25"/>
<stop offset="0.54" stop-color="#808080" stop-opacity="0.12"/>
<stop offset="1" stop-color="#808080" stop-opacity="0.1"/>
</linearGradient>
<linearGradient id="paint1_linear" x1="6475.93" y1="4914.86" x2="6475.93" y2="4723.27" gradientUnits="userSpaceOnUse">
<stop stop-color="#808080" stop-opacity="0.25"/>
<stop offset="0.54" stop-color="#808080" stop-opacity="0.12"/>
<stop offset="1" stop-color="#808080" stop-opacity="0.1"/>
</linearGradient>
<linearGradient id="paint2_linear" x1="58500.7" y1="169605" x2="58500.7" y2="10286.7" gradientUnits="userSpaceOnUse">
<stop stop-color="#808080" stop-opacity="0.25"/>
<stop offset="0.54" stop-color="#808080" stop-opacity="0.12"/>
<stop offset="1" stop-color="#808080" stop-opacity="0.1"/>
</linearGradient>
<linearGradient id="paint3_linear" x1="152.96" y1="211.323" x2="152.96" y2="234.577" gradientUnits="userSpaceOnUse">
<stop stop-color="#E0E0E0"/>
<stop offset="0.31" stop-color="#FCCC63"/>
<stop offset="0.77" stop-color="#F55F44"/>
</linearGradient>
<linearGradient id="paint4_linear" x1="4740.57" y1="14817.9" x2="4740.57" y2="16315.4" gradientUnits="userSpaceOnUse">
<stop stop-color="#E0E0E0"/>
<stop offset="0.31" stop-color="#FCCC63"/>
<stop offset="0.77" stop-color="#F55F44"/>
</linearGradient>
<linearGradient id="paint5_linear" x1="5170.76" y1="14817.9" x2="5170.76" y2="16315.4" gradientUnits="userSpaceOnUse">
<stop stop-color="#E0E0E0"/>
<stop offset="0.31" stop-color="#FCCC63"/>
<stop offset="0.77" stop-color="#F55F44"/>
</linearGradient>
<linearGradient id="paint6_linear" x1="5865.01" y1="14817.9" x2="5865.01" y2="16315.4" gradientUnits="userSpaceOnUse">
<stop stop-color="#E0E0E0"/>
<stop offset="0.31" stop-color="#FCCC63"/>
<stop offset="0.77" stop-color="#F55F44"/>
</linearGradient>
<linearGradient id="paint7_linear" x1="19196.2" y1="10253.1" x2="19196.2" y2="8550.88" gradientUnits="userSpaceOnUse">
<stop stop-color="#808080" stop-opacity="0.25"/>
<stop offset="0.54" stop-color="#808080" stop-opacity="0.12"/>
<stop offset="1" stop-color="#808080" stop-opacity="0.1"/>
</linearGradient>
<linearGradient id="paint8_linear" x1="5830.42" y1="10191.1" x2="5830.42" y2="9360.7" gradientUnits="userSpaceOnUse">
<stop stop-color="#808080" stop-opacity="0.25"/>
<stop offset="0.54" stop-color="#808080" stop-opacity="0.12"/>
<stop offset="1" stop-color="#808080" stop-opacity="0.1"/>
</linearGradient>
<clipPath id="clip0">
<rect width="409" height="294" fill="white"/>
</clipPath>
</defs>
</svg>
