<svg width="40" height="40" viewBox="0 0 40 40" fill="none" xmlns="http://www.w3.org/2000/svg">
<path d="M34.1421 5.85797C30.3646 2.08031 25.3421 0 20 0C14.6579 0 9.63539 2.08031 5.85789 5.85797C2.08031 9.63539 0 14.6579 0 20C0 25.3421 2.08031 30.3646 5.85789 34.1421C9.63539 37.9197 14.6579 40 20 40C25.3421 40 30.3646 37.9197 34.1421 34.142C37.9197 30.3646 40 25.3421 40 20C40 14.6579 37.9197 9.63539 34.1421 5.85797ZM20 38.7369C9.66844 38.7369 1.26312 30.3316 1.26312 20C1.26312 9.66844 9.66844 1.26312 20 1.26312C30.3316 1.26312 38.7369 9.66844 38.7369 20C38.7369 30.3316 30.3316 38.7369 20 38.7369Z" fill="#1E266D"/>
<path d="M35.0485 22.744C35.0425 22.3976 34.7592 22.1195 34.4126 22.1195C34.0568 22.1196 33.7708 22.4121 33.7776 22.768C33.8153 24.7655 33.741 26.6569 33.5612 28.2563C30.7147 30.4637 26.7276 31.7713 23.9596 32.1194L22.5543 28.3566C24.5015 28.0517 27.4667 27.1982 29.8723 24.8289C30.0789 24.6254 30.1203 24.3075 29.9729 24.0578C29.8256 23.8081 29.5271 23.6912 29.2491 23.7735C28.965 23.858 28.5867 24.0058 28.1862 24.1623C27.734 24.3389 27.2214 24.5391 26.9329 24.6076C24.6336 25.1544 22.3031 25.4315 20.0051 25.4315C20.0036 25.4315 19.9999 25.4315 19.9999 25.4315H19.9949C17.6971 25.4315 15.3663 25.1544 13.067 24.6076C12.7785 24.5391 12.266 24.3389 11.8138 24.1623C11.4285 24.0117 11.0637 23.8692 10.7836 23.7834C10.5231 23.7036 10.2314 23.78 10.0675 23.9976C9.87394 24.2544 9.90417 24.6087 10.1278 24.829C12.5418 27.2066 15.5022 28.0623 17.4453 28.3676L16.041 32.1194C13.2732 31.7712 9.28558 30.4635 6.43909 28.2562C5.84401 22.963 6.403 14.4725 8.35862 9.51686C10.151 8.7028 12.7841 8.47131 15.2571 8.3728L11.3133 10.2015C11.0139 10.3403 10.8718 10.6864 10.9873 10.9957C11.1029 11.3049 11.4371 11.473 11.7542 11.3813C14.4912 10.5907 17.2655 10.1897 20 10.1897C22.7346 10.1897 25.5089 10.5907 28.2459 11.3813C28.5627 11.4726 28.8971 11.3048 29.0128 10.9957C29.1284 10.6865 28.9864 10.3405 28.6867 10.2016L24.743 8.37288C27.216 8.47139 29.8491 8.70288 31.6414 9.51694C32.711 12.2274 33.3628 15.9951 33.6364 19.719C33.6608 20.0505 33.9376 20.3063 34.27 20.3063H34.2723C34.6421 20.3063 34.9338 19.9919 34.9067 19.6231C34.6177 15.6785 33.9055 11.6899 32.7191 8.81202C32.661 8.67116 32.5539 8.55592 32.4175 8.4878C29.9066 7.23256 25.9771 7.13163 22.8196 7.05038C22.4332 7.04045 22.0597 7.03092 21.7042 7.01944C21.4046 7.01069 21.1389 7.21272 21.0695 7.50483C21.0001 7.79686 21.146 8.09741 21.4183 8.22366L23.3407 9.11514C22.2244 8.98959 21.1092 8.92639 19.9999 8.92639C18.8906 8.92639 17.7753 8.98952 16.6589 9.11514L18.5814 8.22366C18.8537 8.09741 18.9996 7.79686 18.9302 7.50483C18.8609 7.21272 18.5959 7.011 18.2954 7.01944C17.94 7.03092 17.5666 7.04038 17.1801 7.05038C14.0226 7.13155 10.093 7.23249 7.58214 8.4878C7.44581 8.55592 7.3387 8.67116 7.28058 8.81202C5.11331 14.07 4.52847 23.0357 5.21519 28.666C5.23503 28.8292 5.31776 28.9781 5.44573 29.0812C8.68987 31.6965 13.2871 33.1494 16.404 33.4291C16.4231 33.4309 16.442 33.4316 16.4608 33.4316C16.7221 33.4316 16.9591 33.2698 17.052 33.0215L18.9072 28.0649C18.9982 27.8219 18.9329 27.5413 18.7255 27.3622C18.6239 27.2746 18.4942 27.2269 18.3607 27.2133C17.3871 27.1138 15.9134 26.8522 14.3607 26.1719C16.2377 26.5192 18.1261 26.6948 19.995 26.6948H20C20 26.6948 20.0001 26.6948 20.0001 26.6948H20.0052C21.8655 26.6948 23.7456 26.5208 25.614 26.1765C24.0732 26.8443 22.61 27.103 21.6403 27.2021C21.5068 27.2158 21.377 27.2633 21.2753 27.3506C21.0674 27.5293 21.0017 27.8101 21.0926 28.0533L22.9478 33.0211C23.0407 33.2697 23.2778 33.4317 23.5392 33.4317C23.558 33.4317 23.577 33.4308 23.596 33.4292C26.7129 33.1494 31.3102 31.6965 34.5542 29.0813C34.6822 28.9782 34.7649 28.8293 34.7848 28.6661C34.9955 26.9383 35.0864 24.8964 35.0485 22.744Z" fill="#1E266D"/>
<path d="M14.1052 14.3158C11.8997 14.3158 10.1052 16.1102 10.1052 18.3158C10.1052 20.5213 11.8997 22.3158 14.1052 22.3158C16.3108 22.3158 18.1052 20.5213 18.1052 18.3158C18.1052 16.1102 16.3108 14.3158 14.1052 14.3158ZM14.1052 21.0527C12.5962 21.0527 11.3683 19.8249 11.3683 18.3158C11.3683 16.8067 12.5962 15.5789 14.1052 15.5789C15.6143 15.5789 16.8421 16.8067 16.8421 18.3158C16.8421 19.8249 15.6143 21.0527 14.1052 21.0527Z" fill="#1E266D"/>
<path d="M25.8948 14.3158C23.6892 14.3158 21.8948 16.1102 21.8948 18.3158C21.8948 20.5213 23.6892 22.3158 25.8948 22.3158C28.1003 22.3158 29.8948 20.5213 29.8948 18.3158C29.8948 16.1102 28.1003 14.3158 25.8948 14.3158ZM25.8948 21.0527C24.3857 21.0527 23.1579 19.8249 23.1579 18.3158C23.1579 16.8067 24.3857 15.5789 25.8948 15.5789C27.4038 15.5789 28.6316 16.8067 28.6316 18.3158C28.6316 19.8249 27.4038 21.0527 25.8948 21.0527Z" fill="#1E266D"/>
</svg>
