<svg width="40" height="40" viewBox="0 0 40 40" fill="none" xmlns="http://www.w3.org/2000/svg">
<path d="M17.0447 17.3716C16.1141 17.3716 15.3794 18.1879 15.3794 19.1838C15.3794 20.1797 16.1304 20.9961 17.0447 20.9961C17.9753 20.9961 18.71 20.1797 18.71 19.1838C18.7263 18.1879 17.9753 17.3716 17.0447 17.3716ZM23.0039 17.3716C22.0733 17.3716 21.3386 18.1879 21.3386 19.1838C21.3386 20.1797 22.0896 20.9961 23.0039 20.9961C23.9345 20.9961 24.6692 20.1797 24.6692 19.1838C24.6692 18.1879 23.9345 17.3716 23.0039 17.3716Z" fill="white"/>
<path d="M30.9388 3.67346H9.06129C7.2164 3.67346 5.71436 5.1755 5.71436 7.03673V29.1102C5.71436 30.9714 7.2164 32.4735 9.06129 32.4735H27.5756L26.7103 29.4531L28.8001 31.3959L30.7756 33.2245L34.2858 36.3265V7.03673C34.2858 5.1755 32.7837 3.67346 30.9388 3.67346ZM24.6368 24.9959C24.6368 24.9959 24.049 24.2939 23.5593 23.6735C25.698 23.0694 26.5144 21.7306 26.5144 21.7306C25.845 22.1714 25.2082 22.4816 24.6368 22.6939C23.8205 23.0367 23.0368 23.2653 22.2695 23.3959C20.7021 23.6898 19.2654 23.6082 18.0409 23.3796C17.1103 23.2 16.3103 22.9388 15.6409 22.6775C15.2654 22.5306 14.8572 22.351 14.449 22.1224C14.4001 22.0898 14.3511 22.0735 14.3021 22.0408C14.2695 22.0245 14.2531 22.0082 14.2368 21.9918C13.9429 21.8286 13.7797 21.7143 13.7797 21.7143C13.7797 21.7143 14.5633 23.0204 16.6368 23.6408C16.147 24.2612 15.5429 24.9959 15.5429 24.9959C11.9348 24.8816 10.5633 22.5143 10.5633 22.5143C10.5633 17.2571 12.9144 12.9959 12.9144 12.9959C15.2654 11.2326 17.5021 11.2816 17.5021 11.2816L17.6654 11.4775C14.7266 12.3265 13.3715 13.6163 13.3715 13.6163C13.3715 13.6163 13.7307 13.4204 14.3348 13.1428C16.0817 12.3755 17.4695 12.1633 18.0409 12.1143C18.1388 12.098 18.2205 12.0816 18.3184 12.0816C19.3144 11.951 20.4409 11.9184 21.6164 12.049C23.1674 12.2286 24.8327 12.6857 26.5307 13.6163C26.5307 13.6163 25.2409 12.3918 22.4654 11.5428L22.6939 11.2816C22.6939 11.2816 24.9307 11.2326 27.2817 12.9959C27.2817 12.9959 29.6327 17.2571 29.6327 22.5143C29.6327 22.5143 28.245 24.8816 24.6368 24.9959Z" fill="white"/>
</svg>
