<?xml version="1.0" encoding="UTF-8" standalone="no"?>
<!-- Created with Inkscape (http://www.inkscape.org/) -->

<svg
   xmlns:dc="http://purl.org/dc/elements/1.1/"
   xmlns:cc="http://creativecommons.org/ns#"
   xmlns:rdf="http://www.w3.org/1999/02/22-rdf-syntax-ns#"
   xmlns:svg="http://www.w3.org/2000/svg"
   xmlns="http://www.w3.org/2000/svg"
   xmlns:xlink="http://www.w3.org/1999/xlink"
   xmlns:sodipodi="http://sodipodi.sourceforge.net/DTD/sodipodi-0.dtd"
   xmlns:inkscape="http://www.inkscape.org/namespaces/inkscape"
   width="56.893368mm"
   height="19.005339mm"
   viewBox="0 0 56.893368 19.005339"
   version="1.1"
   id="svg4561"
   inkscape:version="0.92.3 (2405546, 2018-03-11)"
   sodipodi:docname="space up graphics 2 horizontal.svg">
  <defs
     id="defs4555">
    <linearGradient
       inkscape:collect="always"
       xlink:href="#linearGradient1288"
       id="linearGradient1126"
       gradientUnits="userSpaceOnUse"
       gradientTransform="matrix(0.04794261,0,0,0.04794261,-208.69984,33.585066)"
       x1="-2986.52"
       y1="-193.76094"
       x2="-2977.239"
       y2="-179.97536" />
    <linearGradient
       inkscape:collect="always"
       id="linearGradient1288">
      <stop
         style="stop-color:#ffffff;stop-opacity:1"
         offset="0"
         id="stop1284" />
      <stop
         style="stop-color:#e6e6e6;stop-opacity:1"
         offset="1"
         id="stop1286" />
    </linearGradient>
    <linearGradient
       inkscape:collect="always"
       xlink:href="#linearGradient3700"
       id="linearGradient1128"
       gradientUnits="userSpaceOnUse"
       x1="-1619.4395"
       y1="-26.760092"
       x2="-787.73724"
       y2="670.70642" />
    <linearGradient
       inkscape:collect="always"
       id="linearGradient3700">
      <stop
         style="stop-color:#d05300;stop-opacity:1;"
         offset="0"
         id="stop3696" />
      <stop
         style="stop-color:#d05300;stop-opacity:0;"
         offset="1"
         id="stop3698" />
    </linearGradient>
    <clipPath
       clipPathUnits="userSpaceOnUse"
       id="clipPath3688-9">
      <circle
         style="opacity:1;fill:#ff6600;fill-opacity:1;stroke-width:2.46786404"
         id="circle3690-8"
         cx="-1450.7196"
         cy="150.93735"
         r="872.52167" />
    </clipPath>
  </defs>
  <sodipodi:namedview
     id="base"
     pagecolor="#ffffff"
     bordercolor="#666666"
     borderopacity="1.0"
     inkscape:pageopacity="0.0"
     inkscape:pageshadow="2"
     inkscape:zoom="0.35"
     inkscape:cx="706.08646"
     inkscape:cy="-75.512969"
     inkscape:document-units="mm"
     inkscape:current-layer="layer1"
     showgrid="false"
     inkscape:window-width="1920"
     inkscape:window-height="1001"
     inkscape:window-x="-9"
     inkscape:window-y="-9"
     inkscape:window-maximized="1" />
  <metadata
     id="metadata4558">
    <rdf:RDF>
      <cc:Work
         rdf:about="">
        <dc:format>image/svg+xml</dc:format>
        <dc:type
           rdf:resource="http://purl.org/dc/dcmitype/StillImage" />
        <dc:title></dc:title>
      </cc:Work>
    </rdf:RDF>
  </metadata>
  <g
     inkscape:label="Layer 1"
     inkscape:groupmode="layer"
     id="layer1"
     transform="translate(205.33954,-109.84852)">
    <g
       id="g1893"
       transform="translate(163.41075,-49.420872)">
      <path
         sodipodi:nodetypes="cc"
         inkscape:connector-curvature="0"
         id="path1022"
         d="m -351.09574,162.40664 c 3.53507,0.10278 2.56764,6.65334 6.34267,6.72736"
         style="fill:none;stroke:#999999;stroke-width:0.2;stroke-linecap:butt;stroke-linejoin:miter;stroke-miterlimit:4;stroke-dasharray:none;stroke-opacity:1" />
      <g
         transform="translate(3.8867844)"
         id="g1576">
        <text
           id="text1068"
           y="167.54861"
           x="-371.57938"
           style="font-style:normal;font-variant:normal;font-weight:bold;font-stretch:normal;font-size:0.58181739px;line-height:1.25;font-family:Raleway;-inkscape-font-specification:'Raleway Bold';letter-spacing:0px;word-spacing:0px;fill:#808080;fill-opacity:1;stroke:none;stroke-width:0.00971016"
           xml:space="preserve"><tspan
             style="font-size:1.23472226px;fill:#808080;fill-opacity:1;stroke-width:0.00971016"
             y="167.54861"
             x="-371.57938"
             id="tspan1066"
             sodipodi:role="line">Database</tspan></text>
        <g
           transform="translate(-62.329008,70.923339)"
           id="g1082">
          <rect
             style="opacity:1;fill:#999999;fill-opacity:1;stroke:none;stroke-width:0.05988132;stroke-linecap:round;stroke-linejoin:round;stroke-miterlimit:4;stroke-dasharray:none;stroke-dashoffset:0;stroke-opacity:1"
             id="rect1078"
             width="5.7232208"
             height="4.0299511"
             x="-309.26535"
             y="89.643677" />
          <path
             style="fill:#ffffff;fill-opacity:1;stroke:#999999;stroke-width:0.13229002;stroke-miterlimit:4;stroke-dasharray:none;stroke-opacity:1"
             d="m -306.91255,94.897412 c -1.11256,-0.08074 -2.02739,-0.421128 -2.22419,-0.827568 -0.0551,-0.113872 -0.0617,-0.176945 -0.0617,-0.592285 v -0.464874 l 0.21677,0.108893 c 0.60655,0.304656 1.42323,0.446113 2.57549,0.446113 1.14922,0 1.97115,-0.142551 2.57733,-0.447037 l 0.21861,-0.109817 -0.009,0.501474 -0.009,0.501473 -0.0868,0.122772 c -0.23033,0.325736 -0.86423,0.589418 -1.69741,0.70606 -0.32455,0.04542 -1.1923,0.07712 -1.49996,0.05479 z m -0.007,-1.694301 c -0.90375,-0.04506 -1.73341,-0.240828 -2.1264,-0.501719 l -0.15221,-0.10103 V 92.0799 c 0,-0.286233 0.005,-0.520443 0.0108,-0.520443 0.006,0 0.07,0.03307 0.14235,0.0735 0.31461,0.175793 0.94728,0.348382 1.55403,0.4239 0.40234,0.05006 1.82965,0.04931 2.19907,-0.0019 0.60938,-0.08327 1.22102,-0.252802 1.52511,-0.422732 0.0723,-0.04041 0.13638,-0.0735 0.14232,-0.0735 0.006,0 0.0108,0.234211 0.0108,0.520462 v 0.520443 l -0.15218,0.101031 c -0.5519,0.36637 -1.82056,0.568205 -3.15374,0.501718 z m -0.19033,-1.47082 c -0.67484,-0.05302 -1.33495,-0.201967 -1.74105,-0.392864 -0.36254,-0.170439 -0.34723,-0.13778 -0.34723,-0.739945 v -0.515974 l 0.15192,0.08542 c 0.77323,0.4348 2.65088,0.600807 4.08712,0.361393 0.39943,-0.06658 0.88748,-0.209546 1.12819,-0.330431 l 0.2173,-0.109157 v 0.512335 c 0,0.494799 -0.002,0.514333 -0.0651,0.57058 -0.24037,0.214958 -0.88082,0.417961 -1.62762,0.515937 -0.42347,0.05557 -1.35825,0.07769 -1.80354,0.04271 z m 0.13842,-1.447326 c -0.91137,-0.05497 -1.75249,-0.26289 -2.10951,-0.521461 -0.11095,-0.08036 -0.11719,-0.09287 -0.11719,-0.234681 0,-0.300847 0.19801,-0.534906 0.62211,-0.735401 0.61345,-0.290023 1.65429,-0.432838 2.65177,-0.363863 0.60089,0.04156 0.94538,0.10022 1.32412,0.225498 0.37537,0.124129 0.60867,0.247126 0.77455,0.408326 0.15531,0.150904 0.21198,0.276541 0.21198,0.469852 0,0.136668 -0.007,0.15047 -0.11718,0.230269 -0.36852,0.266887 -1.18026,0.462291 -2.17063,0.522517 -0.5156,0.03136 -0.53295,0.03134 -1.07002,-0.0019 z"
             id="path1080"
             inkscape:connector-curvature="0" />
        </g>
      </g>
      <text
         id="text1088"
         y="162.24492"
         x="-353.84018"
         style="font-style:normal;font-variant:normal;font-weight:bold;font-stretch:normal;font-size:0.58181739px;line-height:1.25;font-family:Raleway;-inkscape-font-specification:'Raleway Bold';letter-spacing:0px;word-spacing:0px;fill:#808080;fill-opacity:1;stroke:none;stroke-width:0.00971016"
         xml:space="preserve"><tspan
           id="tspan1086"
           style="font-size:1.23472226px;text-align:center;text-anchor:middle;fill:#808080;fill-opacity:1;stroke-width:0.00971016"
           y="162.24492"
           x="-353.84018"
           sodipodi:role="line">CRUD</tspan><tspan
           id="tspan1229"
           style="font-size:1.23472226px;text-align:center;text-anchor:middle;fill:#808080;fill-opacity:1;stroke-width:0.00971016"
           y="163.78831"
           x="-353.84018"
           sodipodi:role="line">events</tspan></text>
      <path
         style="fill:none;stroke:#999999;stroke-width:0.2;stroke-linecap:butt;stroke-linejoin:miter;stroke-miterlimit:4;stroke-dasharray:none;stroke-opacity:1"
         d="m -351.09574,175.86135 c 3.53507,-0.10278 2.56764,-6.65334 6.34267,-6.72735"
         id="path1114"
         inkscape:connector-curvature="0"
         sodipodi:nodetypes="cc" />
      <path
         inkscape:connector-curvature="0"
         id="path1116"
         d="m -361.40697,162.582 h 4.78221"
         style="fill:none;stroke:#999999;stroke-width:0.20000002;stroke-linecap:butt;stroke-linejoin:miter;stroke-miterlimit:4;stroke-dasharray:none;stroke-opacity:1" />
      <path
         style="fill:none;stroke:#999999;stroke-width:0.2;stroke-linecap:round;stroke-linejoin:round;stroke-miterlimit:4;stroke-dasharray:none;stroke-opacity:1"
         d="m -345.43499,168.44855 0.68548,0.68545 -0.68548,0.68548"
         id="path1118"
         inkscape:connector-curvature="0" />
      <g
         transform="translate(-0.71247047,13.855755)"
         id="g1501">
        <g
           id="g1423"
           transform="translate(-8.2471722,1.1746862)"
           style="stroke-width:0.2;stroke-miterlimit:4;stroke-dasharray:none">
          <rect
             ry="0.75470895"
             y="150.52174"
             x="-318.09222"
             height="7.1636186"
             width="15.09494"
             id="rect1237"
             style="opacity:1;fill:#ffffff;fill-opacity:1;stroke:#999999;stroke-width:0.2;stroke-linecap:round;stroke-linejoin:round;stroke-miterlimit:4;stroke-dasharray:none;stroke-dashoffset:0;stroke-opacity:1" />
          <text
             id="text1243"
             y="152.9781"
             x="-310.53391"
             style="font-style:normal;font-variant:normal;font-weight:bold;font-stretch:normal;font-size:1.23472226px;line-height:1.25;font-family:Raleway;-inkscape-font-specification:'Raleway Bold';letter-spacing:0px;word-spacing:0px;fill:#4d4d4d;fill-opacity:1;stroke:none;stroke-width:0.2;stroke-miterlimit:4;stroke-dasharray:none"
             xml:space="preserve"><tspan
               style="font-size:1.23472226px;text-align:center;text-anchor:middle;fill:#4d4d4d;fill-opacity:1;stroke-width:0.2;stroke-miterlimit:4;stroke-dasharray:none"
               y="152.9781"
               x="-310.53391"
               sodipodi:role="line"
               id="tspan1241">Remote services</tspan><tspan
               id="tspan1253"
               style="font-size:1.23472226px;text-align:center;text-anchor:middle;fill:#4d4d4d;fill-opacity:1;stroke-width:0.2;stroke-miterlimit:4;stroke-dasharray:none"
               y="154.5215"
               x="-310.38681"
               sodipodi:role="line">(HTTP server, </tspan><tspan
               id="tspan1257"
               style="font-size:1.23472226px;text-align:center;text-anchor:middle;fill:#4d4d4d;fill-opacity:1;stroke-width:0.2;stroke-miterlimit:4;stroke-dasharray:none"
               y="156.06491"
               x="-310.53391"
               sodipodi:role="line">serverless functions)</tspan></text>
        </g>
      </g>
      <g
         transform="translate(-0.33408689,13.855755)"
         id="g1493">
        <rect
           style="opacity:1;fill:#ffffff;fill-opacity:1;stroke:#999999;stroke-width:0.2;stroke-linecap:round;stroke-linejoin:round;stroke-miterlimit:4;stroke-dasharray:none;stroke-dashoffset:0;stroke-opacity:1"
           id="rect1024"
           width="11.194571"
           height="6.853579"
           x="-343.65948"
           y="151.85146"
           ry="0.72204548" />
        <g
           id="g1060"
           transform="translate(-6.3164897,92.094591)">
          <g
             transform="translate(16.538286,37.891158)"
             id="g1036">
            <circle
               style="opacity:1;fill:#ff6600;fill-opacity:1;stroke-width:0.00287298"
               id="circle1026"
               cx="-351.41382"
               cy="24.282125"
               r="1.015751" />
            <path
               id="path1028"
               style="font-style:normal;font-variant:normal;font-weight:normal;font-stretch:normal;font-size:medium;line-height:1.25;font-family:'Bebas Neue';-inkscape-font-specification:'Bebas Neue';letter-spacing:0px;word-spacing:0px;fill:url(#linearGradient1126);fill-opacity:1;stroke:none;stroke-width:0.04794261"
               d="m -351.56691,24.976443 q -0.15342,0 -0.23396,-0.08629 -0.0806,-0.0882 -0.0806,-0.251204 v -1.024056 h 0.21095 v 1.039393 q 0,0.06902 0.0268,0.09972 0.0288,0.03067 0.0805,0.03067 0.0518,0 0.0786,-0.03067 0.0288,-0.0307 0.0288,-0.09972 v -1.039393 h 0.20325 v 1.024056 q 0,0.163003 -0.0805,0.251204 -0.0805,0.08629 -0.23396,0.08629 z"
               inkscape:connector-curvature="0" />
            <path
               transform="matrix(0.00116416,0,0,0.00116416,-349.72499,24.10641)"
               sodipodi:nodetypes="cccccccccc"
               clip-path="url(#clipPath3688-9)"
               inkscape:connector-curvature="0"
               id="path1030"
               d="m -1671.7492,-423.53716 240.8951,223.62965 128.717,-170.62486 272.4011,95.7894 2.7806,-84.39163 536.03474,509.45709 -5.98684,670.52578 -727.4007,296.34843 -544.8022,-428.05886 z"
               style="fill:url(#linearGradient1128);fill-opacity:1;stroke:none;stroke-width:0.26458332px;stroke-linecap:butt;stroke-linejoin:miter;stroke-opacity:1" />
            <path
               inkscape:connector-curvature="0"
               d="m -351.56691,24.976443 q -0.15342,0 -0.23396,-0.08629 -0.0806,-0.0882 -0.0806,-0.251204 v -1.024056 h 0.21095 v 1.039393 q 0,0.06902 0.0268,0.09972 0.0288,0.03067 0.0805,0.03067 0.0518,0 0.0786,-0.03067 0.0288,-0.0307 0.0288,-0.09972 v -1.039393 h 0.20325 v 1.024056 q 0,0.163003 -0.0805,0.251204 -0.0805,0.08629 -0.23396,0.08629 z"
               style="font-style:normal;font-variant:normal;font-weight:normal;font-stretch:normal;font-size:medium;line-height:1.25;font-family:'Bebas Neue';-inkscape-font-specification:'Bebas Neue';letter-spacing:0px;word-spacing:0px;fill:#ffffff;fill-opacity:1;stroke:none;stroke-width:0.04794261"
               id="path1032" />
            <path
               style="font-style:normal;font-variant:normal;font-weight:normal;font-stretch:normal;font-size:medium;line-height:1.25;font-family:'Bebas Neue';-inkscape-font-specification:'Bebas Neue';letter-spacing:0px;word-spacing:0px;fill:#ffffff;fill-opacity:1;stroke:none;stroke-width:0.04843172"
               d="m -351.45787,23.614892 h 0.31258 c 0.10547,0 0.18458,0.02851 0.23732,0.08558 0.0527,0.05704 0.0791,0.140682 0.0791,0.250919 v 0.13421 c 0,0.110208 -0.0265,0.193848 -0.0791,0.250919 -0.0527,0.05704 -0.13185,0.08558 -0.23732,0.08558 h -0.10035 v 0.465661 h -0.21223 z m 0.31258,0.612701 c 0.0347,0 0.0604,-0.0097 0.0772,-0.02919 0.018,-0.01938 0.0271,-0.05251 0.0271,-0.09918 v -0.161464 c 0,-0.04667 -0.009,-0.07973 -0.0271,-0.0992 -0.0168,-0.01938 -0.0424,-0.02916 -0.0772,-0.02916 h -0.10035 v 0.418198 z"
               id="path1034"
               inkscape:connector-curvature="0"
               sodipodi:nodetypes="cssssssccccscsscsccs" />
          </g>
          <g
             transform="matrix(0.03669981,0,0,0.03669981,-101.42302,-23.1922)"
             id="g1058"
             style="font-style:normal;font-variant:normal;font-weight:bold;font-stretch:normal;font-size:39.5739975px;line-height:1.25;font-family:Raleway;-inkscape-font-specification:'Raleway Bold';letter-spacing:0px;word-spacing:0px;fill:#002c39;fill-opacity:1;stroke:none;stroke-width:2.28311539"
             aria-label="SPACE CLOUD">
            <path
               id="path1038"
               style="font-style:normal;font-variant:normal;font-weight:bold;font-stretch:normal;font-family:'Bebas Neue';-inkscape-font-specification:'Bebas Neue Bold';fill:#002c39;fill-opacity:1;stroke-width:2.28311539"
               d="m -6310.9708,2340.2937 q -3.1659,0 -4.7885,-1.7808 -1.6225,-1.8204 -1.6225,-5.1842 v -1.583 h 4.1157 v 1.8996 q 0,2.691 2.2557,2.691 1.1081,0 1.6621,-0.6332 0.5936,-0.6728 0.5936,-2.137 0,-1.7412 -0.7915,-3.0472 -0.7914,-1.3455 -2.9284,-3.2055 -2.6911,-2.3744 -3.7596,-4.274 -1.0685,-1.9391 -1.0685,-4.3531 0,-3.2847 1.6621,-5.0655 1.6622,-1.8204 4.8281,-1.8204 3.1263,0 4.7093,1.8204 1.6225,1.7808 1.6225,5.1446 v 1.1477 h -4.1157 v -1.4247 q 0,-1.4246 -0.554,-2.0578 -0.5541,-0.6728 -1.6226,-0.6728 -2.1765,0 -2.1765,2.6515 0,1.5038 0.7915,2.8097 0.831,1.306 2.968,3.1659 2.7306,2.3745 3.7595,4.3136 1.029,1.9391 1.029,4.551 0,3.4034 -1.7017,5.2238 -1.6621,1.8204 -4.8676,1.8204 z"
               inkscape:connector-curvature="0" />
            <path
               id="path1040"
               style="font-style:normal;font-variant:normal;font-weight:bold;font-stretch:normal;font-family:'Bebas Neue';-inkscape-font-specification:'Bebas Neue Bold';fill:#002c39;fill-opacity:1;stroke-width:2.28311539"
               d="m -6301.9442,2312.1962 h 6.4109 q 3.2451,0 4.8676,1.7412 1.6226,1.7413 1.6226,5.1051 v 2.7306 q 0,3.3637 -1.6226,5.105 -1.6225,1.7413 -4.8676,1.7413 h -2.0578 v 11.2785 h -4.3531 z m 6.4109,12.4658 q 1.0685,0 1.583,-0.5936 0.554,-0.5937 0.554,-2.0183 v -3.2847 q 0,-1.4246 -0.554,-2.0182 -0.5145,-0.5936 -1.583,-0.5936 h -2.0578 v 8.5084 z"
               inkscape:connector-curvature="0" />
            <path
               id="path1042"
               style="font-style:normal;font-variant:normal;font-weight:bold;font-stretch:normal;font-family:'Bebas Neue';-inkscape-font-specification:'Bebas Neue Bold';fill:#002c39;fill-opacity:1;stroke-width:2.28311539"
               d="m -6284.6677,2312.1962 h 5.8965 l 4.5114,27.7017 h -4.3531 l -0.7915,-5.5007 v 0.079 h -4.9467 l -0.7915,5.4216 h -4.0366 z m 4.7489,18.5206 -1.9392,-13.6926 h -0.079 l -1.8996,13.6926 z"
               inkscape:connector-curvature="0" />
            <path
               id="path1044"
               style="font-style:normal;font-variant:normal;font-weight:bold;font-stretch:normal;font-family:'Bebas Neue';-inkscape-font-specification:'Bebas Neue Bold';fill:#002c39;fill-opacity:1;stroke-width:2.28311539"
               d="m -6266.1298,2340.2937 q -3.1263,0 -4.7884,-1.7808 -1.6226,-1.7809 -1.6226,-5.0259 v -14.8799 q 0,-3.245 1.6226,-5.0259 1.6621,-1.7808 4.7884,-1.7808 3.1264,0 4.7489,1.7808 1.6621,1.7809 1.6621,5.0259 v 2.9285 h -4.1157 v -3.2055 q 0,-2.5723 -2.1766,-2.5723 -2.1765,0 -2.1765,2.5723 v 15.4735 q 0,2.5327 2.1765,2.5327 2.1766,0 2.1766,-2.5327 v -4.2345 h 4.1157 v 3.9179 q 0,3.245 -1.6621,5.0259 -1.6225,1.7808 -4.7489,1.7808 z"
               inkscape:connector-curvature="0" />
            <path
               id="path1046"
               style="font-style:normal;font-variant:normal;font-weight:bold;font-stretch:normal;font-family:'Bebas Neue';-inkscape-font-specification:'Bebas Neue Bold';fill:#002c39;fill-opacity:1;stroke-width:2.28311539"
               d="m -6257.1143,2312.1962 h 11.8722 v 3.9574 h -7.5191 v 7.3211 h 5.9757 v 3.9574 h -5.9757 v 8.5084 h 7.5191 v 3.9574 h -11.8722 z"
               inkscape:connector-curvature="0" />
            <path
               id="path1048"
               style="font-style:normal;font-variant:normal;font-weight:bold;font-stretch:normal;font-family:'Bebas Neue';-inkscape-font-specification:'Bebas Neue Bold';fill:#002c39;fill-opacity:1;stroke-width:2.28311539"
               d="m -6230.2658,2340.2937 q -3.1264,0 -4.7885,-1.7808 -1.6225,-1.7809 -1.6225,-5.0259 v -14.8799 q 0,-3.245 1.6225,-5.0259 1.6621,-1.7808 4.7885,-1.7808 3.1263,0 4.7488,1.7808 1.6621,1.7809 1.6621,5.0259 v 2.9285 h -4.1157 v -3.2055 q 0,-2.5723 -2.1765,-2.5723 -2.1766,0 -2.1766,2.5723 v 15.4735 q 0,2.5327 2.1766,2.5327 2.1765,0 2.1765,-2.5327 v -4.2345 h 4.1157 v 3.9179 q 0,3.245 -1.6621,5.0259 -1.6225,1.7808 -4.7488,1.7808 z"
               inkscape:connector-curvature="0" />
            <path
               id="path1050"
               style="font-style:normal;font-variant:normal;font-weight:bold;font-stretch:normal;font-family:'Bebas Neue';-inkscape-font-specification:'Bebas Neue Bold';fill:#002c39;fill-opacity:1;stroke-width:2.28311539"
               d="m -6221.2504,2312.1962 h 4.3531 v 23.7443 h 7.1629 v 3.9574 h -11.516 z"
               inkscape:connector-curvature="0" />
            <path
               id="path1052"
               style="font-style:normal;font-variant:normal;font-weight:bold;font-stretch:normal;font-family:'Bebas Neue';-inkscape-font-specification:'Bebas Neue Bold';fill:#002c39;fill-opacity:1;stroke-width:2.28311539"
               d="m -6201.5092,2340.2937 q -3.2054,0 -4.9071,-1.8204 -1.7017,-1.8204 -1.7017,-5.1446 v -14.5633 q 0,-3.3242 1.7017,-5.1446 1.7017,-1.8204 4.9071,-1.8204 3.2055,0 4.9072,1.8204 1.7017,1.8204 1.7017,5.1446 v 14.5633 q 0,3.3242 -1.7017,5.1446 -1.7017,1.8204 -4.9072,1.8204 z m 0,-3.9574 q 2.2558,0 2.2558,-2.7306 v -15.1173 q 0,-2.7306 -2.2558,-2.7306 -2.2557,0 -2.2557,2.7306 v 15.1173 q 0,2.7306 2.2557,2.7306 z"
               inkscape:connector-curvature="0" />
            <path
               id="path1054"
               style="font-style:normal;font-variant:normal;font-weight:bold;font-stretch:normal;font-family:'Bebas Neue';-inkscape-font-specification:'Bebas Neue Bold';fill:#002c39;fill-opacity:1;stroke-width:2.28311539"
               d="m -6185.6245,2340.2937 q -3.1659,0 -4.828,-1.7808 -1.6622,-1.8204 -1.6622,-5.1842 v -21.1325 h 4.3532 v 21.4491 q 0,1.4246 0.554,2.0578 0.5936,0.6332 1.6621,0.6332 1.0685,0 1.6226,-0.6332 0.5936,-0.6332 0.5936,-2.0578 v -21.4491 h 4.1948 v 21.1325 q 0,3.3638 -1.6621,5.1842 -1.6621,1.7808 -4.828,1.7808 z"
               inkscape:connector-curvature="0" />
            <path
               id="path1056"
               style="font-style:normal;font-variant:normal;font-weight:bold;font-stretch:normal;font-family:'Bebas Neue';-inkscape-font-specification:'Bebas Neue Bold';fill:#002c39;fill-opacity:1;stroke-width:2.28311539"
               d="m -6176.034,2312.1962 h 6.6484 q 3.2451,0 4.8676,1.7412 1.6226,1.7413 1.6226,5.1051 v 14.0091 q 0,3.3638 -1.6226,5.1051 -1.6225,1.7412 -4.8676,1.7412 h -6.6484 z m 6.5693,23.7443 q 1.0685,0 1.6225,-0.6331 0.5936,-0.6332 0.5936,-2.0579 v -14.4049 q 0,-1.4247 -0.5936,-2.0579 -0.554,-0.6331 -1.6225,-0.6331 h -2.2162 v 19.7869 z"
               inkscape:connector-curvature="0" />
          </g>
        </g>
        <text
           id="text1286"
           y="157.35519"
           x="-342.29788"
           style="font-style:normal;font-variant:normal;font-weight:bold;font-stretch:normal;font-size:0.57375157px;line-height:1.25;font-family:Raleway;-inkscape-font-specification:'Raleway Bold';letter-spacing:0px;word-spacing:0px;fill:#808080;fill-opacity:1;stroke:none;stroke-width:0.00957554"
           xml:space="preserve"><tspan
             id="tspan1284"
             style="font-size:1.21760523px;fill:#808080;fill-opacity:1;stroke-width:0.00957554"
             y="157.35519"
             x="-342.29788"
             sodipodi:role="line">EVENT QUEUE</tspan></text>
      </g>
      <g
         transform="translate(4.5829613)"
         id="g1582">
        <rect
           ry="0.52396429"
           y="173.21397"
           x="-373.24591"
           height="4.9734139"
           width="7.6339717"
           id="rect1094"
           style="opacity:1;fill:#ffffff;fill-opacity:1;stroke:#999999;stroke-width:0.17468883;stroke-linecap:round;stroke-linejoin:round;stroke-miterlimit:4;stroke-dasharray:none;stroke-dashoffset:0;stroke-opacity:1" />
        <text
           id="text1100"
           y="175.36113"
           x="-371.76169"
           style="font-style:normal;font-variant:normal;font-weight:bold;font-stretch:normal;font-size:1.23472226px;line-height:1.25;font-family:Raleway;-inkscape-font-specification:'Raleway Bold';letter-spacing:0px;word-spacing:0px;fill:#4d4d4d;fill-opacity:1;stroke:none;stroke-width:0.00552724"
           xml:space="preserve"><tspan
             style="font-size:1.23472226px;fill:#4d4d4d;fill-opacity:1;stroke-width:0.00552724"
             y="175.36113"
             x="-371.76169"
             id="tspan1096"
             sodipodi:role="line">Remote</tspan><tspan
             style="font-size:1.23472226px;fill:#4d4d4d;fill-opacity:1;stroke-width:0.00552724"
             y="176.90453"
             x="-371.76169"
             sodipodi:role="line"
             id="tspan1098">server</tspan></text>
      </g>
      <text
         xml:space="preserve"
         style="font-style:normal;font-variant:normal;font-weight:bold;font-stretch:normal;font-size:0.58181739px;line-height:1.25;font-family:Raleway;-inkscape-font-specification:'Raleway Bold';letter-spacing:0px;word-spacing:0px;fill:#808080;fill-opacity:1;stroke:none;stroke-width:0.00971016"
         x="-353.82297"
         y="175.14252"
         id="text1235"><tspan
           sodipodi:role="line"
           x="-353.82297"
           y="175.14252"
           style="font-size:1.23472226px;text-align:center;text-anchor:middle;fill:#808080;fill-opacity:1;stroke-width:0.00971016"
           id="tspan1231">Custom</tspan><tspan
           sodipodi:role="line"
           x="-353.82297"
           y="176.68591"
           style="font-size:1.23472226px;text-align:center;text-anchor:middle;fill:#808080;fill-opacity:1;stroke-width:0.00971016"
           id="tspan1233">events</tspan></text>
      <path
         style="fill:none;stroke:#999999;stroke-width:0.2;stroke-linecap:butt;stroke-linejoin:miter;stroke-miterlimit:4;stroke-dasharray:none;stroke-opacity:1"
         d="m -360.28182,175.70068 h 3.67745"
         id="path1358"
         inkscape:connector-curvature="0" />
      <path
         style="fill:none;stroke:#999999;stroke-width:0.2;stroke-linecap:butt;stroke-linejoin:miter;stroke-miterlimit:4;stroke-dasharray:none;stroke-opacity:1"
         d="m -332.04206,169.13399 h 4.18838"
         id="path1425"
         inkscape:connector-curvature="0" />
      <path
         inkscape:connector-curvature="0"
         id="path1427"
         d="m -328.53916,168.44854 0.68548,0.68545 -0.68548,0.68548"
         style="fill:none;stroke:#999999;stroke-width:0.2;stroke-linecap:round;stroke-linejoin:round;stroke-miterlimit:4;stroke-dasharray:none;stroke-opacity:1" />
    </g>
  </g>
</svg>
