<svg width="40" height="40" viewBox="0 0 40 40" fill="none" xmlns="http://www.w3.org/2000/svg">
<path d="M30.1562 4.14062C30.1562 4.57214 29.8065 4.92188 29.375 4.92188C28.9435 4.92188 28.5938 4.57214 28.5938 4.14062C28.5938 3.70911 28.9435 3.35938 29.375 3.35938C29.8065 3.35938 30.1562 3.70911 30.1562 4.14062Z" fill="#1E266D"/>
<path d="M20 8.28125C12.6767 8.28125 6.71875 14.2392 6.71875 21.5625C6.71875 28.9566 12.7249 34.8438 20 34.8438C27.291 34.8438 33.2812 28.9462 33.2812 21.5625C33.2812 14.2392 27.3233 8.28125 20 8.28125ZM17.5943 33.0328C17.634 32.8604 17.6553 32.6819 17.6562 32.5V29.3878C17.6544 28.2486 18.0515 28.0719 18.5059 27.3779C18.6517 27.1552 18.674 26.8735 18.5654 26.6302C18.4564 26.3873 18.2312 26.2164 17.9678 26.1774C14.8688 25.7147 13.6523 24.1171 13.1775 22.8586C12.5452 21.1819 12.8799 19.0912 13.9914 17.7731C14.1605 17.5745 14.3118 17.2174 14.1904 16.86C13.9532 16.1438 13.9902 14.9997 14.1379 14.5572C14.8111 14.6558 15.4401 15.0372 16.1566 15.4721C16.5714 15.7242 16.8661 15.9567 17.3679 15.8218C18.2446 15.5841 19.1302 15.4578 20 15.4462C20.8701 15.4575 21.7557 15.5841 22.6337 15.8221C23.1323 15.9567 23.4369 15.719 23.8434 15.4721C24.5602 15.0372 25.1892 14.6555 25.8624 14.5572C26.0101 14.9994 26.0471 16.1432 25.8121 16.8536C25.6885 17.2171 25.8395 17.5745 26.0086 17.7731C27.1204 19.0909 27.4551 21.1819 26.8225 22.8586C26.348 24.1171 25.1315 25.7147 22.0325 26.1771C21.7691 26.2164 21.5439 26.3873 21.4349 26.6302C21.326 26.8735 21.3483 27.1552 21.4941 27.3779C21.9476 28.0704 22.3459 28.2471 22.3441 29.389V32.5043C22.345 32.6843 22.366 32.8616 22.4054 33.0328C21.6183 33.197 20.813 33.2812 20 33.2812C19.187 33.2812 18.3813 33.197 17.5943 33.0328ZM23.9148 32.6108C23.9099 32.5745 23.9066 32.5378 23.9062 32.5V29.3903C23.9078 28.4937 23.7106 27.9105 23.4665 27.4731C25.8374 26.8323 27.5272 25.4178 28.2843 23.41C29.0842 21.2894 28.7213 18.7543 27.3898 16.9992C27.6324 15.9314 27.6254 14.245 27.0441 13.4781C26.7841 13.1348 26.4209 12.9568 26.0193 12.9742C24.7977 13.0307 23.8562 13.6404 22.8308 14.2587C21.8924 14.0213 20.9445 13.8953 20.0095 13.8837C20.0031 13.8834 19.9969 13.8834 19.9905 13.8837C19.0552 13.895 18.1067 14.0213 17.1692 14.2587C16.1517 13.6453 15.2075 13.031 13.9804 12.9742C13.5806 12.9559 13.2162 13.1348 12.9559 13.4781C12.3755 14.2438 12.3676 15.9262 12.6105 16.9986C11.279 18.7537 10.9158 21.2894 11.7157 23.41C12.4728 25.4178 14.1626 26.8323 16.5335 27.4728C16.3406 27.8183 16.1777 28.2553 16.1182 28.8647C15.152 29.2026 14.3698 28.9798 13.8388 28.085C13.2178 27.0404 12.1655 26.1978 10.9595 26.3019C10.5295 26.3391 10.2112 26.7178 10.2484 27.1475C10.2853 27.5775 10.6653 27.8964 11.0941 27.8589C11.6525 27.8104 12.2034 28.392 12.4954 28.8831C13.3304 30.2902 14.6829 30.7925 16.0938 30.4907V32.4954C16.0934 32.5348 16.0901 32.5729 16.0849 32.6105C11.46 30.9695 8.28125 26.5152 8.28125 21.5625C8.28125 15.1007 13.5382 9.84375 20 9.84375C26.4618 9.84375 31.7188 15.1007 31.7188 21.5625C31.7188 26.5152 28.54 30.9695 23.9148 32.6108Z" fill="#1E266D"/>
<path d="M36.0938 0H3.90625C1.75232 0 0 1.75232 0 3.90625V36.0938C0 38.2477 1.75232 40 3.90625 40H36.0938C38.2477 40 40 38.2477 40 36.0938V3.90625C40 1.75232 38.2477 0 36.0938 0ZM38.4375 36.0938C38.4375 37.3862 37.3862 38.4375 36.0938 38.4375H3.90625C2.61383 38.4375 1.5625 37.3862 1.5625 36.0938V3.90625C1.5625 2.61383 2.61383 1.5625 3.90625 1.5625H36.0938C37.3862 1.5625 38.4375 2.61383 38.4375 3.90625V36.0938Z" fill="#1E266D"/>
<path d="M10.625 4.92188H26.25C26.6815 4.92188 27.0312 4.57214 27.0312 4.14062C27.0312 3.70911 26.6815 3.35938 26.25 3.35938H10.625C10.1935 3.35938 9.84375 3.70911 9.84375 4.14062C9.84375 4.57214 10.1935 4.92188 10.625 4.92188Z" fill="#1E266D"/>
</svg>
