<svg width="63" height="62" viewBox="0 0 63 62" fill="none" xmlns="http://www.w3.org/2000/svg">
<circle cx="31.4754" cy="30.9246" r="30.9246" fill="#002C39"/>
<path d="M46.9376 31.9154C46.9376 40.3701 41.0529 46.3869 32.3625 46.3869C24.0304 46.3869 17.3015 39.7666 17.3015 31.5689C17.3015 23.3712 24.0304 16.7509 32.3625 16.7509C36.4192 16.7509 39.8322 18.2147 42.4618 20.6286L38.3626 24.5064C33.0001 19.4157 23.0283 23.2397 23.0283 31.5689C23.0283 36.7373 27.2247 40.9258 32.3625 40.9258C38.3261 40.9258 40.561 36.7194 40.9132 34.5385H32.3625V29.4418H46.7007C46.8404 30.2006 46.9376 30.9296 46.9376 31.9154Z" fill="white"/>
</svg>
