<svg width="32" height="32" viewBox="0 0 32 32" fill="none" xmlns="http://www.w3.org/2000/svg">
<path d="M16.6696 11.0459H15.3306C14.7401 11.0459 14.2598 10.5655 14.2598 9.97504C14.2598 9.38461 14.7401 8.90423 15.3306 8.90423H18.0083C18.5261 8.90423 18.9458 8.48449 18.9458 7.96674C18.9458 7.44899 18.5261 7.02924 18.0083 7.02924H16.9374V5.95849C16.9374 5.44074 16.5177 5.021 15.9999 5.021C15.4822 5.021 15.0624 5.44074 15.0624 5.95849V7.04205C13.5634 7.17799 12.3848 8.44124 12.3848 9.97511C12.3848 11.5995 13.7063 12.921 15.3306 12.921H16.6696C17.26 12.921 17.7404 13.4013 17.7404 13.9918C17.7404 14.5822 17.2601 15.0626 16.6696 15.0626H13.9916C13.4739 15.0626 13.0541 15.4823 13.0541 16.0001C13.0541 16.5178 13.4739 16.9376 13.9916 16.9376H15.0624V18.0084C15.0624 18.5261 15.4822 18.9459 15.9999 18.9459C16.5177 18.9459 16.9374 18.5261 16.9374 18.0084V16.9248C18.4366 16.789 19.6154 15.5257 19.6154 13.9917C19.6154 12.3674 18.2939 11.0459 16.6696 11.0459Z" fill="#1E266D"/>
<path d="M21.0206 22.0918H10.979C10.4613 22.0918 10.0415 22.5115 10.0415 23.0293C10.0415 23.547 10.4613 23.9668 10.979 23.9668H21.0206C21.5383 23.9668 21.9581 23.547 21.9581 23.0293C21.9581 22.5115 21.5383 22.0918 21.0206 22.0918Z" fill="#1E266D"/>
<path d="M27.0457 0H4.9541C4.43635 0 4.0166 0.419749 4.0166 0.937498V28.3009C4.0166 28.5496 4.11541 28.788 4.29123 28.9639L7.05272 31.7254C7.41878 32.0915 8.01241 32.0915 8.37853 31.7254L10.4771 29.6268L12.5756 31.7254C12.7514 31.9012 12.9898 32 13.2385 32C13.4871 32 13.7256 31.9013 13.9015 31.7254L15.9999 29.6268L18.0984 31.7254C18.2743 31.9012 18.5127 32 18.7613 32C19.01 32 19.2484 31.9012 19.4243 31.7254L21.5228 29.6268L23.6213 31.7254C23.8044 31.9084 24.0443 32 24.2842 32C24.5241 32 24.7641 31.9085 24.9471 31.7254L27.7086 28.9639C27.8844 28.7881 27.9832 28.5496 27.9832 28.3009V0.937498C27.9832 0.419749 27.5635 0 27.0457 0ZM24.2842 29.7366L22.1856 27.6381C22.0098 27.4623 21.7713 27.3634 21.5227 27.3634C21.274 27.3634 21.0356 27.4623 20.8598 27.6381L18.7613 29.7366L16.6627 27.6381C16.2966 27.2719 15.703 27.2719 15.3369 27.6381L13.2383 29.7366L11.1398 27.6381C10.964 27.4623 10.7256 27.3634 10.4769 27.3634C10.2283 27.3634 9.98984 27.4622 9.81403 27.6381L7.71547 29.7366L5.89147 27.9126V1.875H26.1081V27.9126H26.1082L24.2842 29.7366Z" fill="#1E266D"/>
</svg>
