<svg width="80" height="78" viewBox="0 0 80 78" fill="none" xmlns="http://www.w3.org/2000/svg">
<path d="M39.7227 0.00684213C39.0155 0.0424686 38.3225 0.217818 37.6845 0.522603L9.8726 13.8114C9.15276 14.1552 8.52027 14.6554 8.02209 15.2749C7.52392 15.8944 7.17286 16.6172 6.99501 17.3897L0.133618 47.2398C-0.024822 47.9276 -0.0425536 48.6399 0.0814723 49.3345C0.205498 50.0292 0.468761 50.6921 0.855682 51.2841C0.949501 51.4288 1.0504 51.5689 1.15802 51.7038L20.4083 75.6387C20.9066 76.258 21.5392 76.758 22.259 77.1016C22.9789 77.4453 23.7675 77.6236 24.5664 77.6235L55.4374 77.6163C56.236 77.6169 57.0244 77.4391 57.7443 77.0961C58.4641 76.7532 59.0968 76.2538 59.5955 75.6351L78.8387 51.6967C79.3372 51.0771 79.6885 50.354 79.8665 49.5811C80.0444 48.8083 80.0445 48.0056 79.8666 47.2327L72.9946 17.3826C72.8167 16.6101 72.4657 15.8873 71.9675 15.2678C71.4693 14.6483 70.8368 14.1481 70.117 13.8043L42.3015 0.522603C41.499 0.139207 40.6123 -0.0381381 39.7227 0.00684213Z" fill="#326CE5"/>
<path d="M39.9978 10.165C39.0785 10.1651 38.333 10.9932 38.3331 12.0147C38.3331 12.0303 38.3364 12.0453 38.3367 12.0609C38.3353 12.1997 38.3286 12.3669 38.3331 12.4877C38.3551 13.0769 38.4835 13.5278 38.5608 14.0706C38.7008 15.2323 38.8182 16.1954 38.7458 17.0905C38.6753 17.428 38.4267 17.7367 38.2051 17.9512L38.166 18.6555C37.167 18.7383 36.1613 18.8899 35.1568 19.1179C30.8344 20.0993 27.1129 22.3258 24.2796 25.332C24.0957 25.2065 23.7741 24.9758 23.6784 24.9051C23.3812 24.9453 23.0808 25.037 22.6896 24.8091C21.9446 24.3076 21.2661 23.6154 20.4451 22.7816C20.069 22.3827 19.7965 22.0029 19.3496 21.6185C19.2481 21.5312 19.0932 21.4131 18.9797 21.3232C18.6302 21.0447 18.2181 20.8994 17.8201 20.8857C17.3084 20.8682 16.8157 21.0683 16.4933 21.4726C15.9202 22.1915 16.1037 23.2902 16.9024 23.9269C16.9105 23.9334 16.9191 23.9384 16.9273 23.9447C17.0371 24.0337 17.1714 24.1477 17.2723 24.2222C17.7466 24.5724 18.1799 24.7516 18.6524 25.0296C19.648 25.6445 20.4734 26.1543 21.1281 26.769C21.3837 27.0415 21.4284 27.5217 21.4624 27.7293L21.996 28.206C19.1398 32.5044 17.8179 37.8137 18.5991 43.2235L17.9019 43.4263C17.7182 43.6635 17.4585 44.0369 17.187 44.1483C16.3304 44.4181 15.3664 44.5172 14.2027 44.6392C13.6563 44.6846 13.1848 44.6575 12.6056 44.7672C12.4781 44.7914 12.3005 44.8377 12.161 44.8704C12.1561 44.8714 12.1516 44.8728 12.1467 44.8739C12.1391 44.8757 12.1291 44.8794 12.1218 44.881C11.1407 45.1181 10.5104 46.02 10.7133 46.9085C10.9162 47.7973 11.8746 48.3378 12.8617 48.125C12.8688 48.1234 12.8792 48.1231 12.8866 48.1214C12.8977 48.1189 12.9075 48.1135 12.9186 48.1108C13.0562 48.0806 13.2286 48.047 13.349 48.0147C13.9185 47.8623 14.3309 47.6382 14.8429 47.4421C15.9444 47.047 16.8566 46.717 17.7454 46.5884C18.1166 46.5593 18.5077 46.8174 18.7022 46.9263L19.4278 46.8018C21.0977 51.9788 24.597 56.1632 29.0281 58.7888L28.7258 59.5144C28.8347 59.7962 28.9549 60.1774 28.8738 60.4557C28.5507 61.2935 27.9972 62.1779 27.367 63.1639C27.0619 63.6194 26.7496 63.9729 26.4742 64.4942C26.4083 64.6189 26.3244 64.8105 26.2608 64.9424C25.8329 65.8578 26.1468 66.9121 26.9686 67.3077C27.7956 67.7059 28.8222 67.286 29.2664 66.3687C29.2671 66.3674 29.2693 66.3664 29.27 66.3651C29.2704 66.3641 29.2695 66.3626 29.27 66.3616C29.3333 66.2315 29.4229 66.0606 29.4763 65.9383C29.7121 65.398 29.7906 64.935 29.9565 64.4124C30.3969 63.306 30.6389 62.1451 31.2452 61.4218C31.4113 61.2237 31.682 61.1475 31.9626 61.0724L32.3396 60.3894C36.2026 61.8722 40.5265 62.2701 44.8459 61.2894C45.8313 61.0656 46.7826 60.7761 47.7022 60.4286C47.8082 60.6165 48.0051 60.9778 48.0579 61.0688C48.3431 61.1616 48.6544 61.2095 48.908 61.5846C49.3616 62.3596 49.6719 63.2765 50.0498 64.3839C50.2157 64.9065 50.2976 65.3696 50.5335 65.9099C50.5873 66.033 50.6765 66.2064 50.7398 66.3367C51.1832 67.2569 52.2129 67.6783 53.0412 67.2793C53.8629 66.8834 54.1771 65.8292 53.749 64.9139C53.6854 64.7821 53.598 64.5905 53.5321 64.4657C53.2567 63.9445 52.9444 63.5945 52.6393 63.139C52.009 62.1531 51.4863 61.334 51.1631 60.4962C51.028 60.064 51.1859 59.7953 51.2912 59.5144C51.2281 59.4422 51.0933 59.0341 51.0137 58.8422C55.6187 56.1231 59.0153 51.7827 60.6104 46.7698C60.8258 46.8037 61.2002 46.8699 61.3218 46.8943C61.5722 46.7292 61.8024 46.5137 62.2537 46.5493C63.1425 46.6778 64.0548 47.008 65.1562 47.403C65.6682 47.5991 66.0807 47.8267 66.6502 47.9792C66.7705 48.0114 66.943 48.0415 67.0806 48.0717C67.0916 48.0744 67.1014 48.0798 67.1126 48.0823C67.12 48.084 67.1303 48.0843 67.1375 48.0859C68.1246 48.2984 69.0831 47.7582 69.2859 46.8694C69.4886 45.9808 68.8585 45.0787 67.8773 44.8419C67.7346 44.8095 67.5322 44.7544 67.3936 44.7281C66.8143 44.6184 66.3429 44.6455 65.7965 44.6001C64.6327 44.4781 63.6687 44.3789 62.8122 44.1092C62.463 43.9737 62.2145 43.5582 62.0937 43.3871L61.4214 43.1915C61.77 40.6698 61.676 38.0454 61.0728 35.4195C60.4641 32.7692 59.3882 30.3452 57.9534 28.2095C58.1258 28.0528 58.4515 27.7644 58.5438 27.6796C58.5708 27.3809 58.5476 27.0677 58.8568 26.737C59.5115 26.1222 60.3369 25.6125 61.3325 24.9976C61.805 24.7196 62.2419 24.5404 62.7161 24.1902C62.8234 24.111 62.9698 23.9856 63.0825 23.8949C63.881 23.2579 64.0649 22.1593 63.4916 21.4406C62.9183 20.7219 61.8073 20.6542 61.0088 21.2912C60.8951 21.3813 60.7409 21.4987 60.6389 21.5865C60.1919 21.971 59.9159 22.3507 59.5398 22.7496C58.7188 23.5835 58.0403 24.2791 57.2953 24.7806C56.9725 24.9686 56.4997 24.9035 56.2851 24.8909L55.652 25.3426C52.0417 21.5568 47.1261 19.1364 41.8332 18.6662C41.8184 18.4444 41.799 18.0434 41.7941 17.9228C41.5774 17.7154 41.3156 17.5384 41.2499 17.0905C41.1774 16.1954 41.2983 15.2323 41.4384 14.0706C41.5157 13.5278 41.6441 13.0769 41.666 12.4877C41.671 12.3538 41.663 12.1595 41.6625 12.0147C41.6624 10.9932 40.9172 10.1649 39.9978 10.165H39.9978ZM37.9134 23.0768L37.419 31.8092L37.3834 31.827C37.3503 32.6082 36.7073 33.232 35.918 33.232C35.5946 33.232 35.2962 33.1281 35.0536 32.951L35.0394 32.9581L27.8792 27.8823C30.0798 25.7184 32.8946 24.1193 36.1385 23.3827C36.7311 23.2482 37.3234 23.1484 37.9134 23.0768ZM42.0857 23.0768C45.873 23.5426 49.3755 25.2575 52.0595 27.8859L44.9455 32.9296L44.9207 32.919C44.2892 33.3801 43.3996 33.2657 42.9074 32.6486C42.7058 32.3958 42.6 32.0986 42.5873 31.7985L42.5802 31.795L42.0857 23.0768ZM25.2826 31.144L31.8203 36.9917L31.8132 37.0273C32.4033 37.5403 32.4903 38.4305 31.9982 39.0476C31.7966 39.3004 31.5267 39.47 31.237 39.5492L31.2299 39.5776L22.8497 41.9963C22.4231 38.0962 23.3423 34.3049 25.2826 31.144ZM54.6667 31.1476C55.6381 32.7221 56.3737 34.4806 56.8116 36.387C57.2442 38.2706 57.3528 40.1508 57.1744 41.9679L48.7515 39.542L48.7444 39.5065C47.9901 39.3003 47.5266 38.5331 47.7022 37.7635C47.7741 37.4483 47.9415 37.1816 48.1682 36.9846L48.1646 36.9668L54.6667 31.1476ZM38.6568 37.4434H41.3352L42.9999 39.5243L42.4023 42.1208L39.9978 43.2769L37.5862 42.1173L36.9886 39.5207L38.6568 37.4434ZM47.2434 44.5645C47.3572 44.5587 47.4705 44.569 47.5813 44.5894L47.5955 44.5716L56.2638 46.0371C54.9952 49.6012 52.5677 52.6889 49.3242 54.7552L45.9593 46.6275L45.9699 46.6133C45.6609 45.8951 45.9702 45.0528 46.6813 44.7103C46.8634 44.6226 47.0536 44.5741 47.2433 44.5645H47.2434ZM32.6847 44.6C33.3462 44.6093 33.9395 45.0685 34.0932 45.7418C34.1652 46.0571 34.1302 46.3694 34.0114 46.6453L34.0363 46.6773L30.707 54.7232C27.5943 52.7257 25.115 49.735 23.7887 46.0655L32.3823 44.6072L32.3966 44.625C32.4927 44.6073 32.5902 44.5987 32.6847 44.6001V44.6ZM39.9445 48.125C40.1749 48.1165 40.4087 48.1638 40.6309 48.2708C40.9223 48.4111 41.1473 48.632 41.289 48.8969H41.321L45.5573 56.5515C45.0075 56.7358 44.4423 56.8933 43.8642 57.0245C40.6243 57.7602 37.3947 57.5373 34.4703 56.5408L38.696 48.9004H38.7031C38.9566 48.4264 39.4375 48.1436 39.9445 48.125Z" fill="white" stroke="white" stroke-width="0.25"/>
</svg>
