<svg width="40" height="39" viewBox="0 0 40 39" fill="none" xmlns="http://www.w3.org/2000/svg">
<path d="M19.8613 0.00342106C19.5077 0.0212343 19.1613 0.108909 18.8423 0.261301L4.9363 6.90572C4.57638 7.0776 4.26013 7.32771 4.01105 7.63745C3.76196 7.94719 3.58643 8.30862 3.4975 8.69487L0.0668088 23.6199C-0.012411 23.9638 -0.0212768 24.3199 0.0407361 24.6673C0.102749 25.0146 0.234381 25.3461 0.427841 25.642C0.474751 25.7144 0.525201 25.7844 0.579012 25.8519L10.2042 37.8193C10.4533 38.129 10.7696 38.379 11.1295 38.5508C11.4894 38.7226 11.8838 38.8118 12.2832 38.8117L27.7187 38.8082C28.118 38.8085 28.5122 38.7196 28.8721 38.5481C29.2321 38.3766 29.5484 38.1269 29.7977 37.8176L39.4193 25.8484C39.6686 25.5385 39.8443 25.177 39.9332 24.7906C40.0222 24.4041 40.0223 24.0028 39.9333 23.6164L36.4973 8.69132C36.4084 8.30506 36.2328 7.94364 35.9837 7.63389C35.7346 7.32415 35.4184 7.07405 35.0585 6.90216L21.1507 0.261301C20.7495 0.0696037 20.3061 -0.019069 19.8613 0.00342106Z" fill="#326CE5"/>
<path d="M19.9991 5.08252C19.5395 5.08257 19.1668 5.4966 19.1668 6.00733C19.1668 6.01517 19.1684 6.02266 19.1686 6.03045C19.1679 6.09985 19.1646 6.18345 19.1668 6.24387C19.1778 6.53844 19.242 6.7639 19.2806 7.0353C19.3507 7.61617 19.4093 8.09768 19.3731 8.54523C19.3379 8.71399 19.2136 8.86834 19.1028 8.97562L19.0832 9.32776C18.5837 9.36915 18.0809 9.44493 17.5786 9.55896C15.4174 10.0497 13.5567 11.1629 12.14 12.666C12.0481 12.6033 11.8873 12.4879 11.8395 12.4526C11.6909 12.4726 11.5407 12.5185 11.345 12.4045C10.9726 12.1538 10.6333 11.8077 10.2228 11.3908C10.0347 11.1914 9.89852 11.0015 9.67504 10.8092C9.62429 10.7656 9.54684 10.7065 9.49008 10.6616C9.31537 10.5223 9.1093 10.4497 8.91029 10.4429C8.65443 10.4341 8.40811 10.5341 8.24692 10.7363C7.96036 11.0957 8.0521 11.6451 8.45144 11.9635C8.4555 11.9667 8.45981 11.9692 8.46389 11.9724C8.51877 12.0169 8.58597 12.0738 8.63641 12.1111C8.87355 12.2862 9.09017 12.3758 9.32646 12.5148C9.82426 12.8222 10.2369 13.0771 10.5643 13.3845C10.6921 13.5207 10.7144 13.7608 10.7315 13.8647L10.9982 14.103C9.57013 16.2522 8.90919 18.9069 9.29978 21.6118L8.9512 21.7131C8.85933 21.8318 8.72951 22.0184 8.59372 22.0742C8.16546 22.209 7.68347 22.2586 7.10158 22.3196C6.82838 22.3423 6.59266 22.3287 6.30304 22.3836C6.23929 22.3957 6.15047 22.4188 6.08073 22.4352C6.0783 22.4357 6.07604 22.4364 6.07361 22.437C6.06981 22.4378 6.06482 22.4397 6.06116 22.4405C5.57058 22.5591 5.25542 23.01 5.35688 23.4543C5.45836 23.8986 5.93756 24.1689 6.43109 24.0625C6.43465 24.0617 6.43982 24.0616 6.44354 24.0607C6.44911 24.0595 6.45401 24.0567 6.45954 24.0554C6.52834 24.0403 6.61456 24.0235 6.67474 24.0074C6.95949 23.9311 7.16571 23.8191 7.4217 23.721C7.97243 23.5235 8.42857 23.3585 8.87295 23.2942C9.05854 23.2797 9.25409 23.4087 9.35136 23.4632L9.71417 23.4009C10.5491 25.9894 12.2988 28.0816 14.5143 29.3944L14.3631 29.7572C14.4176 29.8981 14.4777 30.0887 14.4371 30.2278C14.2756 30.6468 13.9988 31.089 13.6837 31.5819C13.5312 31.8097 13.375 31.9864 13.2373 32.2471C13.2044 32.3095 13.1624 32.4053 13.1306 32.4712C12.9167 32.9289 13.0736 33.456 13.4846 33.6539C13.8981 33.8529 14.4113 33.643 14.6335 33.1844C14.6338 33.1837 14.6349 33.1832 14.6352 33.1826C14.6355 33.1821 14.635 33.1813 14.6352 33.1808C14.6669 33.1158 14.7117 33.0303 14.7384 32.9692C14.8563 32.699 14.8956 32.4675 14.9785 32.2062C15.1987 31.653 15.3197 31.0726 15.6229 30.7109C15.7059 30.6119 15.8412 30.5738 15.9815 30.5362L16.1701 30.1947C18.1015 30.9361 20.2635 31.135 22.4232 30.6447C22.9159 30.5328 23.3915 30.388 23.8513 30.2143C23.9043 30.3083 24.0028 30.4889 24.0292 30.5344C24.1718 30.5808 24.3274 30.6048 24.4542 30.7923C24.6811 31.1798 24.8362 31.6382 25.0251 32.192C25.1081 32.4532 25.1491 32.6848 25.267 32.9549C25.2939 33.0165 25.3385 33.1032 25.3702 33.1683C25.5918 33.6285 26.1067 33.8391 26.5208 33.6396C26.9317 33.4417 27.0888 32.9146 26.8748 32.457C26.843 32.391 26.7992 32.2952 26.7663 32.2329C26.6286 31.9722 26.4725 31.7972 26.3199 31.5695C26.0047 31.0765 25.7434 30.667 25.5818 30.2481C25.5142 30.032 25.5932 29.8976 25.6458 29.7572C25.6143 29.7211 25.5469 29.517 25.5071 29.4211C27.8096 28.0616 29.5079 25.8914 30.3055 23.3849C30.4132 23.4018 30.6003 23.435 30.6612 23.4472C30.7863 23.3646 30.9014 23.2569 31.1271 23.2746C31.5715 23.3389 32.0276 23.504 32.5784 23.7015C32.8344 23.7995 33.0406 23.9134 33.3253 23.9896C33.3855 24.0057 33.4717 24.0207 33.5405 24.0358C33.5461 24.0372 33.551 24.0399 33.5565 24.0412C33.5602 24.042 33.5654 24.0421 33.569 24.0429C34.0625 24.1492 34.5418 23.8791 34.6432 23.4347C34.7445 22.9904 34.4295 22.5394 33.9389 22.421C33.8675 22.4047 33.7663 22.3772 33.697 22.3641C33.4074 22.3092 33.1717 22.3227 32.8985 22.3C32.3166 22.2391 31.8346 22.1895 31.4063 22.0546C31.2317 21.9869 31.1075 21.7791 31.0471 21.6936L30.7109 21.5957C30.8852 20.3349 30.8382 19.0227 30.5367 17.7098C30.2323 16.3846 29.6943 15.1726 28.9769 14.1048C29.0632 14.0264 29.226 13.8822 29.2722 13.8398C29.2857 13.6904 29.2741 13.5338 29.4287 13.3685C29.756 13.0611 30.1687 12.8063 30.6665 12.4988C30.9028 12.3598 31.1212 12.2702 31.3583 12.0951C31.4119 12.0555 31.4852 11.9928 31.5415 11.9475C31.9408 11.629 32.0327 11.0797 31.746 10.7203C31.4594 10.361 30.9039 10.3271 30.5046 10.6456C30.4478 10.6906 30.3707 10.7493 30.3197 10.7932C30.0962 10.9855 29.9582 11.1754 29.7701 11.3748C29.3597 11.7917 29.0204 12.1396 28.6479 12.3903C28.4865 12.4843 28.2501 12.4518 28.1428 12.4454L27.8262 12.6713C26.0211 10.7784 23.5633 9.56819 20.9168 9.3331C20.9094 9.22219 20.8997 9.02172 20.8973 8.96139C20.7889 8.85772 20.6581 8.76921 20.6252 8.54523C20.589 8.09768 20.6494 7.61617 20.7194 7.0353C20.7581 6.7639 20.8223 6.53844 20.8333 6.24387C20.8357 6.17691 20.8317 6.07974 20.8315 6.00733C20.8314 5.4966 20.4588 5.08247 19.9991 5.08252H19.9991ZM18.957 11.5384L18.7097 15.9046L18.692 15.9135C18.6754 16.3041 18.3539 16.616 17.9592 16.616C17.7976 16.616 17.6483 16.5641 17.5271 16.4755L17.5199 16.479L13.9399 13.9411C15.0402 12.8592 16.4475 12.0596 18.0695 11.6914C18.3658 11.6241 18.6619 11.5742 18.957 11.5384ZM21.0431 11.5384C22.9368 11.7713 24.688 12.6288 26.03 13.9429L22.473 16.4648L22.4606 16.4595C22.1449 16.6901 21.7 16.6329 21.4539 16.3243C21.3531 16.1979 21.3002 16.0493 21.2939 15.8993L21.2903 15.8975L21.0431 11.5384ZM12.6416 15.572L15.9104 18.4958L15.9069 18.5136C16.2019 18.7701 16.2454 19.2152 15.9993 19.5238C15.8985 19.6502 15.7636 19.735 15.6187 19.7746L15.6152 19.7888L11.4251 20.9982C11.2118 19.0481 11.6714 17.1525 12.6416 15.572ZM27.3336 15.5738C27.8193 16.361 28.1871 17.2403 28.406 18.1935C28.6224 19.1353 28.6767 20.0754 28.5874 20.9839L24.376 19.771L24.3724 19.7532C23.9953 19.6502 23.7635 19.2665 23.8513 18.8818C23.8873 18.7242 23.971 18.5908 24.0843 18.4923L24.0825 18.4834L27.3336 15.5738ZM19.3287 18.7217H20.6679L21.5002 19.7621L21.2014 21.0604L19.9991 21.6384L18.7933 21.0586L18.4945 19.7603L19.3287 18.7217ZM23.6219 22.2822C23.6788 22.2794 23.7355 22.2845 23.7909 22.2947L23.798 22.2858L28.1322 23.0185C27.4978 24.8006 26.2841 26.3444 24.6623 27.3776L22.9799 23.3138L22.9852 23.3066C22.8307 22.9475 22.9853 22.5264 23.3409 22.3552C23.432 22.3113 23.5271 22.287 23.6219 22.2822H23.6219ZM16.3426 22.3C16.6733 22.3047 16.97 22.5342 17.0469 22.8709C17.0828 23.0285 17.0653 23.1847 17.006 23.3227L17.0184 23.3387L15.3537 27.3616C13.7974 26.3629 12.5577 24.8675 11.8946 23.0328L16.1914 22.3036L16.1985 22.3125C16.2466 22.3036 16.2953 22.2994 16.3426 22.3V22.3ZM19.9725 24.0625C20.0877 24.0583 20.2046 24.0819 20.3157 24.1354C20.4614 24.2056 20.5739 24.316 20.6447 24.4484H20.6607L22.7789 28.2757C22.504 28.3679 22.2214 28.4466 21.9324 28.5123C20.3124 28.8801 18.6976 28.7686 17.2354 28.2704L19.3482 24.4502H19.3518C19.4786 24.2132 19.719 24.0718 19.9725 24.0625Z" fill="white" stroke="white" stroke-width="0.25"/>
</svg>
