<svg width="48" height="48" viewBox="0 0 48 48" fill="none" xmlns="http://www.w3.org/2000/svg">
<path d="M43.7812 28.3125H4.21875C1.89253 28.3125 0 30.205 0 32.5312V43.7812C0 46.1075 1.89253 48 4.21875 48H43.7812C46.1075 48 48 46.1075 48 43.7812V32.5312C48 30.205 46.1075 28.3125 43.7812 28.3125ZM45.1875 43.7812C45.1875 44.5567 44.5567 45.1875 43.7812 45.1875H4.21875C3.44334 45.1875 2.8125 44.5567 2.8125 43.7812V32.5312C2.8125 31.7558 3.44334 31.125 4.21875 31.125H43.7812C44.5567 31.125 45.1875 31.7558 45.1875 32.5312V43.7812Z" fill="#999999"/>
<path d="M11.8961 38.1563L13.7362 36.3463C14.2899 35.8017 14.2972 34.9113 13.7526 34.3576C13.208 33.804 12.3176 33.7965 11.7639 34.3412L9.89065 36.1838L8.01743 34.3412C7.46384 33.7966 6.57359 33.8039 6.02871 34.3576C5.48412 34.9113 5.49152 35.8016 6.04521 36.3462L7.88525 38.1563L6.04512 39.9662C5.49143 40.5108 5.48412 41.4011 6.02862 41.9548C6.57321 42.5084 7.46356 42.5159 8.01734 41.9712L9.89065 40.1288L11.7639 41.9713C12.3174 42.5158 13.2077 42.5087 13.7526 41.9549C14.2972 41.4012 14.2898 40.5109 13.7361 39.9663L11.8961 38.1563Z" fill="#999999"/>
<path d="M27.807 39.9744L25.9888 38.1563L27.8069 36.3382C28.3561 35.789 28.3561 34.8985 27.8069 34.3493C27.2578 33.8002 26.3673 33.8002 25.8181 34.3493L24.0001 36.1675L22.1819 34.3493C21.6328 33.8002 20.7423 33.8002 20.1931 34.3493C19.644 34.8985 19.644 35.7889 20.1931 36.3381L22.0113 38.1563L20.1932 39.9743C19.644 40.5235 19.644 41.4139 20.1932 41.9631C20.7423 42.5122 21.6328 42.5122 22.182 41.9631L24.0001 40.145L25.8182 41.9632C26.3673 42.5122 27.2578 42.5123 27.807 41.9632C28.3561 41.414 28.3561 40.5236 27.807 39.9744Z" fill="#999999"/>
<path d="M41.8695 39.9744L40.0513 38.1563L41.8694 36.3382C42.4186 35.789 42.4186 34.8985 41.8694 34.3493C41.3203 33.8002 40.4298 33.8002 39.8806 34.3493L38.0626 36.1675L36.2444 34.3493C35.6953 33.8002 34.8048 33.8002 34.2556 34.3493C33.7065 34.8985 33.7065 35.7889 34.2556 36.3381L36.0738 38.1563L34.2557 39.9743C33.7065 40.5235 33.7065 41.4139 34.2557 41.9631C34.8048 42.5122 35.6953 42.5122 36.2445 41.9631L38.0626 40.145L39.8807 41.9632C40.4298 42.5122 41.3203 42.5123 41.8695 41.9632C42.4186 41.414 42.4186 40.5236 41.8695 39.9744Z" fill="#999999"/>
<path d="M31.0312 11.6794V7.03125C31.0312 3.15422 27.877 0 24 0C20.123 0 16.9688 3.15422 16.9688 7.03125V11.6794C15.332 12.2599 14.1562 13.823 14.1562 15.6562V21.2812C14.1562 23.6075 16.0488 25.5 18.375 25.5H29.625C31.9512 25.5 33.8438 23.6075 33.8438 21.2812V15.6562C33.8438 13.823 32.668 12.2599 31.0312 11.6794ZM19.7812 7.03125C19.7812 4.70503 21.6738 2.8125 24 2.8125C26.3262 2.8125 28.2188 4.70503 28.2188 7.03125V11.4375H19.7812V7.03125ZM31.0312 21.2812C31.0312 22.0567 30.4004 22.6875 29.625 22.6875H18.375C17.5996 22.6875 16.9688 22.0567 16.9688 21.2812V15.6562C16.9688 14.8808 17.5996 14.25 18.375 14.25H29.625C30.4004 14.25 31.0312 14.8808 31.0312 15.6562V21.2812Z" fill="#999999"/>
<path d="M26.8125 17.0625H21.1875C20.4109 17.0625 19.7812 17.6921 19.7812 18.4688C19.7812 19.2454 20.4109 19.875 21.1875 19.875H26.8125C27.5891 19.875 28.2188 19.2454 28.2188 18.4688C28.2188 17.6921 27.5891 17.0625 26.8125 17.0625Z" fill="#999999"/>
</svg>
