<svg width="770" height="770" viewBox="0 0 770 770" fill="none" xmlns="http://www.w3.org/2000/svg">
<circle cx="385" cy="385" r="385" fill="#1D66FF"/>
<path fill-rule="evenodd" clip-rule="evenodd" d="M604 332.364C604 367.509 575.51 396 540.363 396H517V466H540.363C575.51 466 604 494.491 604 529.636C604 533.151 601.15 536 597.637 536H513H404C398.477 536 394 531.523 394 526V470V392V336C394 330.477 398.477 326 404 326H513H597.637C601.15 326 604 328.849 604 332.364Z" fill="white"/>
<path fill-rule="evenodd" clip-rule="evenodd" d="M367.637 326C371.15 326 374 328.849 374 332.364V470V532C374 534.209 372.209 536 370 536H308H170.363C166.85 536 164 533.151 164 529.636C164 494.491 192.49 466 227.637 466H231C271.316 466 304 433.317 304 393V389.636C304 354.491 332.49 326 367.637 326Z" fill="white"/>
<path fill-rule="evenodd" clip-rule="evenodd" d="M425 240.364C425 275.509 396.51 304 361.363 304H358C317.703 304 285.031 336.651 285 376.941V380.364C285 415.509 256.51 444 221.363 444C217.85 444 215 441.151 215 437.636V300V244C215 238.477 219.477 234 225 234H281H418.637C422.15 234 425 236.849 425 240.364Z" fill="white"/>
<path d="M467 431C467 411.67 482.67 396 502 396H538V466H502C482.67 466 467 450.33 467 431V431Z" fill="#1D66FF"/>
</svg>
