<svg width="172" height="39" viewBox="0 0 172 39" fill="none" xmlns="http://www.w3.org/2000/svg">
<path d="M6.81958 33.1219C4.8015 33.1219 3.27524 32.5544 2.24098 31.4192C1.20671 30.2588 0.689453 28.6064 0.689453 26.4622V24.9487H4.62485V26.765C4.62485 28.4804 5.34382 29.338 6.7817 29.338C7.48803 29.338 8.01771 29.1362 8.37087 28.7326C8.74926 28.3037 8.93855 27.6227 8.93855 26.6894C8.93855 25.5794 8.68625 24.6081 8.18173 23.7757C7.67721 22.918 6.74388 21.8964 5.38168 20.7107C3.66631 19.1972 2.46803 17.835 1.78693 16.6242C1.10583 15.3881 0.765205 14.0007 0.765205 12.4619C0.765205 10.3681 1.29489 8.75366 2.35438 7.61849C3.41387 6.45809 4.95277 5.87793 6.97085 5.87793C8.9637 5.87793 10.4647 6.45809 11.4737 7.61849C12.508 8.75366 13.025 10.3933 13.025 12.5375V13.6349H9.08982V12.2726C9.08982 11.3645 8.91319 10.7086 8.56002 10.305C8.20686 9.87618 7.68983 9.66183 7.00873 9.66183C5.6213 9.66183 4.92763 10.5068 4.92763 12.197C4.92763 13.1556 5.1797 14.051 5.68422 14.8835C6.21397 15.716 7.15994 16.7251 8.52215 17.9107C10.2627 19.4243 11.461 20.7991 12.1169 22.0351C12.7728 23.2712 13.1007 24.7217 13.1007 26.3866C13.1007 28.556 12.5584 30.221 11.4737 31.3814C10.4142 32.5418 8.86288 33.1219 6.81958 33.1219Z" fill="white"/>
<path d="M15.4502 6.25635H21.5801C23.6486 6.25635 25.2002 6.81133 26.2344 7.92127C27.2687 9.03121 27.7857 10.6583 27.7857 12.8025V15.4134C27.7857 17.5576 27.2687 19.1847 26.2344 20.2947C25.2002 21.4046 23.6486 21.9596 21.5801 21.9596H19.6126V32.7436H15.4502V6.25635ZM21.5801 18.1757C22.2612 18.1757 22.7658 17.9864 23.0937 17.608C23.447 17.2296 23.6235 16.5865 23.6235 15.6783V12.5376C23.6235 11.6295 23.447 10.9863 23.0937 10.6079C22.7658 10.2295 22.2612 10.0402 21.5801 10.0402H19.6126V18.1757H21.5801Z" fill="white"/>
<path d="M31.9695 6.25635H37.6074L41.9211 32.7436H37.7587L37.0021 27.4841V27.5597H32.2722L31.5154 32.7436H27.6558L31.9695 6.25635ZM36.5102 23.9651L34.6561 10.8727H34.5804L32.7642 23.9651H36.5102Z" fill="white"/>
<path d="M49.6948 33.1219C47.7019 33.1219 46.1757 32.5544 45.1162 31.4192C44.082 30.2841 43.5649 28.6821 43.5649 26.6136V12.3861C43.5649 10.3176 44.082 8.71578 45.1162 7.58061C46.1757 6.44544 47.7019 5.87793 49.6948 5.87793C51.6876 5.87793 53.2011 6.44544 54.2353 7.58061C55.2949 8.71578 55.8247 10.3176 55.8247 12.3861V15.1863H51.8893V12.1213C51.8893 10.4816 51.1957 9.66183 49.8082 9.66183C48.4209 9.66183 47.7271 10.4816 47.7271 12.1213V26.9164C47.7271 28.5308 48.4209 29.338 49.8082 29.338C51.1957 29.338 51.8893 28.5308 51.8893 26.9164V22.8676H55.8247V26.6136C55.8247 28.6821 55.2949 30.2841 54.2353 31.4192C53.2011 32.5544 51.6876 33.1219 49.6948 33.1219Z" fill="white"/>
<path d="M58.3145 6.25635H69.6661V10.0402H62.4769V17.0405H68.1904V20.8244H62.4769V28.9597H69.6661V32.7436H58.3145V6.25635Z" fill="white"/>
<path d="M119.797 10.0402H115.445V6.25635H128.311V10.0402H123.959V32.7436H119.797V10.0402Z" fill="white"/>
<path d="M130.289 6.25635H141.64V10.0402H134.451V17.0404H140.165V20.8243H134.451V28.9597H141.64V32.7436H130.289V6.25635Z" fill="white"/>
<path d="M149.9 33.1219C147.907 33.1219 146.381 32.5543 145.321 31.4191C144.287 30.284 143.77 28.6821 143.77 26.6135V12.3862C143.77 10.3177 144.287 8.71578 145.321 7.58059C146.381 6.44545 147.907 5.87793 149.9 5.87793C151.893 5.87793 153.406 6.44545 154.441 7.58059C155.5 8.71578 156.03 10.3177 156.03 12.3862V15.1863H152.095V12.1213C152.095 10.4817 151.401 9.66183 150.013 9.66183C148.626 9.66183 147.932 10.4817 147.932 12.1213V26.9164C147.932 28.5308 148.626 29.338 150.013 29.338C151.401 29.338 152.095 28.5308 152.095 26.9164V22.8676H156.03V26.6135C156.03 28.6821 155.5 30.284 154.441 31.4191C153.406 32.5543 151.893 33.1219 149.9 33.1219Z" fill="white"/>
<path d="M158.521 6.25635H162.683V17.0404H167.148V6.25635H171.31V32.7436H167.148V20.8243H162.683V32.7436H158.521V6.25635Z" fill="white"/>
<path d="M93.5767 39C104.346 39 113.077 30.2695 113.077 19.5C113.077 8.73044 104.346 0 93.5767 0C82.8071 0 74.0767 8.73044 74.0767 19.5C74.0767 30.2695 82.8071 39 93.5767 39Z" fill="#FF6600"/>
<path d="M90.6383 32.8298C88.6748 32.8298 87.1777 32.2776 86.1468 31.1731C85.116 30.0441 84.6006 28.4365 84.6006 26.3503V6.69092H88.6503V26.6449C88.6503 27.5284 88.8221 28.1666 89.1657 28.5593C89.5338 28.952 90.0493 29.1483 90.7119 29.1483C91.3746 29.1483 91.8778 28.952 92.2214 28.5593C92.5895 28.1666 92.7736 27.5284 92.7736 26.6449V6.69092H96.676V26.3503C96.676 28.4365 96.1606 30.0441 95.1298 31.1731C94.0989 32.2776 92.6018 32.8298 90.6383 32.8298Z" fill="url(#paint0_linear)"/>
<path d="M88.6369 6.66113L94.0206 11.659L96.8973 7.84574L102.985 9.98654L103.047 8.10047L115.027 19.4863L114.893 34.4719L98.6367 41.095L86.4609 31.5283L88.6369 6.66113Z" fill="url(#paint1_linear)"/>
<path d="M90.6383 32.8298C88.6748 32.8298 87.1777 32.2776 86.1468 31.1731C85.116 30.0441 84.6006 28.4365 84.6006 26.3503V6.69092H88.6503V26.6449C88.6503 27.5284 88.8221 28.1666 89.1657 28.5593C89.5338 28.952 90.0493 29.1483 90.7119 29.1483C91.3746 29.1483 91.8778 28.952 92.2214 28.5593C92.5895 28.1666 92.7736 27.5284 92.7736 26.6449V6.69092H96.676V26.3503C96.676 28.4365 96.1606 30.0441 95.1298 31.1731C94.0989 32.2776 92.6018 32.8298 90.6383 32.8298Z" fill="white"/>
<path d="M92.7314 6.69092H98.7321C100.757 6.69092 102.276 7.23861 103.288 8.33394C104.301 9.42929 104.807 11.035 104.807 13.151V15.7275C104.807 17.8435 104.301 19.4492 103.288 20.5445C102.276 21.6399 100.757 22.1876 98.7321 22.1876H96.806V31.1268H92.7314V6.69092ZM98.7321 18.4534C99.3989 18.4534 99.8927 18.2667 100.214 17.8933C100.559 17.5199 100.732 16.8851 100.732 15.9889V12.8896C100.732 11.9934 100.559 11.3586 100.214 10.9852C99.8927 10.6118 99.3989 10.4251 98.7321 10.4251H96.806V18.4534H98.7321Z" fill="white"/>
<defs>
<linearGradient id="paint0_linear" x1="84.6006" y1="19.7604" x2="93.1427" y2="32.4484" gradientUnits="userSpaceOnUse">
<stop stop-color="white"/>
<stop offset="1" stop-color="#E6E6E6"/>
</linearGradient>
<linearGradient id="paint1_linear" x1="89.8059" y1="15.5287" x2="108.394" y2="31.1164" gradientUnits="userSpaceOnUse">
<stop stop-color="#D05300"/>
<stop offset="1" stop-color="#D05300" stop-opacity="0"/>
</linearGradient>
</defs>
</svg>
