<svg width="412" height="355" viewBox="0 0 412 355" fill="none" xmlns="http://www.w3.org/2000/svg">
<g clip-path="url(#clip0)">
<path d="M68.0574 57.5918H7.38672V111.448H68.0574V57.5918Z" fill="#D0CDE1"/>
<path d="M68.0574 154.534H7.38672V208.391H68.0574V154.534Z" fill="#D0CDE1"/>
<path d="M263.003 57.5918H202.332V111.448H263.003V57.5918Z" fill="#D0CDE1"/>
<path d="M263.003 154.534H202.332V208.391H263.003V154.534Z" fill="#D0CDE1"/>
<path d="M166.219 57.5918H105.548V111.448H166.219V57.5918Z" fill="#3F3D56"/>
<path d="M166.219 154.534H105.548V208.391H166.219V154.534Z" fill="#3F3D56"/>
<path d="M155.756 106.602L116.561 105.715C121.255 90.5301 122.267 76.0731 117.534 62.752L156.729 63.6392C152.764 77.6457 152.429 92.4304 155.756 106.602Z" fill="#6C63FF"/>
<path d="M126.802 70.756L126.781 71.7002L147.086 72.1598L147.108 71.2156L126.802 70.756Z" fill="white"/>
<path d="M126.716 74.5323L126.695 75.4766L147.001 75.9362L147.022 74.9919L126.716 74.5323Z" fill="white"/>
<path d="M126.631 78.3097L126.61 79.2539L146.915 79.7135L146.937 78.7693L126.631 78.3097Z" fill="white"/>
<path d="M126.545 82.086L126.524 83.0303L146.83 83.4899L146.851 82.5457L126.545 82.086Z" fill="white"/>
<path d="M126.46 85.8634L126.438 86.8076L146.744 87.2672L146.766 86.323L126.46 85.8634Z" fill="white"/>
<path d="M126.374 89.6397L126.353 90.584L146.659 91.0436L146.68 90.0994L126.374 89.6397Z" fill="white"/>
<path d="M126.289 93.4171L126.267 94.3613L146.573 94.8209L146.595 93.8767L126.289 93.4171Z" fill="white"/>
<path d="M126.203 97.1944L126.182 98.1387L146.487 98.5983L146.509 97.6541L126.203 97.1944Z" fill="white"/>
<path d="M166.994 65.3713C173.275 65.3713 178.367 60.2809 178.367 54.0016C178.367 47.7222 173.275 42.6318 166.994 42.6318C160.713 42.6318 155.622 47.7222 155.622 54.0016C155.622 60.2809 160.713 65.3713 166.994 65.3713Z" fill="#6C63FF"/>
<path d="M166.589 59.5418L162.281 54.2785L162.959 53.7247L166.525 58.0823L172.756 48.9453L173.479 49.4379L166.589 59.5418Z" fill="white"/>
<path d="M187.943 355.001C291.741 355.001 375.886 350.714 375.886 345.426C375.886 340.138 291.741 335.852 187.943 335.852C84.1451 335.852 0 340.138 0 345.426C0 350.714 84.1451 355.001 187.943 355.001Z" fill="#D0CDE1"/>
<path d="M362.05 330.13L406.383 264.217L362.14 337.221L362.233 344.637C358.996 344.662 355.791 344.608 352.618 344.476L354.817 249.138L354.756 248.402L354.837 248.26L355.048 239.251L306.498 168.779L354.991 232.509L355.163 234.413L356.824 162.381L314.89 89.3176L356.943 149.727L356.504 0.496698L356.505 0L356.519 0.488487L359.303 118.102L397.521 70.3276L359.428 128.235L360.262 192.665L395.43 129.783L360.391 202.138L360.856 237.964L412 150.371L361.011 250.463L362.05 330.13Z" fill="#D0CDE1"/>
<path d="M163.078 285.686L130.086 264.512C142.006 253.997 150.404 242.184 153.306 228.349L186.299 249.523C175.615 259.413 167.625 271.858 163.078 285.686Z" fill="#6C63FF"/>
<path d="M157.046 240.009L156.536 240.804L173.628 251.773L174.139 250.979L157.046 240.009Z" fill="white"/>
<path d="M155.005 243.189L154.494 243.983L171.587 254.953L172.097 254.158L155.005 243.189Z" fill="white"/>
<path d="M152.963 246.366L152.453 247.161L169.545 258.131L170.056 257.336L152.963 246.366Z" fill="white"/>
<path d="M150.922 249.546L150.412 250.341L167.504 261.31L168.014 260.516L150.922 249.546Z" fill="white"/>
<path d="M148.881 252.725L148.37 253.52L165.463 264.489L165.973 263.694L148.881 252.725Z" fill="white"/>
<path d="M146.839 255.904L146.329 256.699L163.421 267.669L163.932 266.874L146.839 255.904Z" fill="white"/>
<path d="M144.798 259.083L144.288 259.878L161.38 270.848L161.89 270.053L144.798 259.083Z" fill="white"/>
<path d="M142.757 262.264L142.246 263.059L159.339 274.028L159.849 273.233L142.757 262.264Z" fill="white"/>
<path d="M92.9136 351.819L101.154 335.852C116.361 338.353 119.045 337.841 132.333 336.117L135.867 353.446C121.655 351.293 107.247 350.748 92.9136 351.819Z" fill="#6C63FF"/>
<path d="M127.293 348.938L127.034 339.961L127.978 339.996L128.236 348.974L127.293 348.938Z" fill="white"/>
<path d="M123.517 348.796L123.258 339.818L124.202 339.854L124.461 348.832L123.517 348.796Z" fill="white"/>
<path d="M119.74 348.652L119.482 339.675L120.426 339.71L120.685 348.688L119.74 348.652Z" fill="white"/>
<path d="M116.305 339.532L115.964 348.51L116.908 348.546L117.249 339.568L116.305 339.532Z" fill="white"/>
<path d="M112.529 339.389L112.188 348.366L113.132 348.402L113.473 339.424L112.529 339.389Z" fill="white"/>
<path d="M108.412 348.224L109.351 339.246L110.295 339.282L109.356 348.26L108.412 348.224Z" fill="white"/>
<path d="M104.636 348.08L105.575 339.103L106.519 339.138L105.58 348.116L104.636 348.08Z" fill="white"/>
<path d="M100.86 347.937L101.799 338.96L102.743 338.996L101.804 347.973L100.86 347.937Z" fill="white"/>
<path d="M152.33 212.879L152.929 218.863C152.929 218.863 148.14 236.217 155.323 235.02C162.505 233.823 160.111 218.863 160.111 218.863L158.914 214.076L152.33 212.879Z" fill="#FFB8B8"/>
<path d="M228.944 213.478L228.345 219.462C228.345 219.462 233.134 236.815 225.951 235.619C218.768 234.422 221.163 219.462 221.163 219.462L222.36 214.674L228.944 213.478Z" fill="#FFB8B8"/>
<path d="M169.388 326.277L167.593 338.843L180.162 337.646L178.366 325.08L169.388 326.277Z" fill="#FFB8B8"/>
<path d="M235.827 326.277L237.622 338.843L225.053 337.646L226.849 325.08L235.827 326.277Z" fill="#FFB8B8"/>
<path d="M167.293 206.895C167.293 206.895 164.301 208.091 167.293 253.57L168.491 327.773H180.461L185.25 261.948L191.834 221.855L210.389 273.916L225.352 329.568L237.323 326.576L221.761 255.366C221.761 255.366 224.754 214.075 213.98 206.895C203.206 199.714 167.293 206.895 167.293 206.895Z" fill="#2F2E41"/>
<path d="M170.286 334.954C170.286 334.954 170.038 329.512 168.965 329.241C167.892 328.97 160.111 335.552 160.111 335.552C160.111 335.552 151.731 334.355 152.33 343.331C152.928 352.307 164.899 349.315 164.899 349.315C164.899 349.315 167.293 354.701 172.082 354.701C176.87 354.701 184.053 354.701 184.651 351.111C185.25 347.52 181.658 331.363 180.461 331.962C179.264 332.56 176.271 331.962 176.271 331.962L170.286 334.954Z" fill="#2F2E41"/>
<path d="M234.929 334.954C234.929 334.954 235.178 329.512 236.251 329.241C237.323 328.97 245.104 335.552 245.104 335.552C245.104 335.552 253.484 334.355 252.886 343.331C252.287 352.307 240.316 349.315 240.316 349.315C240.316 349.315 237.922 354.701 233.134 354.701C228.345 354.701 221.163 354.701 220.564 351.111C219.966 347.52 223.557 331.363 224.754 331.962C225.951 332.56 228.944 331.962 228.944 331.962L234.929 334.954Z" fill="#2F2E41"/>
<path d="M190.637 115.937C196.918 115.937 202.009 110.846 202.009 104.567C202.009 98.2877 196.918 93.1973 190.637 93.1973C184.356 93.1973 179.264 98.2877 179.264 104.567C179.264 110.846 184.356 115.937 190.637 115.937Z" fill="#FFB8B8"/>
<path d="M198.418 106.362C198.418 106.362 199.016 122.519 202.009 124.314C205.002 126.11 184.053 124.314 184.053 124.314L186.447 110.551L198.418 106.362Z" fill="#FFB8B8"/>
<path d="M203.206 122.519C203.206 122.519 192.432 117.133 182.257 120.723C172.082 124.314 166.695 128.503 166.695 128.503L173.279 163.21C173.279 163.21 160.709 208.689 164.301 209.886C167.892 211.083 210.389 206.296 214.578 209.886C218.768 213.476 218.768 205.697 218.768 205.697C218.768 205.697 212.783 190.737 213.98 178.17C215.177 165.604 215.177 161.415 215.177 161.415L221.761 133.29L203.206 122.519Z" fill="#575A89"/>
<path d="M170.885 128.503H166.695C166.695 128.503 160.111 132.692 160.111 138.676C160.111 144.66 154.125 177.572 154.125 177.572L150.534 214.673L160.709 216.469L169.688 167.399L176.272 154.234L170.885 128.503Z" fill="#575A89"/>
<path d="M210.389 133.29H221.761C221.761 133.29 225.352 136.88 227.148 145.258C228.944 153.636 230.739 186.548 230.739 186.548L229.542 216.469H220.564L219.367 177.572L213.381 152.439L210.389 133.29Z" fill="#575A89"/>
<path d="M180.959 103.782L183.366 109.932C184.353 112.452 185.483 115.148 187.795 116.554C190.65 118.29 194.463 117.444 197.225 115.563C199.709 113.871 201.616 111.46 202.69 108.653C203.763 105.846 203.952 102.778 203.23 99.8613C202.508 96.9442 200.911 94.3178 198.653 92.3347C196.395 90.3516 193.584 89.1069 190.597 88.7678L190.483 90.826L187.957 88.709C187.77 89.0295 187.513 89.3035 187.205 89.5104C186.897 89.7174 186.546 89.8519 186.179 89.9038C185.811 89.9558 185.437 89.9238 185.084 89.8104C184.73 89.6969 184.407 89.5049 184.139 89.2488C184.803 90.624 184.037 92.3012 182.931 93.3547C181.572 94.6489 177.686 96.2042 177.847 98.5177C177.955 100.062 180.333 102.182 180.959 103.782Z" fill="#2F2E41"/>
</g>
<defs>
<clipPath id="clip0">
<rect width="412" height="355" fill="white"/>
</clipPath>
</defs>
</svg>
