<svg width="32" height="32" viewBox="0 0 32 32" fill="none" xmlns="http://www.w3.org/2000/svg">
<path d="M31.0684 5.68774C31.0664 5.68774 31.0645 5.6875 31.0625 5.6875H22.5625V4.75C22.5625 3.19922 21.3008 1.9375 19.75 1.9375H12.25C10.6992 1.9375 9.4375 3.19922 9.4375 4.75V5.6875H0.9375C0.415527 5.6875 0 6.11523 0 6.625V27.25C0 28.8008 1.26172 30.0625 2.8125 30.0625H29.1875C30.7383 30.0625 32 28.8008 32 27.25V6.64478C32 6.64355 32 6.64233 32 6.64111C31.9641 6.02539 31.5854 5.69116 31.0684 5.68774ZM11.3125 4.75C11.3125 4.23315 11.7332 3.8125 12.25 3.8125H19.75C20.2668 3.8125 20.6875 4.23315 20.6875 4.75V5.6875H11.3125V4.75ZM29.7617 7.5625L26.8503 16.2964C26.7227 16.6799 26.3652 16.9375 25.9612 16.9375H20.6875V16C20.6875 15.4822 20.2678 15.0625 19.75 15.0625H12.25C11.7322 15.0625 11.3125 15.4822 11.3125 16V16.9375H6.03882C5.63477 16.9375 5.27734 16.6799 5.14966 16.2964L2.23828 7.5625H29.7617ZM18.8125 16.9375V18.8125H13.1875V16.9375H18.8125ZM30.125 27.25C30.125 27.7668 29.7043 28.1875 29.1875 28.1875H2.8125C2.29565 28.1875 1.875 27.7668 1.875 27.25V12.4021L3.37085 16.8894C3.75415 18.0398 4.82642 18.8125 6.03882 18.8125H11.3125V19.75C11.3125 20.2678 11.7322 20.6875 12.25 20.6875H19.75C20.2678 20.6875 20.6875 20.2678 20.6875 19.75V18.8125H25.9612C27.1736 18.8125 28.2458 18.0398 28.6292 16.8894L30.125 12.4021V27.25Z" fill="#1E266D"/>
</svg>
