<?xml version="1.0" encoding="UTF-8" standalone="no"?>
<!-- Created with Inkscape (http://www.inkscape.org/) -->

<svg
   xmlns:dc="http://purl.org/dc/elements/1.1/"
   xmlns:cc="http://creativecommons.org/ns#"
   xmlns:rdf="http://www.w3.org/1999/02/22-rdf-syntax-ns#"
   xmlns:svg="http://www.w3.org/2000/svg"
   xmlns="http://www.w3.org/2000/svg"
   xmlns:xlink="http://www.w3.org/1999/xlink"
   xmlns:sodipodi="http://sodipodi.sourceforge.net/DTD/sodipodi-0.dtd"
   xmlns:inkscape="http://www.inkscape.org/namespaces/inkscape"
   width="66.069557mm"
   height="21.806965mm"
   viewBox="0 0 66.069557 21.806965"
   version="1.1"
   id="svg1393"
   inkscape:version="0.92.3 (2405546, 2018-03-11)"
   sodipodi:docname="space up graphics 1 horizontal.svg">
  <defs
     id="defs1387">
    <linearGradient
       inkscape:collect="always"
       xlink:href="#linearGradient1288"
       id="linearGradient1248"
       gradientUnits="userSpaceOnUse"
       gradientTransform="matrix(0.04794261,0,0,0.04794261,-208.69984,33.585066)"
       x1="-2986.52"
       y1="-193.76094"
       x2="-2977.239"
       y2="-179.97536" />
    <linearGradient
       inkscape:collect="always"
       id="linearGradient1288">
      <stop
         style="stop-color:#ffffff;stop-opacity:1"
         offset="0"
         id="stop1284" />
      <stop
         style="stop-color:#e6e6e6;stop-opacity:1"
         offset="1"
         id="stop1286" />
    </linearGradient>
    <linearGradient
       inkscape:collect="always"
       xlink:href="#linearGradient3700"
       id="linearGradient1250"
       gradientUnits="userSpaceOnUse"
       x1="-1619.4395"
       y1="-26.760092"
       x2="-787.73724"
       y2="670.70642" />
    <linearGradient
       inkscape:collect="always"
       id="linearGradient3700">
      <stop
         style="stop-color:#d05300;stop-opacity:1;"
         offset="0"
         id="stop3696" />
      <stop
         style="stop-color:#d05300;stop-opacity:0;"
         offset="1"
         id="stop3698" />
    </linearGradient>
    <clipPath
       clipPathUnits="userSpaceOnUse"
       id="clipPath3688-9">
      <circle
         style="opacity:1;fill:#ff6600;fill-opacity:1;stroke-width:2.46786404"
         id="circle3690-8"
         cx="-1450.7196"
         cy="150.93735"
         r="872.52167" />
    </clipPath>
  </defs>
  <sodipodi:namedview
     id="base"
     pagecolor="#ffffff"
     bordercolor="#666666"
     borderopacity="1.0"
     inkscape:pageopacity="0.0"
     inkscape:pageshadow="2"
     inkscape:zoom="0.35"
     inkscape:cx="44.855868"
     inkscape:cy="269.78142"
     inkscape:document-units="mm"
     inkscape:current-layer="layer1"
     showgrid="false"
     inkscape:window-width="1920"
     inkscape:window-height="1001"
     inkscape:window-x="-9"
     inkscape:window-y="-9"
     inkscape:window-maximized="1" />
  <metadata
     id="metadata1390">
    <rdf:RDF>
      <cc:Work
         rdf:about="">
        <dc:format>image/svg+xml</dc:format>
        <dc:type
           rdf:resource="http://purl.org/dc/dcmitype/StillImage" />
        <dc:title></dc:title>
      </cc:Work>
    </rdf:RDF>
  </metadata>
  <g
     inkscape:label="Layer 1"
     inkscape:groupmode="layer"
     id="layer1"
     transform="translate(32.278829,-198.40604)">
    <g
       id="g1517"
       transform="translate(453.74036,109.39181)">
      <rect
         style="opacity:1;fill:#ffffff;fill-opacity:1;stroke:#999999;stroke-width:0.2;stroke-linecap:round;stroke-linejoin:round;stroke-miterlimit:4;stroke-dasharray:none;stroke-dashoffset:0;stroke-opacity:1"
         id="rect1140"
         width="4.3158455"
         height="8.2001066"
         x="-485.91919"
         y="96.348389"
         ry="0.55486655" />
      <rect
         ry="0"
         y="97.238121"
         x="-485.54645"
         height="6.0537262"
         width="3.5703812"
         id="rect1142"
         style="opacity:1;fill:#ffffff;fill-opacity:1;stroke:#999999;stroke-width:0.2;stroke-linecap:round;stroke-linejoin:round;stroke-miterlimit:4;stroke-dasharray:none;stroke-dashoffset:0;stroke-opacity:1" />
      <circle
         style="opacity:1;fill:#999999;fill-opacity:1;stroke:none;stroke-width:0.22386932;stroke-linecap:round;stroke-linejoin:round;stroke-miterlimit:4;stroke-dasharray:none;stroke-dashoffset:0;stroke-opacity:1"
         id="circle1144"
         cx="-483.76126"
         cy="103.89947"
         r="0.32092482" />
      <rect
         style="opacity:1;fill:#999999;fill-opacity:1;stroke:none;stroke-width:0.07857718;stroke-linecap:round;stroke-linejoin:round;stroke-miterlimit:4;stroke-dasharray:none;stroke-dashoffset:0;stroke-opacity:1"
         id="rect1146"
         width="1.314371"
         height="0.25502771"
         x="-484.4184"
         y="96.6819"
         ry="0.12751386" />
      <path
         style="fill:none;stroke:#ff6600;stroke-width:0.222;stroke-linecap:butt;stroke-linejoin:miter;stroke-miterlimit:4;stroke-dasharray:none;stroke-opacity:1"
         d="m -451.92063,101.07713 c 5.09257,0.10278 3.6989,6.65334 9.13716,6.72736"
         id="path1240"
         inkscape:connector-curvature="0"
         sodipodi:nodetypes="cc" />
      <rect
         style="opacity:1;fill:#ffffff;fill-opacity:1;stroke:#999999;stroke-width:0.2;stroke-linecap:round;stroke-linejoin:round;stroke-miterlimit:4;stroke-dasharray:none;stroke-dashoffset:0;stroke-opacity:1"
         id="rect1148"
         width="11.225049"
         height="5.1468053"
         x="-463.159"
         y="97.875038"
         ry="0.54223162" />
      <g
         id="g1184"
         transform="translate(-125.80075,38.275154)">
        <g
           transform="translate(16.538286,37.891158)"
           id="g1160">
          <circle
             style="opacity:1;fill:#ff6600;fill-opacity:1;stroke-width:0.00287298"
             id="circle1150"
             cx="-351.41382"
             cy="24.282125"
             r="1.015751" />
          <path
             id="path1152"
             style="font-style:normal;font-variant:normal;font-weight:normal;font-stretch:normal;font-size:medium;line-height:1.25;font-family:'Bebas Neue';-inkscape-font-specification:'Bebas Neue';letter-spacing:0px;word-spacing:0px;fill:url(#linearGradient1248);fill-opacity:1;stroke:none;stroke-width:0.04794261"
             d="m -351.56691,24.976443 q -0.15342,0 -0.23396,-0.08629 -0.0806,-0.0882 -0.0806,-0.251204 v -1.024056 h 0.21095 v 1.039393 q 0,0.06902 0.0268,0.09972 0.0288,0.03067 0.0805,0.03067 0.0518,0 0.0786,-0.03067 0.0288,-0.0307 0.0288,-0.09972 v -1.039393 h 0.20325 v 1.024056 q 0,0.163003 -0.0805,0.251204 -0.0805,0.08629 -0.23396,0.08629 z"
             inkscape:connector-curvature="0" />
          <path
             transform="matrix(0.00116416,0,0,0.00116416,-349.72499,24.10641)"
             sodipodi:nodetypes="cccccccccc"
             clip-path="url(#clipPath3688-9)"
             inkscape:connector-curvature="0"
             id="path1154"
             d="m -1671.7492,-423.53716 240.8951,223.62965 128.717,-170.62486 272.4011,95.7894 2.7806,-84.39163 536.03474,509.45709 -5.98684,670.52578 -727.4007,296.34843 -544.8022,-428.05886 z"
             style="fill:url(#linearGradient1250);fill-opacity:1;stroke:none;stroke-width:0.26458332px;stroke-linecap:butt;stroke-linejoin:miter;stroke-opacity:1" />
          <path
             inkscape:connector-curvature="0"
             d="m -351.56691,24.976443 q -0.15342,0 -0.23396,-0.08629 -0.0806,-0.0882 -0.0806,-0.251204 v -1.024056 h 0.21095 v 1.039393 q 0,0.06902 0.0268,0.09972 0.0288,0.03067 0.0805,0.03067 0.0518,0 0.0786,-0.03067 0.0288,-0.0307 0.0288,-0.09972 v -1.039393 h 0.20325 v 1.024056 q 0,0.163003 -0.0805,0.251204 -0.0805,0.08629 -0.23396,0.08629 z"
             style="font-style:normal;font-variant:normal;font-weight:normal;font-stretch:normal;font-size:medium;line-height:1.25;font-family:'Bebas Neue';-inkscape-font-specification:'Bebas Neue';letter-spacing:0px;word-spacing:0px;fill:#ffffff;fill-opacity:1;stroke:none;stroke-width:0.04794261"
             id="path1156" />
          <path
             style="font-style:normal;font-variant:normal;font-weight:normal;font-stretch:normal;font-size:medium;line-height:1.25;font-family:'Bebas Neue';-inkscape-font-specification:'Bebas Neue';letter-spacing:0px;word-spacing:0px;fill:#ffffff;fill-opacity:1;stroke:none;stroke-width:0.04843172"
             d="m -351.45787,23.614892 h 0.31258 c 0.10547,0 0.18458,0.02851 0.23732,0.08558 0.0527,0.05704 0.0791,0.140682 0.0791,0.250919 v 0.13421 c 0,0.110208 -0.0265,0.193848 -0.0791,0.250919 -0.0527,0.05704 -0.13185,0.08558 -0.23732,0.08558 h -0.10035 v 0.465661 h -0.21223 z m 0.31258,0.612701 c 0.0347,0 0.0604,-0.0097 0.0772,-0.02919 0.018,-0.01938 0.0271,-0.05251 0.0271,-0.09918 v -0.161464 c 0,-0.04667 -0.009,-0.07973 -0.0271,-0.0992 -0.0168,-0.01938 -0.0424,-0.02916 -0.0772,-0.02916 h -0.10035 v 0.418198 z"
             id="path1158"
             inkscape:connector-curvature="0"
             sodipodi:nodetypes="cssssssccccscsscsccs" />
        </g>
        <g
           transform="matrix(0.03669981,0,0,0.03669981,-101.42302,-23.1922)"
           id="g1182"
           style="font-style:normal;font-variant:normal;font-weight:bold;font-stretch:normal;font-size:39.5739975px;line-height:1.25;font-family:Raleway;-inkscape-font-specification:'Raleway Bold';letter-spacing:0px;word-spacing:0px;fill:#002c39;fill-opacity:1;stroke:none;stroke-width:2.28311539"
           aria-label="SPACE CLOUD">
          <path
             id="path1162"
             style="font-style:normal;font-variant:normal;font-weight:bold;font-stretch:normal;font-family:'Bebas Neue';-inkscape-font-specification:'Bebas Neue Bold';fill:#002c39;fill-opacity:1;stroke-width:2.28311539"
             d="m -6310.9708,2340.2937 q -3.1659,0 -4.7885,-1.7808 -1.6225,-1.8204 -1.6225,-5.1842 v -1.583 h 4.1157 v 1.8996 q 0,2.691 2.2557,2.691 1.1081,0 1.6621,-0.6332 0.5936,-0.6728 0.5936,-2.137 0,-1.7412 -0.7915,-3.0472 -0.7914,-1.3455 -2.9284,-3.2055 -2.6911,-2.3744 -3.7596,-4.274 -1.0685,-1.9391 -1.0685,-4.3531 0,-3.2847 1.6621,-5.0655 1.6622,-1.8204 4.8281,-1.8204 3.1263,0 4.7093,1.8204 1.6225,1.7808 1.6225,5.1446 v 1.1477 h -4.1157 v -1.4247 q 0,-1.4246 -0.554,-2.0578 -0.5541,-0.6728 -1.6226,-0.6728 -2.1765,0 -2.1765,2.6515 0,1.5038 0.7915,2.8097 0.831,1.306 2.968,3.1659 2.7306,2.3745 3.7595,4.3136 1.029,1.9391 1.029,4.551 0,3.4034 -1.7017,5.2238 -1.6621,1.8204 -4.8676,1.8204 z"
             inkscape:connector-curvature="0" />
          <path
             id="path1164"
             style="font-style:normal;font-variant:normal;font-weight:bold;font-stretch:normal;font-family:'Bebas Neue';-inkscape-font-specification:'Bebas Neue Bold';fill:#002c39;fill-opacity:1;stroke-width:2.28311539"
             d="m -6301.9442,2312.1962 h 6.4109 q 3.2451,0 4.8676,1.7412 1.6226,1.7413 1.6226,5.1051 v 2.7306 q 0,3.3637 -1.6226,5.105 -1.6225,1.7413 -4.8676,1.7413 h -2.0578 v 11.2785 h -4.3531 z m 6.4109,12.4658 q 1.0685,0 1.583,-0.5936 0.554,-0.5937 0.554,-2.0183 v -3.2847 q 0,-1.4246 -0.554,-2.0182 -0.5145,-0.5936 -1.583,-0.5936 h -2.0578 v 8.5084 z"
             inkscape:connector-curvature="0" />
          <path
             id="path1166"
             style="font-style:normal;font-variant:normal;font-weight:bold;font-stretch:normal;font-family:'Bebas Neue';-inkscape-font-specification:'Bebas Neue Bold';fill:#002c39;fill-opacity:1;stroke-width:2.28311539"
             d="m -6284.6677,2312.1962 h 5.8965 l 4.5114,27.7017 h -4.3531 l -0.7915,-5.5007 v 0.079 h -4.9467 l -0.7915,5.4216 h -4.0366 z m 4.7489,18.5206 -1.9392,-13.6926 h -0.079 l -1.8996,13.6926 z"
             inkscape:connector-curvature="0" />
          <path
             id="path1168"
             style="font-style:normal;font-variant:normal;font-weight:bold;font-stretch:normal;font-family:'Bebas Neue';-inkscape-font-specification:'Bebas Neue Bold';fill:#002c39;fill-opacity:1;stroke-width:2.28311539"
             d="m -6266.1298,2340.2937 q -3.1263,0 -4.7884,-1.7808 -1.6226,-1.7809 -1.6226,-5.0259 v -14.8799 q 0,-3.245 1.6226,-5.0259 1.6621,-1.7808 4.7884,-1.7808 3.1264,0 4.7489,1.7808 1.6621,1.7809 1.6621,5.0259 v 2.9285 h -4.1157 v -3.2055 q 0,-2.5723 -2.1766,-2.5723 -2.1765,0 -2.1765,2.5723 v 15.4735 q 0,2.5327 2.1765,2.5327 2.1766,0 2.1766,-2.5327 v -4.2345 h 4.1157 v 3.9179 q 0,3.245 -1.6621,5.0259 -1.6225,1.7808 -4.7489,1.7808 z"
             inkscape:connector-curvature="0" />
          <path
             id="path1170"
             style="font-style:normal;font-variant:normal;font-weight:bold;font-stretch:normal;font-family:'Bebas Neue';-inkscape-font-specification:'Bebas Neue Bold';fill:#002c39;fill-opacity:1;stroke-width:2.28311539"
             d="m -6257.1143,2312.1962 h 11.8722 v 3.9574 h -7.5191 v 7.3211 h 5.9757 v 3.9574 h -5.9757 v 8.5084 h 7.5191 v 3.9574 h -11.8722 z"
             inkscape:connector-curvature="0" />
          <path
             id="path1172"
             style="font-style:normal;font-variant:normal;font-weight:bold;font-stretch:normal;font-family:'Bebas Neue';-inkscape-font-specification:'Bebas Neue Bold';fill:#002c39;fill-opacity:1;stroke-width:2.28311539"
             d="m -6230.2658,2340.2937 q -3.1264,0 -4.7885,-1.7808 -1.6225,-1.7809 -1.6225,-5.0259 v -14.8799 q 0,-3.245 1.6225,-5.0259 1.6621,-1.7808 4.7885,-1.7808 3.1263,0 4.7488,1.7808 1.6621,1.7809 1.6621,5.0259 v 2.9285 h -4.1157 v -3.2055 q 0,-2.5723 -2.1765,-2.5723 -2.1766,0 -2.1766,2.5723 v 15.4735 q 0,2.5327 2.1766,2.5327 2.1765,0 2.1765,-2.5327 v -4.2345 h 4.1157 v 3.9179 q 0,3.245 -1.6621,5.0259 -1.6225,1.7808 -4.7488,1.7808 z"
             inkscape:connector-curvature="0" />
          <path
             id="path1174"
             style="font-style:normal;font-variant:normal;font-weight:bold;font-stretch:normal;font-family:'Bebas Neue';-inkscape-font-specification:'Bebas Neue Bold';fill:#002c39;fill-opacity:1;stroke-width:2.28311539"
             d="m -6221.2504,2312.1962 h 4.3531 v 23.7443 h 7.1629 v 3.9574 h -11.516 z"
             inkscape:connector-curvature="0" />
          <path
             id="path1176"
             style="font-style:normal;font-variant:normal;font-weight:bold;font-stretch:normal;font-family:'Bebas Neue';-inkscape-font-specification:'Bebas Neue Bold';fill:#002c39;fill-opacity:1;stroke-width:2.28311539"
             d="m -6201.5092,2340.2937 q -3.2054,0 -4.9071,-1.8204 -1.7017,-1.8204 -1.7017,-5.1446 v -14.5633 q 0,-3.3242 1.7017,-5.1446 1.7017,-1.8204 4.9071,-1.8204 3.2055,0 4.9072,1.8204 1.7017,1.8204 1.7017,5.1446 v 14.5633 q 0,3.3242 -1.7017,5.1446 -1.7017,1.8204 -4.9072,1.8204 z m 0,-3.9574 q 2.2558,0 2.2558,-2.7306 v -15.1173 q 0,-2.7306 -2.2558,-2.7306 -2.2557,0 -2.2557,2.7306 v 15.1173 q 0,2.7306 2.2557,2.7306 z"
             inkscape:connector-curvature="0" />
          <path
             id="path1178"
             style="font-style:normal;font-variant:normal;font-weight:bold;font-stretch:normal;font-family:'Bebas Neue';-inkscape-font-specification:'Bebas Neue Bold';fill:#002c39;fill-opacity:1;stroke-width:2.28311539"
             d="m -6185.6245,2340.2937 q -3.1659,0 -4.828,-1.7808 -1.6622,-1.8204 -1.6622,-5.1842 v -21.1325 h 4.3532 v 21.4491 q 0,1.4246 0.554,2.0578 0.5936,0.6332 1.6621,0.6332 1.0685,0 1.6226,-0.6332 0.5936,-0.6332 0.5936,-2.0578 v -21.4491 h 4.1948 v 21.1325 q 0,3.3638 -1.6621,5.1842 -1.6621,1.7808 -4.828,1.7808 z"
             inkscape:connector-curvature="0" />
          <path
             id="path1180"
             style="font-style:normal;font-variant:normal;font-weight:bold;font-stretch:normal;font-family:'Bebas Neue';-inkscape-font-specification:'Bebas Neue Bold';fill:#002c39;fill-opacity:1;stroke-width:2.28311539"
             d="m -6176.034,2312.1962 h 6.6484 q 3.2451,0 4.8676,1.7412 1.6226,1.7413 1.6226,5.1051 v 14.0091 q 0,3.3638 -1.6226,5.1051 -1.6225,1.7412 -4.8676,1.7412 h -6.6484 z m 6.5693,23.7443 q 1.0685,0 1.6225,-0.6331 0.5936,-0.6332 0.5936,-2.0579 v -14.4049 q 0,-1.4247 -0.5936,-2.0579 -0.554,-0.6331 -1.6225,-0.6331 h -2.2162 v 19.7869 z"
             inkscape:connector-curvature="0" />
        </g>
      </g>
      <circle
         style="opacity:1;fill:#ffffff;fill-opacity:1;stroke:none;stroke-width:0.16470179;stroke-linecap:round;stroke-linejoin:round;stroke-miterlimit:4;stroke-dasharray:none;stroke-dashoffset:0;stroke-opacity:1"
         id="circle1186"
         cx="-472.38467"
         cy="100.44845"
         r="2.7235844" />
      <path
         sodipodi:type="star"
         style="opacity:1;fill:none;fill-opacity:1;stroke:#ffffff;stroke-width:0.21153355;stroke-linecap:round;stroke-linejoin:round;stroke-miterlimit:4;stroke-dasharray:none;stroke-dashoffset:0;stroke-opacity:1"
         id="path1188"
         sodipodi:sides="3"
         sodipodi:cx="-472.38467"
         sodipodi:cy="100.64474"
         sodipodi:r1="2.3842711"
         sodipodi:r2="1.1921355"
         sodipodi:arg1="0.52359878"
         sodipodi:arg2="1.5707963"
         inkscape:flatsided="true"
         inkscape:rounded="0"
         inkscape:randomized="0"
         d="m -470.31983,101.83687 -4.12968,0 2.06484,-3.576404 z"
         inkscape:transform-center-x="-2.8993047e-006"
         inkscape:transform-center-y="-0.97925472" />
      <text
         xml:space="preserve"
         style="font-style:normal;font-variant:normal;font-weight:bold;font-stretch:normal;font-size:0.58181739px;line-height:1.25;font-family:Raleway;-inkscape-font-specification:'Raleway Bold';letter-spacing:0px;word-spacing:0px;fill:#808080;fill-opacity:1;stroke:none;stroke-width:0.00971016"
         x="-484.94266"
         y="106.55499"
         id="text1198"><tspan
           sodipodi:role="line"
           id="tspan1196"
           x="-484.94266"
           y="106.55499"
           style="font-size:1.23472226px;fill:#808080;fill-opacity:1;stroke-width:0.00971016">App</tspan></text>
      <text
         id="text1202"
         y="105.94287"
         x="-475.5882"
         style="font-style:normal;font-variant:normal;font-weight:bold;font-stretch:normal;font-size:0.58181739px;line-height:1.25;font-family:Raleway;-inkscape-font-specification:'Raleway Bold';letter-spacing:0px;word-spacing:0px;fill:#808080;fill-opacity:1;stroke:none;stroke-width:0.00971016"
         xml:space="preserve"><tspan
           style="font-size:1.23472226px;fill:#808080;fill-opacity:1;stroke-width:0.00971016"
           y="105.94287"
           x="-475.5882"
           id="tspan1200"
           sodipodi:role="line">Unified API</tspan></text>
      <g
         transform="translate(2.2601721)"
         id="g1451">
        <text
           xml:space="preserve"
           style="font-style:normal;font-variant:normal;font-weight:bold;font-stretch:normal;font-size:0.58181739px;line-height:1.25;font-family:Raleway;-inkscape-font-specification:'Raleway Bold';letter-spacing:0px;word-spacing:0px;fill:#808080;fill-opacity:1;stroke:none;stroke-width:0.00971016"
           x="-430.17825"
           y="97.242233"
           id="text1194"><tspan
             sodipodi:role="line"
             id="tspan1192"
             x="-430.17825"
             y="97.242233"
             style="font-size:1.23472226px;fill:#808080;fill-opacity:1;stroke-width:0.00971016">Database</tspan></text>
        <g
           id="g1014"
           transform="translate(-120.92785,0.66817381)">
          <rect
             y="89.643677"
             x="-309.26535"
             height="4.0299511"
             width="5.7232208"
             id="rect1204"
             style="opacity:1;fill:#999999;fill-opacity:1;stroke:none;stroke-width:0.05988132;stroke-linecap:round;stroke-linejoin:round;stroke-miterlimit:4;stroke-dasharray:none;stroke-dashoffset:0;stroke-opacity:1" />
          <path
             inkscape:connector-curvature="0"
             id="path1206"
             d="m -306.91255,94.897412 c -1.11256,-0.08074 -2.02739,-0.421128 -2.22419,-0.827568 -0.0551,-0.113872 -0.0617,-0.176945 -0.0617,-0.592285 v -0.464874 l 0.21677,0.108893 c 0.60655,0.304656 1.42323,0.446113 2.57549,0.446113 1.14922,0 1.97115,-0.142551 2.57733,-0.447037 l 0.21861,-0.109817 -0.009,0.501474 -0.009,0.501473 -0.0868,0.122772 c -0.23033,0.325736 -0.86423,0.589418 -1.69741,0.70606 -0.32455,0.04542 -1.1923,0.07712 -1.49996,0.05479 z m -0.007,-1.694301 c -0.90375,-0.04506 -1.73341,-0.240828 -2.1264,-0.501719 l -0.15221,-0.10103 V 92.0799 c 0,-0.286233 0.005,-0.520443 0.0108,-0.520443 0.006,0 0.07,0.03307 0.14235,0.0735 0.31461,0.175793 0.94728,0.348382 1.55403,0.4239 0.40234,0.05006 1.82965,0.04931 2.19907,-0.0019 0.60938,-0.08327 1.22102,-0.252802 1.52511,-0.422732 0.0723,-0.04041 0.13638,-0.0735 0.14232,-0.0735 0.006,0 0.0108,0.234211 0.0108,0.520462 v 0.520443 l -0.15218,0.101031 c -0.5519,0.36637 -1.82056,0.568205 -3.15374,0.501718 z m -0.19033,-1.47082 c -0.67484,-0.05302 -1.33495,-0.201967 -1.74105,-0.392864 -0.36254,-0.170439 -0.34723,-0.13778 -0.34723,-0.739945 v -0.515974 l 0.15192,0.08542 c 0.77323,0.4348 2.65088,0.600807 4.08712,0.361393 0.39943,-0.06658 0.88748,-0.209546 1.12819,-0.330431 l 0.2173,-0.109157 v 0.512335 c 0,0.494799 -0.002,0.514333 -0.0651,0.57058 -0.24037,0.214958 -0.88082,0.417961 -1.62762,0.515937 -0.42347,0.05557 -1.35825,0.07769 -1.80354,0.04271 z m 0.13842,-1.447326 c -0.91137,-0.05497 -1.75249,-0.26289 -2.10951,-0.521461 -0.11095,-0.08036 -0.11719,-0.09287 -0.11719,-0.234681 0,-0.300847 0.19801,-0.534906 0.62211,-0.735401 0.61345,-0.290023 1.65429,-0.432838 2.65177,-0.363863 0.60089,0.04156 0.94538,0.10022 1.32412,0.225498 0.37537,0.124129 0.60867,0.247126 0.77455,0.408326 0.15531,0.150904 0.21198,0.276541 0.21198,0.469852 0,0.136668 -0.007,0.15047 -0.11718,0.230269 -0.36852,0.266887 -1.18026,0.462291 -2.17063,0.522517 -0.5156,0.03136 -0.53295,0.03134 -1.07002,-0.0019 z"
             style="fill:#ffffff;fill-opacity:1;stroke:#999999;stroke-width:0.13229002;stroke-miterlimit:4;stroke-dasharray:none;stroke-opacity:1" />
        </g>
      </g>
      <text
         xml:space="preserve"
         style="font-style:normal;font-variant:normal;font-weight:bold;font-stretch:normal;font-size:0.58181739px;line-height:1.25;font-family:Raleway;-inkscape-font-specification:'Raleway Bold';letter-spacing:0px;word-spacing:0px;fill:#808080;fill-opacity:1;stroke:none;stroke-width:0.00971016"
         x="-442.35611"
         y="92.676537"
         id="text1212"><tspan
           sodipodi:role="line"
           id="tspan1208"
           x="-442.35611"
           y="92.676537"
           style="font-size:1.23472226px;fill:#808080;fill-opacity:1;stroke-width:0.00971016">Realtime </tspan><tspan
           sodipodi:role="line"
           x="-442.35611"
           y="94.21994"
           style="font-size:1.23472226px;fill:#808080;fill-opacity:1;stroke-width:0.00971016"
           id="tspan1210">CRUD</tspan></text>
      <path
         style="fill:none;stroke:#999999;stroke-width:0.22172132px;stroke-linecap:butt;stroke-linejoin:miter;stroke-opacity:1"
         d="m -436.38489,93.001243 h 8.04404"
         id="path1214"
         inkscape:connector-curvature="0" />
      <path
         inkscape:connector-curvature="0"
         id="path1216"
         d="m -428.95954,92.315797 0.68548,0.68545 -0.68548,0.685479"
         style="fill:none;stroke:#999999;stroke-width:0.222;stroke-linecap:round;stroke-linejoin:round;stroke-miterlimit:4;stroke-dasharray:none;stroke-opacity:1" />
      <g
         id="g1458">
        <rect
           style="opacity:1;fill:#ffffff;fill-opacity:1;stroke:#ff6600;stroke-width:0.23712094;stroke-linecap:round;stroke-linejoin:round;stroke-miterlimit:4;stroke-dasharray:none;stroke-dashoffset:0;stroke-opacity:1"
           id="rect1218"
           width="10.006456"
           height="4.9734139"
           x="-430.07465"
           y="105.72922"
           ry="0.52396429" />
        <text
           xml:space="preserve"
           style="font-style:normal;font-variant:normal;font-weight:bold;font-stretch:normal;font-size:1.23472226px;line-height:1.25;font-family:Raleway;-inkscape-font-specification:'Raleway Bold';letter-spacing:0px;word-spacing:0px;fill:#4d4d4d;fill-opacity:1;stroke:none;stroke-width:0.00552724"
           x="-428.69345"
           y="107.87637"
           id="text1224"><tspan
             sodipodi:role="line"
             id="tspan1220"
             x="-428.69345"
             y="107.87637"
             style="font-size:1.23472226px;fill:#4d4d4d;fill-opacity:1;stroke-width:0.00552724">Your remote</tspan><tspan
             id="tspan1222"
             sodipodi:role="line"
             x="-428.69345"
             y="109.41978"
             style="font-size:1.23472226px;fill:#4d4d4d;fill-opacity:1;stroke-width:0.00552724">HTTP server</tspan></text>
      </g>
      <text
         id="text1232"
         y="106.56779"
         x="-442.35611"
         style="font-style:normal;font-variant:normal;font-weight:bold;font-stretch:normal;font-size:0.58181739px;line-height:1.25;font-family:Raleway;-inkscape-font-specification:'Raleway Bold';letter-spacing:0px;word-spacing:0px;fill:#ff6600;fill-opacity:1;stroke:none;stroke-width:0.00971016"
         xml:space="preserve"><tspan
           style="font-size:1.23472226px;fill:#ff6600;fill-opacity:1;stroke-width:0.00971016"
           y="106.56779"
           x="-442.35611"
           id="tspan1226"
           sodipodi:role="line">Custom </tspan><tspan
           style="font-size:1.23472226px;fill:#ff6600;fill-opacity:1;stroke-width:0.00971016"
           y="108.11119"
           x="-442.35611"
           sodipodi:role="line"
           id="tspan1228">business</tspan><tspan
           style="font-size:1.23472226px;fill:#ff6600;fill-opacity:1;stroke-width:0.00971016"
           y="109.65459"
           x="-442.35611"
           sodipodi:role="line"
           id="tspan1230">logic</tspan></text>
      <path
         inkscape:connector-curvature="0"
         id="path1234"
         d="m -436.38491,107.80805 h 5.90588"
         style="fill:none;stroke:#ff6600;stroke-width:0.22172132px;stroke-linecap:butt;stroke-linejoin:miter;stroke-opacity:1" />
      <path
         style="fill:none;stroke:#ff6600;stroke-width:0.222;stroke-linecap:round;stroke-linejoin:round;stroke-miterlimit:4;stroke-dasharray:none;stroke-opacity:1"
         d="m -431.16451,107.1226 0.68548,0.68545 -0.68548,0.68548"
         id="path1236"
         inkscape:connector-curvature="0" />
      <path
         sodipodi:nodetypes="cc"
         inkscape:connector-curvature="0"
         id="path1238"
         d="m -451.92063,99.81975 c 5.09257,-0.10278 3.6989,-6.653343 9.13716,-6.727354"
         style="fill:none;stroke:#999999;stroke-width:0.222;stroke-linecap:butt;stroke-linejoin:miter;stroke-miterlimit:4;stroke-dasharray:none;stroke-opacity:1" />
      <path
         style="fill:none;stroke:#999999;stroke-width:0.25057313px;stroke-linecap:butt;stroke-linejoin:miter;stroke-opacity:1"
         d="m -481.6473,100.44844 h 7.54291"
         id="path1242"
         inkscape:connector-curvature="0" />
      <path
         inkscape:connector-curvature="0"
         id="path1244"
         d="m -463.89864,99.76299 0.68548,0.68545 -0.68548,0.68548"
         style="fill:none;stroke:#999999;stroke-width:0.222;stroke-linecap:round;stroke-linejoin:round;stroke-miterlimit:4;stroke-dasharray:none;stroke-opacity:1" />
      <path
         inkscape:connector-curvature="0"
         id="path1246"
         d="m -470.72266,100.44844 h 7.5095"
         style="fill:none;stroke:#999999;stroke-width:0.25001758px;stroke-linecap:butt;stroke-linejoin:miter;stroke-opacity:1" />
      <path
         inkscape:connector-curvature="0"
         id="path1263"
         d="m -472.55171,102.71519 c -0.14683,-0.0647 -0.25642,-0.25405 -0.23585,-0.40746 l 0.0108,-0.0807 -0.472,-0.27341 -0.47199,-0.27341 -0.0728,0.0494 c -0.34464,0.23388 -0.76687,-0.12803 -0.59388,-0.50905 0.039,-0.0859 0.18686,-0.2162 0.2454,-0.2162 0.023,0 0.0283,-0.1024 0.0283,-0.5509 v -0.550915 l -0.0881,-0.0414 c -0.20382,-0.0957 -0.28524,-0.33636 -0.18434,-0.54479 0.10446,-0.2158 0.38846,-0.28701 0.59247,-0.14856 l 0.0727,0.0493 0.47223,-0.2727 0.47224,-0.27269 -0.0106,-0.0787 c -0.0207,-0.15421 0.0937,-0.35073 0.23966,-0.41171 0.0873,-0.0365 0.24069,-0.0363 0.32666,5.4e-4 0.14594,0.0625 0.25417,0.24313 0.24205,0.40409 l -0.007,0.0911 0.46918,0.27016 0.46918,0.27017 0.0728,-0.0494 c 0.27313,-0.18535 0.63468,0.005 0.63468,0.33454 0,0.1619 -0.1081,0.32584 -0.24457,0.37087 l -0.0699,0.0231 v 0.553985 c 0,0.45108 0.005,0.55398 0.0283,0.55398 0.0544,0 0.20154,0.12592 0.24368,0.20854 0.0886,0.17358 0.0298,0.41472 -0.12626,0.51798 -0.14207,0.094 -0.32844,0.092 -0.47148,-0.005 l -0.0784,-0.0532 -0.39024,0.22553 c -0.21463,0.12404 -0.42512,0.24488 -0.46776,0.26854 -0.0741,0.0411 -0.077,0.0469 -0.0657,0.12961 0.0221,0.16168 -0.089,0.35749 -0.23846,0.41993 -0.0854,0.0357 -0.24904,0.0352 -0.33122,-10e-4 z m 0.95274,-0.9186 c 0.24724,-0.14337 0.45324,-0.27177 0.45776,-0.28535 0.006,-0.0187 -0.29227,-0.0247 -1.24102,-0.0247 -0.68708,0 -1.24915,0.007 -1.24903,0.0157 2.4e-4,0.0159 0.88842,0.53433 0.93632,0.54648 0.0143,0.004 0.0544,-0.0144 0.0892,-0.0401 0.11956,-0.0884 0.38493,-0.0746 0.47476,0.0246 0.0208,0.023 0.0479,0.0379 0.0602,0.033 0.0123,-0.005 0.22459,-0.12622 0.47184,-0.26959 z m 0.51062,-0.60556 0.0586,-0.10624 -0.61422,-1.06687 -0.61421,-1.066875 -0.1258,1.7e-4 -0.1258,8e-5 -0.61679,1.070995 c -0.51394,0.89239 -0.6127,1.0767 -0.59218,1.10515 0.0136,0.0188 0.0405,0.0648 0.0598,0.10229 l 0.0352,0.0681 1.23837,-3.2e-4 1.23837,-3.1e-4 0.0586,-0.10624 z m -2.18988,-1.275855 c 0.33543,-0.58175 0.6056,-1.062 0.60038,-1.06722 -0.005,-0.005 -0.2218,0.11224 -0.48129,0.26101 l -0.4718,0.27049 -2.4e-4,0.10871 c -1.6e-4,0.0598 -0.0103,0.13526 -0.0225,0.16773 -0.0289,0.0767 -0.13489,0.18583 -0.21114,0.21741 l -0.0602,0.0249 v 0.557255 c 0,0.32206 0.008,0.54885 0.0185,0.53734 0.0101,-0.011 0.2929,-0.49589 0.62832,-1.077635 z m 2.43529,0.536105 v -0.553065 l -0.0602,-0.025 c -0.0775,-0.0321 -0.1822,-0.14092 -0.21294,-0.22128 -0.0132,-0.0346 -0.0238,-0.11007 -0.0236,-0.16774 l 4.7e-4,-0.10482 -0.44638,-0.25632 c -0.45357,-0.26044 -0.53085,-0.30066 -0.51147,-0.26617 0.17837,0.3176 1.23982,2.147375 1.24569,2.147375 0.004,0 0.008,-0.24888 0.008,-0.55307 z"
         style="fill:#e535ab;fill-opacity:1;stroke-width:0.02096637" />
    </g>
  </g>
</svg>
