<?xml version="1.0" encoding="UTF-8" standalone="no"?>
<svg
   xmlns:dc="http://purl.org/dc/elements/1.1/"
   xmlns:cc="http://creativecommons.org/ns#"
   xmlns:rdf="http://www.w3.org/1999/02/22-rdf-syntax-ns#"
   xmlns:svg="http://www.w3.org/2000/svg"
   xmlns="http://www.w3.org/2000/svg"
   id="svg1393"
   version="1.1"
   viewBox="0 0 66.069557 21.806965"
   height="21.806965mm"
   width="66.069557mm">
  <defs
     id="defs1387">
    <clipPath
       id="clipPath3688-9"
       clipPathUnits="userSpaceOnUse">
      <circle
         r="872.52167"
         cy="150.93735"
         cx="-1450.7196"
         id="circle3690-8"
         style="opacity:1;fill:#ff6600;fill-opacity:1;stroke-width:2.46786404" />
    </clipPath>
  </defs>
  <metadata
     id="metadata1390">
    <rdf:RDF>
      <cc:Work
         rdf:about="">
        <dc:format>image/svg+xml</dc:format>
        <dc:type
           rdf:resource="http://purl.org/dc/dcmitype/StillImage" />
        <dc:title></dc:title>
      </cc:Work>
    </rdf:RDF>
  </metadata>
  <g
     transform="translate(32.278829,-198.40604)"
     id="layer1">
    <g
       transform="translate(453.74036,109.39181)"
       id="g1517">
      <rect
         ry="0.55486655"
         y="96.348389"
         x="-485.91919"
         height="8.2001066"
         width="4.3158455"
         id="rect1140"
         style="opacity:1;fill:#ffffff;fill-opacity:1;stroke:#999999;stroke-width:0.2;stroke-linecap:round;stroke-linejoin:round;stroke-miterlimit:4;stroke-dasharray:none;stroke-dashoffset:0;stroke-opacity:1" />
      <rect
         style="opacity:1;fill:#ffffff;fill-opacity:1;stroke:#999999;stroke-width:0.2;stroke-linecap:round;stroke-linejoin:round;stroke-miterlimit:4;stroke-dasharray:none;stroke-dashoffset:0;stroke-opacity:1"
         id="rect1142"
         width="3.5703812"
         height="6.0537262"
         x="-485.54645"
         y="97.238121"
         ry="0" />
      <circle
         r="0.32092482"
         cy="103.89947"
         cx="-483.76126"
         id="circle1144"
         style="opacity:1;fill:#999999;fill-opacity:1;stroke:none;stroke-width:0.22386932;stroke-linecap:round;stroke-linejoin:round;stroke-miterlimit:4;stroke-dasharray:none;stroke-dashoffset:0;stroke-opacity:1" />
      <rect
         ry="0.12751386"
         y="96.6819"
         x="-484.4184"
         height="0.25502771"
         width="1.314371"
         id="rect1146"
         style="opacity:1;fill:#999999;fill-opacity:1;stroke:none;stroke-width:0.07857718;stroke-linecap:round;stroke-linejoin:round;stroke-miterlimit:4;stroke-dasharray:none;stroke-dashoffset:0;stroke-opacity:1" />
      <path
         id="path1240"
         d="m -451.92063,101.07713 c 5.09257,0.10278 3.6989,6.65334 9.13716,6.72736"
         style="fill:none;stroke:#1d66ff;stroke-width:0.222;stroke-linecap:butt;stroke-linejoin:miter;stroke-miterlimit:4;stroke-dasharray:none;stroke-opacity:1" />
      <rect
         ry="0.54223162"
         y="97.875038"
         x="-463.159"
         height="5.1468053"
         width="11.225049"
         id="rect1148"
         style="opacity:1;fill:#ffffff;fill-opacity:1;stroke:#999999;stroke-width:0.2;stroke-linecap:round;stroke-linejoin:round;stroke-miterlimit:4;stroke-dasharray:none;stroke-dashoffset:0;stroke-opacity:1" />
      <circle
         r="2.7235844"
         cy="100.44845"
         cx="-472.38467"
         id="circle1186"
         style="opacity:1;fill:#ffffff;fill-opacity:1;stroke:none;stroke-width:0.16470179;stroke-linecap:round;stroke-linejoin:round;stroke-miterlimit:4;stroke-dasharray:none;stroke-dashoffset:0;stroke-opacity:1" />
      <path
         d="m -470.31983,101.83687 -4.12968,0 2.06484,-3.576404 z"
         id="path1188"
         style="opacity:1;fill:none;fill-opacity:1;stroke:#ffffff;stroke-width:0.21153355;stroke-linecap:round;stroke-linejoin:round;stroke-miterlimit:4;stroke-dasharray:none;stroke-dashoffset:0;stroke-opacity:1" />
      <text
         id="text1198"
         y="106.55499"
         x="-484.94266"
         style="font-style:normal;font-variant:normal;font-weight:bold;font-stretch:normal;font-size:0.581817px;line-height:1.25;font-family:Raleway;-inkscape-font-specification:'Raleway Bold';letter-spacing:0px;word-spacing:0px;fill:#808080;fill-opacity:1;stroke:none;stroke-width:0.00971016"
         xml:space="preserve"><tspan
           style="font-size:1.23472px;fill:#808080;fill-opacity:1;stroke-width:0.00971016"
           y="106.55499"
           x="-484.94266"
           id="tspan1196">App</tspan></text>
      <text
         xml:space="preserve"
         style="font-style:normal;font-variant:normal;font-weight:bold;font-stretch:normal;font-size:0.581817px;line-height:1.25;font-family:Raleway;-inkscape-font-specification:'Raleway Bold';letter-spacing:0px;word-spacing:0px;fill:#808080;fill-opacity:1;stroke:none;stroke-width:0.00971016"
         x="-475.5882"
         y="105.94287"
         id="text1202"><tspan
           id="tspan1200"
           x="-475.5882"
           y="105.94287"
           style="font-size:1.23472px;fill:#808080;fill-opacity:1;stroke-width:0.00971016">Unified API</tspan></text>
      <g
         id="g1451"
         transform="translate(2.2601721)">
        <text
           id="text1194"
           y="97.242233"
           x="-430.17825"
           style="font-style:normal;font-variant:normal;font-weight:bold;font-stretch:normal;font-size:0.581817px;line-height:1.25;font-family:Raleway;-inkscape-font-specification:'Raleway Bold';letter-spacing:0px;word-spacing:0px;fill:#808080;fill-opacity:1;stroke:none;stroke-width:0.00971016"
           xml:space="preserve"><tspan
             style="font-size:1.23472px;fill:#808080;fill-opacity:1;stroke-width:0.00971016"
             y="97.242233"
             x="-430.17825"
             id="tspan1192">Database</tspan></text>
        <g
           transform="translate(-120.92785,0.66817381)"
           id="g1014">
          <rect
             style="opacity:1;fill:#999999;fill-opacity:1;stroke:none;stroke-width:0.05988132;stroke-linecap:round;stroke-linejoin:round;stroke-miterlimit:4;stroke-dasharray:none;stroke-dashoffset:0;stroke-opacity:1"
             id="rect1204"
             width="5.7232208"
             height="4.0299511"
             x="-309.26535"
             y="89.643677" />
          <path
             style="fill:#ffffff;fill-opacity:1;stroke:#999999;stroke-width:0.13229002;stroke-miterlimit:4;stroke-dasharray:none;stroke-opacity:1"
             d="m -306.91255,94.897412 c -1.11256,-0.08074 -2.02739,-0.421128 -2.22419,-0.827568 -0.0551,-0.113872 -0.0617,-0.176945 -0.0617,-0.592285 v -0.464874 l 0.21677,0.108893 c 0.60655,0.304656 1.42323,0.446113 2.57549,0.446113 1.14922,0 1.97115,-0.142551 2.57733,-0.447037 l 0.21861,-0.109817 -0.009,0.501474 -0.009,0.501473 -0.0868,0.122772 c -0.23033,0.325736 -0.86423,0.589418 -1.69741,0.70606 -0.32455,0.04542 -1.1923,0.07712 -1.49996,0.05479 z m -0.007,-1.694301 c -0.90375,-0.04506 -1.73341,-0.240828 -2.1264,-0.501719 l -0.15221,-0.10103 V 92.0799 c 0,-0.286233 0.005,-0.520443 0.0108,-0.520443 0.006,0 0.07,0.03307 0.14235,0.0735 0.31461,0.175793 0.94728,0.348382 1.55403,0.4239 0.40234,0.05006 1.82965,0.04931 2.19907,-0.0019 0.60938,-0.08327 1.22102,-0.252802 1.52511,-0.422732 0.0723,-0.04041 0.13638,-0.0735 0.14232,-0.0735 0.006,0 0.0108,0.234211 0.0108,0.520462 v 0.520443 l -0.15218,0.101031 c -0.5519,0.36637 -1.82056,0.568205 -3.15374,0.501718 z m -0.19033,-1.47082 c -0.67484,-0.05302 -1.33495,-0.201967 -1.74105,-0.392864 -0.36254,-0.170439 -0.34723,-0.13778 -0.34723,-0.739945 v -0.515974 l 0.15192,0.08542 c 0.77323,0.4348 2.65088,0.600807 4.08712,0.361393 0.39943,-0.06658 0.88748,-0.209546 1.12819,-0.330431 l 0.2173,-0.109157 v 0.512335 c 0,0.494799 -0.002,0.514333 -0.0651,0.57058 -0.24037,0.214958 -0.88082,0.417961 -1.62762,0.515937 -0.42347,0.05557 -1.35825,0.07769 -1.80354,0.04271 z m 0.13842,-1.447326 c -0.91137,-0.05497 -1.75249,-0.26289 -2.10951,-0.521461 -0.11095,-0.08036 -0.11719,-0.09287 -0.11719,-0.234681 0,-0.300847 0.19801,-0.534906 0.62211,-0.735401 0.61345,-0.290023 1.65429,-0.432838 2.65177,-0.363863 0.60089,0.04156 0.94538,0.10022 1.32412,0.225498 0.37537,0.124129 0.60867,0.247126 0.77455,0.408326 0.15531,0.150904 0.21198,0.276541 0.21198,0.469852 0,0.136668 -0.007,0.15047 -0.11718,0.230269 -0.36852,0.266887 -1.18026,0.462291 -2.17063,0.522517 -0.5156,0.03136 -0.53295,0.03134 -1.07002,-0.0019 z"
             id="path1206" />
        </g>
      </g>
      <text
         id="text1212"
         y="92.676537"
         x="-442.35611"
         style="font-style:normal;font-variant:normal;font-weight:bold;font-stretch:normal;font-size:0.581817px;line-height:1.25;font-family:Raleway;-inkscape-font-specification:'Raleway Bold';letter-spacing:0px;word-spacing:0px;fill:#808080;fill-opacity:1;stroke:none;stroke-width:0.00971016"
         xml:space="preserve"><tspan
           style="font-size:1.23472px;fill:#808080;fill-opacity:1;stroke-width:0.00971016"
           y="92.676537"
           x="-442.35611"
           id="tspan1208">Realtime </tspan><tspan
           id="tspan1210"
           style="font-size:1.23472px;fill:#808080;fill-opacity:1;stroke-width:0.00971016"
           y="94.21994"
           x="-442.35611">CRUD</tspan></text>
      <path
         id="path1214"
         d="m -436.38489,93.001243 h 8.04404"
         style="fill:none;stroke:#999999;stroke-width:0.22172132px;stroke-linecap:butt;stroke-linejoin:miter;stroke-opacity:1" />
      <path
         style="fill:none;stroke:#999999;stroke-width:0.222;stroke-linecap:round;stroke-linejoin:round;stroke-miterlimit:4;stroke-dasharray:none;stroke-opacity:1"
         d="m -428.95954,92.315797 0.68548,0.68545 -0.68548,0.685479"
         id="path1216" />
      <g
         id="g1458">
        <rect
           ry="0.52396429"
           y="105.72922"
           x="-430.07465"
           height="4.9734139"
           width="10.006456"
           id="rect1218"
           style="opacity:1;fill:#ffffff;fill-opacity:1;stroke:#1d66ff;stroke-width:0.23712094;stroke-linecap:round;stroke-linejoin:round;stroke-miterlimit:4;stroke-dasharray:none;stroke-dashoffset:0;stroke-opacity:1" />
        <text
           id="text1224"
           y="107.87637"
           x="-428.69345"
           style="font-style:normal;font-variant:normal;font-weight:bold;font-stretch:normal;font-size:1.23472px;line-height:1.25;font-family:Raleway;-inkscape-font-specification:'Raleway Bold';letter-spacing:0px;word-spacing:0px;fill:#4d4d4d;fill-opacity:1;stroke:none;stroke-width:0.00552724"
           xml:space="preserve"><tspan
             style="font-size:1.23472px;fill:#4d4d4d;fill-opacity:1;stroke-width:0.00552724"
             y="107.87637"
             x="-428.69345"
             id="tspan1220">Your remote</tspan><tspan
             style="font-size:1.23472px;fill:#4d4d4d;fill-opacity:1;stroke-width:0.00552724"
             y="109.41978"
             x="-428.69345"
             id="tspan1222">HTTP server</tspan></text>
      </g>
      <text
         xml:space="preserve"
         style="font-style:normal;font-variant:normal;font-weight:bold;font-stretch:normal;font-size:0.581817px;line-height:1.25;font-family:Raleway;-inkscape-font-specification:'Raleway Bold';letter-spacing:0px;word-spacing:0px;fill:#1d66ff;fill-opacity:1;stroke:none;stroke-width:0.00971016;"
         x="-442.35611"
         y="106.56779"
         id="text1232"><tspan
           id="tspan1226"
           x="-442.35611"
           y="106.56779"
           style="font-size:1.23472px;fill:#1d66ff;fill-opacity:1;stroke-width:0.00971016;">Custom </tspan><tspan
           id="tspan1228"
           x="-442.35611"
           y="108.11119"
           style="font-size:1.23472px;fill:#1d66ff;fill-opacity:1;stroke-width:0.00971016;">business</tspan><tspan
           id="tspan1230"
           x="-442.35611"
           y="109.65459"
           style="font-size:1.23472px;fill:#1d66ff;fill-opacity:1;stroke-width:0.00971016;">logic</tspan></text>
      <path
         style="fill:none;stroke:#1d66ff;stroke-width:0.22172132px;stroke-linecap:butt;stroke-linejoin:miter;stroke-opacity:1"
         d="m -436.38491,107.80805 h 5.90588"
         id="path1234" />
      <path
         id="path1236"
         d="m -431.16451,107.1226 0.68548,0.68545 -0.68548,0.68548"
         style="fill:none;stroke:#1d66ff;stroke-width:0.222;stroke-linecap:round;stroke-linejoin:round;stroke-miterlimit:4;stroke-dasharray:none;stroke-opacity:1" />
      <path
         style="fill:none;stroke:#999999;stroke-width:0.222;stroke-linecap:butt;stroke-linejoin:miter;stroke-miterlimit:4;stroke-dasharray:none;stroke-opacity:1"
         d="m -451.92063,99.81975 c 5.09257,-0.10278 3.6989,-6.653343 9.13716,-6.727354"
         id="path1238" />
      <path
         id="path1242"
         d="m -481.6473,100.44844 h 7.54291"
         style="fill:none;stroke:#999999;stroke-width:0.25057313px;stroke-linecap:butt;stroke-linejoin:miter;stroke-opacity:1" />
      <path
         style="fill:none;stroke:#999999;stroke-width:0.222;stroke-linecap:round;stroke-linejoin:round;stroke-miterlimit:4;stroke-dasharray:none;stroke-opacity:1"
         d="m -463.89864,99.76299 0.68548,0.68545 -0.68548,0.68548"
         id="path1244" />
      <path
         style="fill:none;stroke:#999999;stroke-width:0.25001758px;stroke-linecap:butt;stroke-linejoin:miter;stroke-opacity:1"
         d="m -470.72266,100.44844 h 7.5095"
         id="path1246" />
      <path
         style="fill:#e535ab;fill-opacity:1;stroke-width:0.02096637"
         d="m -472.55171,102.71519 c -0.14683,-0.0647 -0.25642,-0.25405 -0.23585,-0.40746 l 0.0108,-0.0807 -0.472,-0.27341 -0.47199,-0.27341 -0.0728,0.0494 c -0.34464,0.23388 -0.76687,-0.12803 -0.59388,-0.50905 0.039,-0.0859 0.18686,-0.2162 0.2454,-0.2162 0.023,0 0.0283,-0.1024 0.0283,-0.5509 v -0.550915 l -0.0881,-0.0414 c -0.20382,-0.0957 -0.28524,-0.33636 -0.18434,-0.54479 0.10446,-0.2158 0.38846,-0.28701 0.59247,-0.14856 l 0.0727,0.0493 0.47223,-0.2727 0.47224,-0.27269 -0.0106,-0.0787 c -0.0207,-0.15421 0.0937,-0.35073 0.23966,-0.41171 0.0873,-0.0365 0.24069,-0.0363 0.32666,5.4e-4 0.14594,0.0625 0.25417,0.24313 0.24205,0.40409 l -0.007,0.0911 0.46918,0.27016 0.46918,0.27017 0.0728,-0.0494 c 0.27313,-0.18535 0.63468,0.005 0.63468,0.33454 0,0.1619 -0.1081,0.32584 -0.24457,0.37087 l -0.0699,0.0231 v 0.553985 c 0,0.45108 0.005,0.55398 0.0283,0.55398 0.0544,0 0.20154,0.12592 0.24368,0.20854 0.0886,0.17358 0.0298,0.41472 -0.12626,0.51798 -0.14207,0.094 -0.32844,0.092 -0.47148,-0.005 l -0.0784,-0.0532 -0.39024,0.22553 c -0.21463,0.12404 -0.42512,0.24488 -0.46776,0.26854 -0.0741,0.0411 -0.077,0.0469 -0.0657,0.12961 0.0221,0.16168 -0.089,0.35749 -0.23846,0.41993 -0.0854,0.0357 -0.24904,0.0352 -0.33122,-10e-4 z m 0.95274,-0.9186 c 0.24724,-0.14337 0.45324,-0.27177 0.45776,-0.28535 0.006,-0.0187 -0.29227,-0.0247 -1.24102,-0.0247 -0.68708,0 -1.24915,0.007 -1.24903,0.0157 2.4e-4,0.0159 0.88842,0.53433 0.93632,0.54648 0.0143,0.004 0.0544,-0.0144 0.0892,-0.0401 0.11956,-0.0884 0.38493,-0.0746 0.47476,0.0246 0.0208,0.023 0.0479,0.0379 0.0602,0.033 0.0123,-0.005 0.22459,-0.12622 0.47184,-0.26959 z m 0.51062,-0.60556 0.0586,-0.10624 -0.61422,-1.06687 -0.61421,-1.066875 -0.1258,1.7e-4 -0.1258,8e-5 -0.61679,1.070995 c -0.51394,0.89239 -0.6127,1.0767 -0.59218,1.10515 0.0136,0.0188 0.0405,0.0648 0.0598,0.10229 l 0.0352,0.0681 1.23837,-3.2e-4 1.23837,-3.1e-4 0.0586,-0.10624 z m -2.18988,-1.275855 c 0.33543,-0.58175 0.6056,-1.062 0.60038,-1.06722 -0.005,-0.005 -0.2218,0.11224 -0.48129,0.26101 l -0.4718,0.27049 -2.4e-4,0.10871 c -1.6e-4,0.0598 -0.0103,0.13526 -0.0225,0.16773 -0.0289,0.0767 -0.13489,0.18583 -0.21114,0.21741 l -0.0602,0.0249 v 0.557255 c 0,0.32206 0.008,0.54885 0.0185,0.53734 0.0101,-0.011 0.2929,-0.49589 0.62832,-1.077635 z m 2.43529,0.536105 v -0.553065 l -0.0602,-0.025 c -0.0775,-0.0321 -0.1822,-0.14092 -0.21294,-0.22128 -0.0132,-0.0346 -0.0238,-0.11007 -0.0236,-0.16774 l 4.7e-4,-0.10482 -0.44638,-0.25632 c -0.45357,-0.26044 -0.53085,-0.30066 -0.51147,-0.26617 0.17837,0.3176 1.23982,2.147375 1.24569,2.147375 0.004,0 0.008,-0.24888 0.008,-0.55307 z"
         id="path1263" />
      <g
         transform="matrix(0.00288116,0,0,0.00288116,-462.54647,99.339194)"
         id="g6340"
         style="fill:none">
        <circle
           cx="385"
           cy="385"
           r="385"
           fill="#1d66ff"
           id="circle6314" />
        <path
           fill-rule="evenodd"
           clip-rule="evenodd"
           d="M 604,332.364 C 604,367.509 575.51,396 540.363,396 H 517 v 70 h 23.363 C 575.51,466 604,494.491 604,529.636 604,533.151 601.15,536 597.637,536 H 513 404 c -5.523,0 -10,-4.477 -10,-10 v -56 -78 -56 c 0,-5.523 4.477,-10 10,-10 h 109 84.637 c 3.513,0 6.363,2.849 6.363,6.364 z"
           fill="#ffffff"
           id="path6316" />
        <path
           fill-rule="evenodd"
           clip-rule="evenodd"
           d="m 367.637,326 c 3.513,0 6.363,2.849 6.363,6.364 V 470 532 c 0,2.209 -1.791,4 -4,4 H 308 170.363 C 166.85,536 164,533.151 164,529.636 164,494.491 192.49,466 227.637,466 H 231 c 40.316,0 73,-32.683 73,-73 v -3.364 C 304,354.491 332.49,326 367.637,326 Z"
           fill="#ffffff"
           id="path6318" />
        <path
           fill-rule="evenodd"
           clip-rule="evenodd"
           d="M 425,240.364 C 425,275.509 396.51,304 361.363,304 H 358 c -40.297,0 -72.969,32.651 -73,72.941 v 3.423 C 285,415.509 256.51,444 221.363,444 217.85,444 215,441.151 215,437.636 V 300 244 c 0,-5.523 4.477,-10 10,-10 h 56 137.637 c 3.513,0 6.363,2.849 6.363,6.364 z"
           fill="#ffffff"
           id="path6320" />
        <path
           d="m 467,431 c 0,-19.33 15.67,-35 35,-35 h 36 v 70 h -36 c -19.33,0 -35,-15.67 -35,-35 z"
           fill="#1d66ff"
           id="path6322" />
        <path
           d="m 1154.46,455.064 c 0,-12.451 -4.4,-21.972 -13.19,-28.564 -8.78,-6.738 -24.6,-13.77 -47.46,-21.094 -22.85,-7.47 -40.94,-14.795 -54.27,-21.972 -36.33,-19.629 -54.491,-46.07 -54.491,-79.322 0,-17.285 4.834,-32.666 14.502,-46.142 9.819,-13.623 23.799,-24.243 41.969,-31.861 18.31,-7.617 38.82,-11.425 61.52,-11.425 22.85,0 43.21,4.174 61.09,12.524 17.87,8.203 31.71,19.849 41.52,34.937 9.97,15.087 14.95,32.226 14.95,51.416 h -65.92 c 0,-14.649 -4.62,-26.001 -13.85,-34.058 -9.22,-8.203 -22.19,-12.305 -38.89,-12.305 -16.11,0 -28.63,3.443 -37.57,10.327 -8.94,6.739 -13.4,15.674 -13.4,26.807 0,10.4 5.2,19.116 15.6,26.147 10.54,7.032 26,13.624 46.36,19.776 37.5,11.279 64.82,25.268 81.96,41.968 17.14,16.699 25.71,37.5 25.71,62.402 0,27.686 -10.48,49.438 -31.43,65.259 -20.94,15.674 -49.14,23.511 -84.59,23.511 -24.61,0 -47.02,-4.468 -67.24,-13.404 -20.21,-9.082 -35.67,-21.46 -46.359,-37.134 -10.546,-15.673 -15.82,-33.837 -15.82,-54.492 h 66.139 c 0,35.303 21.09,52.954 63.28,52.954 15.67,0 27.91,-3.149 36.69,-9.448 8.79,-6.445 13.19,-15.381 13.19,-26.807 z m 320.8,-32.739 c 0,36.621 -8.35,65.991 -25.05,88.111 -16.55,21.972 -38.96,32.959 -67.24,32.959 -24.02,0 -43.43,-8.35 -58.22,-25.049 v 112.06 h -63.5 v -329.15 h 58.88 l 2.2,23.291 c 15.38,-18.457 35.45,-27.686 60.2,-27.686 29.3,0 52.08,10.84 68.34,32.52 16.26,21.68 24.39,51.562 24.39,89.648 z m -63.5,-4.614 c 0,-22.119 -3.96,-39.185 -11.87,-51.196 -7.76,-12.012 -19.11,-18.018 -34.06,-18.018 -19.92,0 -33.61,7.617 -41.08,22.852 v 97.339 c 7.76,15.673 21.6,23.51 41.52,23.51 30.33,0 45.49,-24.829 45.49,-74.487 z M 1652.58,539 c -2.93,-5.713 -5.06,-12.817 -6.37,-21.313 -15.38,17.138 -35.38,25.708 -59.99,25.708 -23.29,0 -42.63,-6.739 -58.01,-20.215 -15.23,-13.477 -22.85,-30.469 -22.85,-50.977 0,-25.195 9.3,-44.531 27.91,-58.008 18.75,-13.476 45.77,-20.288 81.08,-20.434 h 29.22 v -13.623 c 0,-10.987 -2.86,-19.776 -8.57,-26.367 -5.57,-6.592 -14.43,-9.888 -26.59,-9.888 -10.69,0 -19.11,2.563 -25.27,7.69 -6,5.127 -9,12.158 -9,21.094 h -63.51 c 0,-13.77 4.25,-26.514 12.75,-38.232 8.5,-11.719 20.51,-20.874 36.03,-27.466 15.53,-6.739 32.96,-10.108 52.3,-10.108 29.3,0 52.51,7.398 69.65,22.193 17.29,14.648 25.93,35.302 25.93,61.963 v 103.051 c 0.15,22.559 3.3,39.624 9.45,51.197 V 539 Z m -52.52,-44.165 c 9.38,0 18.02,-2.051 25.93,-6.152 7.91,-4.248 13.77,-9.888 17.58,-16.919 v -40.869 h -23.73 c -31.79,0 -48.71,10.986 -50.76,32.959 l -0.22,3.735 c 0,7.91 2.79,14.429 8.35,19.556 5.57,5.126 13.19,7.69 22.85,7.69 z m 254.89,-2.637 c 11.72,0 21.24,-3.222 28.56,-9.668 7.32,-6.445 11.13,-15.014 11.43,-25.708 h 59.54 c -0.14,16.114 -4.54,30.908 -13.18,44.385 -8.64,13.33 -20.51,23.731 -35.6,31.201 -14.94,7.324 -31.49,10.987 -49.66,10.987 -33.98,0 -60.79,-10.767 -80.42,-32.3 -19.62,-21.68 -29.44,-51.563 -29.44,-89.649 v -4.175 c 0,-36.621 9.74,-65.844 29.23,-87.67 19.48,-21.827 46.21,-32.74 80.2,-32.74 29.73,0 53.54,8.496 71.41,25.489 18.01,16.845 27.17,39.331 27.46,67.456 h -59.54 c -0.3,-12.305 -4.11,-22.266 -11.43,-29.883 -7.32,-7.764 -16.99,-11.646 -29,-11.646 -14.8,0 -26,5.42 -33.62,16.26 -7.47,10.693 -11.21,28.125 -11.21,52.295 v 6.592 c 0,24.463 3.74,42.041 11.21,52.734 7.47,10.694 18.82,16.04 34.06,16.04 z m 245.21,51.197 c -34.86,0 -63.28,-10.694 -85.25,-32.081 -21.83,-21.386 -32.74,-49.877 -32.74,-85.473 v -6.153 c 0,-23.876 4.61,-45.19 13.84,-63.94 9.23,-18.896 22.27,-33.398 39.11,-43.506 16.99,-10.254 36.33,-15.381 58.01,-15.381 32.52,0 58.08,10.254 76.68,30.762 18.75,20.508 28.13,49.585 28.13,87.231 v 25.928 h -151.39 c 2.05,15.528 8.2,27.979 18.45,37.354 10.41,9.375 23.52,14.062 39.34,14.062 24.46,0 43.58,-8.862 57.34,-26.587 l 31.21,34.937 c -9.53,13.476 -22.42,24.023 -38.68,31.64 -16.26,7.471 -34.27,11.207 -54.05,11.207 z m -7.25,-195.118 c -12.6,0 -22.85,4.248 -30.76,12.744 -7.77,8.497 -12.75,20.655 -14.94,36.475 h 88.33 v -5.054 c -0.3,-14.062 -4.1,-24.902 -11.43,-32.519 -7.32,-7.764 -17.72,-11.646 -31.2,-11.646 z m 508.67,84.156 c -2.49,34.423 -15.24,61.523 -38.24,81.298 -22.85,19.776 -53.02,29.664 -90.52,29.664 -41.02,0 -73.32,-13.77 -96.9,-41.309 -23.44,-27.686 -35.16,-65.625 -35.16,-113.818 v -19.556 c 0,-30.762 5.42,-57.861 16.26,-81.299 10.84,-23.437 26.3,-41.382 46.36,-53.833 20.22,-12.598 43.66,-18.896 70.32,-18.896 36.91,0 66.65,9.887 89.21,29.663 22.55,19.775 35.59,47.534 39.11,83.276 h -65.92 c -1.61,-20.654 -7.4,-35.596 -17.36,-44.824 -9.81,-9.375 -24.83,-14.063 -45.04,-14.063 -21.98,0 -38.46,7.91 -49.44,23.731 -10.84,15.674 -16.41,40.063 -16.7,73.169 v 24.17 c 0,34.57 5.2,59.839 15.6,75.805 10.55,15.967 27.1,23.951 49.66,23.951 20.36,0 35.52,-4.615 45.48,-13.843 10.11,-9.375 15.89,-23.804 17.36,-43.286 z M 2707.71,539 h -63.73 V 201.5 h 63.73 z m 42.62,-121.069 c 0,-23.584 4.54,-44.605 13.63,-63.062 9.08,-18.457 22.11,-32.739 39.11,-42.847 17.14,-10.107 36.98,-15.161 59.54,-15.161 32.08,0 58.23,9.815 78.44,29.444 20.37,19.629 31.72,46.289 34.06,79.98 l 0.44,16.26 c 0,36.475 -10.18,65.771 -30.54,87.891 -20.36,21.972 -47.68,32.959 -81.96,32.959 -34.28,0 -61.67,-10.987 -82.18,-32.959 -20.36,-21.973 -30.54,-51.856 -30.54,-89.649 z m 63.5,4.614 c 0,22.559 4.25,39.844 12.75,51.855 8.49,11.866 20.65,17.798 36.47,17.798 15.38,0 27.39,-5.859 36.04,-17.578 8.64,-11.865 12.96,-30.762 12.96,-56.689 0,-22.119 -4.32,-39.258 -12.96,-51.416 -8.65,-12.159 -20.8,-18.238 -36.48,-18.238 -15.53,0 -27.54,6.079 -36.03,18.238 -8.5,12.011 -12.75,30.688 -12.75,56.03 z m 343.22,92.285 c -15.68,19.043 -37.36,28.565 -65.04,28.565 -25.49,0 -44.97,-7.325 -58.45,-21.973 -13.33,-14.649 -20.14,-36.109 -20.44,-64.38 V 301.256 h 63.51 v 153.589 c 0,24.756 11.28,37.134 33.83,37.134 21.54,0 36.33,-7.471 44.39,-22.413 v -168.31 h 63.72 V 539 h -59.77 z m 99.53,-96.46 c 0,-37.06 8.28,-66.577 24.83,-88.55 16.7,-21.972 39.48,-32.959 68.34,-32.959 23.14,0 42.26,8.643 57.34,25.928 V 201.5 h 63.73 V 539 h -57.35 l -3.08,-25.269 c -15.82,19.776 -36.18,29.664 -61.08,29.664 -27.98,0 -50.47,-10.987 -67.46,-32.959 -16.85,-22.12 -25.27,-52.808 -25.27,-92.066 z m 63.5,4.614 c 0,22.266 3.88,39.331 11.65,51.197 7.76,11.865 19.04,17.798 33.84,17.798 19.63,0 33.47,-8.277 41.52,-24.83 v -93.823 c -7.91,-16.553 -21.6,-24.829 -41.08,-24.829 -30.62,0 -45.93,24.829 -45.93,74.487 z"
           fill="#1d66ff"
           id="path6324" />
      </g>
    </g>
  </g>
</svg>
