<svg width="64" height="64" viewBox="0 0 64 64" fill="none" xmlns="http://www.w3.org/2000/svg">
<g clip-path="url(#clip0)">
<path d="M63.0625 56.1128H58.9899V21.9798C58.9899 19.8053 57.2209 18.0363 55.0464 18.0363H43.0226C42.5049 18.0363 42.0851 18.456 42.0851 18.9738C42.0851 19.4915 42.5049 19.9113 43.0226 19.9113H55.0464C56.187 19.9113 57.1149 20.8393 57.1149 21.9798V56.1129H53.906C53.9544 55.7589 53.9798 55.4026 53.9798 55.0464C53.9798 50.6619 50.4126 47.0948 46.0281 47.0948C45.4386 47.0948 44.85 47.1621 44.2697 47.2955C43.2582 45.3465 41.2434 44.0886 39.0141 44.0886C38.2869 44.0886 37.5805 44.2213 36.9155 44.4789C36.6424 42.0084 34.5421 40.0805 32 40.0805C29.4579 40.0805 27.3576 42.0084 27.0845 44.4789C26.4195 44.2213 25.7131 44.0886 24.9859 44.0886C22.7566 44.0886 20.7416 45.3465 19.7302 47.2955C19.1499 47.162 18.5614 47.0948 17.9719 47.0948C13.5872 47.0948 10.0203 50.6619 10.0203 55.0464C10.0203 55.4028 10.0456 55.7589 10.094 56.1129H6.88513V21.9798C6.88513 20.8391 7.813 19.9113 8.95362 19.9113H20.9778C21.4955 19.9113 21.9153 19.4915 21.9153 18.9738C21.9153 18.456 21.4955 18.0363 20.9778 18.0363H8.95362C6.77912 18.0363 5.01013 19.8054 5.01013 21.9798V56.1129H0.9375C0.41975 56.1129 0 56.5326 0 57.0504V59.0544C0 60.6764 1.31962 61.9959 2.9415 61.9959H61.0585C62.6805 61.9959 64 60.6763 64 59.0544V57.0504C64 56.5325 63.5802 56.1128 63.0625 56.1128ZM62.125 59.0544C62.125 59.6425 61.6465 60.1209 61.0585 60.1209H2.9415C2.35337 60.1209 1.875 59.6424 1.875 59.0544V57.9879H13.9634C14.4811 57.9879 14.9009 57.5681 14.9009 57.0504C14.9009 56.5326 14.4811 56.1129 13.9634 56.1129H11.9911C11.9275 55.7595 11.8951 55.4028 11.8951 55.0464C11.8951 51.6958 14.6211 48.9698 17.9718 48.9698C18.6391 48.9698 19.3074 49.084 19.958 49.3093C20.1936 49.3909 20.4519 49.3753 20.676 49.266C20.9 49.1566 21.0713 48.9626 21.152 48.7268C21.7171 47.0741 23.2579 45.9638 24.986 45.9638C25.9336 45.9638 26.8336 46.2991 27.5889 46.9338C27.9077 47.2016 28.365 47.2271 28.7116 46.9963C29.0582 46.7654 29.211 46.3336 29.0868 45.9363C28.9795 45.593 28.9295 45.3039 28.9295 45.0263C28.9295 43.3331 30.307 41.9558 32 41.9558C33.693 41.9558 35.0705 43.3333 35.0705 45.0263C35.0705 45.3039 35.0205 45.593 34.9132 45.9363C34.789 46.3338 34.9419 46.7655 35.2884 46.9963C35.635 47.227 36.0923 47.2016 36.4111 46.9338C37.1664 46.2993 38.0665 45.9638 39.014 45.9638C40.7421 45.9638 42.2829 47.0741 42.848 48.7268C42.9287 48.9626 43.1 49.1566 43.324 49.266C43.5481 49.3754 43.8065 49.391 44.042 49.3093C44.6926 49.084 45.3608 48.9698 46.0283 48.9698C49.379 48.9698 52.1049 51.6958 52.1049 55.0464C52.1049 55.4028 52.0724 55.7595 52.0089 56.1129H17.9721C17.4544 56.1129 17.0346 56.5326 17.0346 57.0504C17.0346 57.5681 17.4544 57.9879 17.9721 57.9879H62.125V59.0544Z" fill="#1E266D"/>
<path d="M19.9523 29.5617C19.363 30.269 19.0383 31.1656 19.0383 32.0863V35.0061C19.0383 35.3393 19.2153 35.6476 19.5031 35.8157C19.6491 35.901 19.8125 35.9436 19.9758 35.9436C20.1347 35.9436 20.2936 35.9033 20.4366 35.8226L27.1128 32.0555C27.3672 32.52 27.637 32.977 27.9218 33.4256L27.0826 36.7827C27.0125 37.0628 27.0755 37.3595 27.2531 37.5871C27.4307 37.8147 27.7033 37.9477 27.9921 37.9477H36.0082C36.297 37.9477 36.5695 37.8147 36.7472 37.5871C36.9248 37.3596 36.9878 37.0628 36.9177 36.7827L36.0785 33.4256C36.3633 32.977 36.6331 32.5201 36.8875 32.0555L43.5637 35.8226C43.7068 35.9033 43.8656 35.9436 44.0245 35.9436C44.1878 35.9436 44.3512 35.9008 44.4972 35.8157C44.785 35.6477 44.962 35.3395 44.962 35.0061V32.0863C44.962 31.1656 44.6373 30.269 44.048 29.5617L39.5975 24.2228C39.8318 22.8302 39.9518 21.4103 39.9518 19.9758C39.9518 16.557 39.29 13.2522 37.9846 10.1536C36.7256 7.16509 34.9335 4.51384 32.658 2.27347C32.2931 1.91422 31.7075 1.91422 31.3426 2.27347C29.0671 4.51372 27.275 7.16497 26.016 10.1536C24.7106 13.2523 24.0487 16.557 24.0487 19.9758C24.0487 21.4081 24.1683 22.8258 24.402 24.2163L19.9523 29.5617ZM20.9133 33.4006V32.0863C20.9133 31.6033 21.0836 31.1331 21.3927 30.7621L24.9067 26.5453C25.2578 27.8588 25.7142 29.1398 26.2737 30.3761L20.9133 33.4006ZM29.1927 36.0726L29.726 33.9396H34.2741L34.8073 36.0726H29.1927ZM42.6072 30.7621C42.9163 31.1331 43.0866 31.6033 43.0866 32.0863V33.4006L37.7262 30.376C38.2856 29.1397 38.7421 27.8588 39.0932 26.5452L42.6072 30.7621ZM32 4.28622C33.5743 5.97859 34.8728 7.91909 35.8597 10.0202H28.1402C29.1271 7.91909 30.4256 5.97859 32 4.28622ZM27.359 11.8951H36.6408C37.5782 14.4507 38.0765 17.1906 38.0765 19.9757C38.0765 24.2867 36.9167 28.4548 34.7175 32.0645H29.2823C27.0831 28.4548 25.9233 24.2867 25.9233 19.9757C25.9233 17.1906 26.4217 14.4508 27.359 11.8951Z" fill="#1E266D"/>
<path d="M35.9436 18.9738C35.9436 16.7993 34.1746 15.0303 32.0001 15.0303C29.8256 15.0303 28.0566 16.7994 28.0566 18.9738C28.0566 21.1481 29.8256 22.9173 32.0001 22.9173C34.1746 22.9173 35.9436 21.1483 35.9436 18.9738ZM29.9316 18.9738C29.9316 17.8331 30.8595 16.9053 32.0001 16.9053C33.1408 16.9053 34.0686 17.8333 34.0686 18.9738C34.0686 20.1143 33.1408 21.0423 32.0001 21.0423C30.8595 21.0423 29.9316 20.1144 29.9316 18.9738Z" fill="#1E266D"/>
</g>
<defs>
<clipPath id="clip0">
<rect width="64" height="64" fill="white"/>
</clipPath>
</defs>
</svg>
