<svg width="240" height="229" viewBox="0 0 240 229" fill="none" xmlns="http://www.w3.org/2000/svg">
<g clip-path="url(#clip0)">
<path d="M145.264 12.8192L20.2263 39.6477L57.2947 212.409L182.332 185.58L145.264 12.8192Z" fill="#E0E0E0"/>
<g opacity="0.5">
<path opacity="0.5" d="M143.779 16.1937L22.9673 42.1155L58.7827 209.037L179.594 183.115L143.779 16.1937Z" fill="url(#paint0_linear)"/>
</g>
<path d="M142.503 17.7523L24.7676 43.0142L59.7916 206.248L177.527 180.986L142.503 17.7523Z" fill="#FAFAFA"/>
<path d="M111.475 17.0074L53.0676 29.5396L56.1034 43.6879L114.511 31.1558L111.475 17.0074Z" fill="url(#paint1_linear)"/>
<path d="M79.3047 9.45454C74.7953 10.4231 71.9422 14.9501 72.9342 19.5648C73.9262 24.1795 78.3829 27.1409 82.8835 26.1723C87.3841 25.2037 90.246 20.6767 89.254 16.062C88.262 11.4473 83.8141 8.48595 79.3047 9.45454ZM82.1344 22.652C81.1813 22.8793 80.1822 22.8176 79.2643 22.475C78.3464 22.1323 77.5514 21.5241 76.9804 20.7279C76.4095 19.9316 76.0886 18.9834 76.0585 18.0041C76.0285 17.0248 76.2907 16.0588 76.8118 15.229C77.3328 14.3993 78.0891 13.7435 78.9843 13.3452C79.8795 12.947 80.8729 12.8242 81.8381 12.9927C82.8033 13.1611 83.6965 13.6131 84.4038 14.2911C85.1111 14.9691 85.6006 15.8423 85.8098 16.7995C85.9543 17.4251 85.9738 18.0732 85.8671 18.7065C85.7605 19.3397 85.5298 19.9456 85.1882 20.4895C84.8467 21.0333 84.4011 21.5043 83.8771 21.8754C83.353 22.2465 82.7608 22.5104 82.1344 22.652Z" fill="url(#paint2_linear)"/>
<path d="M110.73 16.5327L53.5525 28.8008L56.4544 42.3254L113.631 30.0573L110.73 16.5327Z" fill="#FF6700"/>
<path d="M79.3046 9.45494C77.7241 9.79416 76.2798 10.5944 75.1541 11.7545C74.0285 12.9146 73.2721 14.3824 72.9806 15.9723C72.6892 17.5622 72.8757 19.2029 73.5167 20.6868C74.1576 22.1708 75.2242 23.4313 76.5816 24.309C77.9389 25.1868 79.5261 25.6424 81.1423 25.6181C82.7586 25.5938 84.3313 25.0909 85.6617 24.1728C86.9921 23.2547 88.0204 21.9627 88.6166 20.4603C89.2127 18.9578 89.35 17.3122 89.0109 15.7318C88.7858 14.6823 88.3561 13.6874 87.7465 12.8039C87.1369 11.9205 86.3592 11.1658 85.4578 10.5829C84.5565 10.0001 83.5492 9.60045 82.4934 9.40691C81.4376 9.21337 80.354 9.22969 79.3046 9.45494ZM82.0084 22.0671C81.0962 22.2629 80.1464 22.1837 79.2791 21.8396C78.4119 21.4955 77.6662 20.902 77.1363 20.1341C76.6064 19.3662 76.3161 18.4583 76.3022 17.5254C76.2882 16.5926 76.5513 15.6765 77.058 14.8931C77.5647 14.1097 78.2924 13.4941 79.1489 13.1243C80.0055 12.7544 80.9525 12.6469 81.8702 12.8153C82.7878 12.9837 83.635 13.4205 84.3044 14.0703C84.9739 14.7202 85.4356 15.554 85.6311 16.4663C85.8933 17.6894 85.6589 18.9665 84.9796 20.0169C84.3002 21.0672 83.2315 21.8047 82.0084 22.0671Z" fill="#FF6700"/>
<path d="M203.349 34.2109H75.4653V210.904H203.349V34.2109Z" fill="#E0E0E0"/>
<g opacity="0.5">
<path opacity="0.5" d="M201.189 37.1985H77.6279V207.919H201.189V37.1985Z" fill="url(#paint3_linear)"/>
</g>
<path d="M199.615 38.457H79.199V205.406H199.615V38.457Z" fill="white"/>
<path d="M169.433 31.2175H109.697V45.6879H169.433V31.2175Z" fill="url(#paint4_linear)"/>
<path d="M139.565 17.0923C134.953 17.0923 131.213 20.9198 131.213 25.6428C131.213 30.3658 134.953 34.1934 139.565 34.1934C144.177 34.1934 147.916 30.3658 147.916 25.6428C147.916 20.9198 144.177 17.0923 139.565 17.0923ZM139.565 30.5765C138.584 30.5998 137.619 30.3303 136.793 29.8025C135.966 29.2747 135.316 28.5126 134.924 27.6134C134.533 26.7142 134.418 25.7187 134.595 24.7541C134.772 23.7894 135.233 22.8994 135.918 22.1977C136.603 21.496 137.481 21.0143 138.441 20.8143C139.402 20.6142 140.4 20.7048 141.308 21.0746C142.216 21.4443 142.994 22.0764 143.541 22.89C144.089 23.7037 144.381 24.6621 144.382 25.6428C144.391 26.9318 143.889 28.172 142.987 29.0922C142.084 30.0124 140.854 30.5376 139.565 30.5531V30.5765Z" fill="url(#paint5_linear)"/>
<path d="M168.804 30.5969H110.326V44.4293H168.804V30.5969Z" fill="#FF6700"/>
<path d="M139.565 17.0923C137.948 17.0923 136.368 17.5716 135.024 18.4697C133.68 19.3678 132.633 20.6442 132.014 22.1376C131.395 23.6311 131.234 25.2744 131.549 26.8598C131.864 28.4452 132.643 29.9015 133.786 31.0445C134.929 32.1876 136.385 32.966 137.97 33.2813C139.556 33.5967 141.199 33.4348 142.693 32.8162C144.186 32.1976 145.463 31.1501 146.361 29.806C147.259 28.462 147.738 26.8818 147.738 25.2653C147.738 23.0977 146.877 21.0189 145.344 19.4861C143.811 17.9534 141.733 17.0923 139.565 17.0923ZM139.565 29.9825C138.633 29.9813 137.722 29.704 136.947 29.1854C136.172 28.6669 135.569 27.9305 135.212 27.0691C134.856 26.2078 134.762 25.2601 134.944 24.3458C135.126 23.4314 135.574 22.5915 136.233 21.9319C136.892 21.2723 137.731 20.8227 138.645 20.6398C139.56 20.457 140.507 20.5491 141.369 20.9045C142.231 21.2599 142.968 21.8627 143.488 22.6367C144.007 23.4108 144.286 24.3214 144.288 25.2536C144.288 25.8733 144.165 26.4869 143.927 27.0592C143.69 27.6316 143.342 28.1515 142.903 28.5893C142.465 29.0271 141.944 29.3742 141.371 29.6107C140.798 29.8472 140.185 29.9686 139.565 29.9678V29.9825Z" fill="#FF6700"/>
<g opacity="0.5">
<path opacity="0.5" d="M5.56878 215.68H4.46851V221.921H5.56878V215.68Z" fill="#47E6B1"/>
<path opacity="0.5" d="M8.14087 219.352V218.252H1.89917V219.352H8.14087Z" fill="#47E6B1"/>
</g>
<g opacity="0.5">
<path opacity="0.5" d="M133.218 0H132.118V6.24171H133.218V0Z" fill="#47E6B1"/>
<path opacity="0.5" d="M135.79 3.6696V2.56934L129.549 2.56934V3.6696L135.79 3.6696Z" fill="#47E6B1"/>
</g>
<path opacity="0.5" d="M225.638 226.071C225.334 225.939 225.09 225.7 224.952 225.399C224.813 225.099 224.789 224.758 224.886 224.441C224.901 224.393 224.911 224.343 224.915 224.292C224.924 224.147 224.886 224.003 224.806 223.881C224.727 223.76 224.61 223.667 224.474 223.617C224.338 223.567 224.189 223.562 224.05 223.603C223.911 223.644 223.788 223.728 223.701 223.844C223.67 223.885 223.645 223.929 223.625 223.976C223.493 224.279 223.254 224.524 222.953 224.662C222.652 224.801 222.311 224.824 221.995 224.728C221.946 224.712 221.896 224.702 221.846 224.699C221.701 224.69 221.557 224.728 221.435 224.807C221.314 224.887 221.221 225.003 221.171 225.139C221.12 225.276 221.115 225.424 221.156 225.564C221.197 225.703 221.282 225.826 221.398 225.913C221.439 225.943 221.483 225.969 221.529 225.989C221.833 226.121 222.077 226.36 222.216 226.661C222.355 226.961 222.378 227.302 222.282 227.619C222.266 227.667 222.256 227.717 222.252 227.768C222.244 227.913 222.282 228.057 222.361 228.179C222.441 228.3 222.557 228.393 222.693 228.443C222.829 228.493 222.978 228.498 223.118 228.457C223.257 228.416 223.379 228.332 223.467 228.216C223.497 228.175 223.523 228.131 223.543 228.084C223.675 227.781 223.914 227.536 224.214 227.398C224.515 227.259 224.856 227.236 225.173 227.332C225.221 227.348 225.271 227.358 225.322 227.361C225.467 227.37 225.611 227.332 225.732 227.253C225.854 227.173 225.947 227.057 225.997 226.921C226.047 226.784 226.052 226.636 226.011 226.496C225.97 226.357 225.886 226.234 225.77 226.147C225.729 226.117 225.685 226.091 225.638 226.071Z" fill="#4D8AF0"/>
<path opacity="0.5" d="M39.9932 166.065C39.6897 165.933 39.4454 165.694 39.3067 165.393C39.168 165.093 39.1447 164.752 39.2411 164.435C39.2567 164.387 39.2665 164.337 39.2704 164.286C39.2791 164.141 39.241 163.997 39.1615 163.876C39.0821 163.754 38.9657 163.661 38.8295 163.611C38.6933 163.561 38.5445 163.556 38.4052 163.597C38.2659 163.638 38.1434 163.722 38.056 163.838C38.0256 163.879 38 163.923 37.9799 163.97C37.8478 164.273 37.6087 164.518 37.3082 164.656C37.0076 164.795 36.6666 164.818 36.35 164.722C36.3016 164.706 36.2515 164.697 36.2008 164.693C36.0558 164.684 35.9119 164.722 35.7904 164.802C35.6688 164.881 35.5761 164.997 35.5259 165.134C35.4756 165.27 35.4706 165.419 35.5115 165.558C35.5524 165.697 35.6371 165.82 35.753 165.907C35.7938 165.938 35.838 165.963 35.8847 165.983C36.1882 166.115 36.4325 166.354 36.5712 166.655C36.7099 166.955 36.7332 167.296 36.6368 167.613C36.6212 167.661 36.6114 167.712 36.6075 167.762C36.5988 167.907 36.6369 168.051 36.7163 168.173C36.7957 168.294 36.9122 168.387 37.0484 168.437C37.1846 168.487 37.3334 168.492 37.4727 168.452C37.612 168.411 37.7345 168.326 37.8219 168.21C37.8523 168.169 37.8779 168.125 37.898 168.078C38.0301 167.775 38.2692 167.531 38.5697 167.392C38.8702 167.253 39.2113 167.23 39.5279 167.326C39.5763 167.342 39.6264 167.352 39.6771 167.356C39.8221 167.364 39.966 167.326 40.0875 167.247C40.2091 167.167 40.3018 167.051 40.352 166.915C40.4023 166.778 40.4073 166.63 40.3664 166.49C40.3254 166.351 40.2408 166.229 40.1249 166.141C40.0841 166.111 40.0399 166.085 39.9932 166.065Z" fill="#FDD835"/>
<path opacity="0.5" d="M194.619 19.9511C194.316 19.819 194.072 19.5799 193.933 19.2794C193.794 18.9788 193.771 18.6378 193.867 18.3212C193.883 18.2727 193.893 18.2227 193.897 18.1719C193.905 18.027 193.867 17.8831 193.788 17.7616C193.708 17.64 193.592 17.5473 193.456 17.4971C193.319 17.4468 193.171 17.4418 193.031 17.4827C192.892 17.5236 192.77 17.6083 192.682 17.7242C192.652 17.765 192.626 17.8092 192.606 17.8559C192.474 18.1594 192.235 18.4037 191.934 18.5424C191.634 18.681 191.293 18.7044 190.976 18.608C190.928 18.5924 190.878 18.5826 190.827 18.5787C190.682 18.57 190.538 18.6081 190.417 18.6875C190.295 18.7669 190.202 18.8834 190.152 19.0196C190.102 19.1558 190.097 19.3046 190.138 19.4439C190.179 19.5832 190.263 19.7057 190.379 19.7931C190.42 19.8235 190.464 19.849 190.511 19.8692C190.814 20.0013 191.059 20.2403 191.197 20.5409C191.336 20.8414 191.359 21.1825 191.263 21.4991C191.247 21.5475 191.238 21.5976 191.234 21.6483C191.225 21.7933 191.263 21.9371 191.343 22.0587C191.422 22.1802 191.538 22.273 191.675 22.3232C191.811 22.3734 191.96 22.3785 192.099 22.3376C192.238 22.2966 192.361 22.212 192.448 22.0961C192.479 22.0553 192.504 22.0111 192.524 21.9644C192.656 21.6609 192.895 21.4166 193.196 21.2779C193.496 21.1392 193.837 21.1159 194.154 21.2123C194.203 21.2279 194.253 21.2377 194.303 21.2416C194.448 21.2503 194.592 21.2121 194.714 21.1327C194.835 21.0533 194.928 20.9369 194.978 20.8007C195.028 20.6644 195.034 20.5157 194.993 20.3764C194.952 20.2371 194.867 20.1146 194.751 20.0272C194.71 19.9968 194.666 19.9712 194.619 19.9511Z" fill="#FDD835"/>
<path opacity="0.5" d="M237.799 94.2255C239.016 94.2255 240.003 93.239 240.003 92.0221C240.003 90.8051 239.016 89.8186 237.799 89.8186C236.583 89.8186 235.596 90.8051 235.596 92.0221C235.596 93.239 236.583 94.2255 237.799 94.2255Z" fill="#F55F44"/>
<path opacity="0.5" d="M67.5177 220.693C68.7346 220.693 69.7212 219.706 69.7212 218.489C69.7212 217.272 68.7346 216.286 67.5177 216.286C66.3007 216.286 65.3142 217.272 65.3142 218.489C65.3142 219.706 66.3007 220.693 67.5177 220.693Z" fill="#F55F44"/>
<path opacity="0.5" d="M215.171 141.853C216.388 141.853 217.374 140.867 217.374 139.65C217.374 138.433 216.388 137.447 215.171 137.447C213.954 137.447 212.967 138.433 212.967 139.65C212.967 140.867 213.954 141.853 215.171 141.853Z" fill="#F55F44"/>
<path opacity="0.5" d="M25.4994 30.3979C26.7163 30.3979 27.7028 29.4114 27.7028 28.1944C27.7028 26.9775 26.7163 25.991 25.4994 25.991C24.2824 25.991 23.2959 26.9775 23.2959 28.1944C23.2959 29.4114 24.2824 30.3979 25.4994 30.3979Z" fill="#4D8AF0"/>
<path opacity="0.5" d="M2.20347 90.5063C3.42042 90.5063 4.40694 89.5198 4.40694 88.3028C4.40694 87.0859 3.42042 86.0994 2.20347 86.0994C0.986528 86.0994 0 87.0859 0 88.3028C0 89.5198 0.986528 90.5063 2.20347 90.5063Z" fill="#47E6B1"/>
</g>
<defs>
<linearGradient id="paint0_linear" x1="119.187" y1="196.077" x2="83.3717" y2="29.1549" gradientUnits="userSpaceOnUse">
<stop stop-color="#808080" stop-opacity="0.25"/>
<stop offset="0.54" stop-color="#808080" stop-opacity="0.12"/>
<stop offset="1" stop-color="#808080" stop-opacity="0.1"/>
</linearGradient>
<linearGradient id="paint1_linear" x1="32132.2" y1="-4184.23" x2="31982.1" y2="-4883.86" gradientUnits="userSpaceOnUse">
<stop stop-color="#808080" stop-opacity="0.25"/>
<stop offset="0.54" stop-color="#808080" stop-opacity="0.12"/>
<stop offset="1" stop-color="#808080" stop-opacity="0.1"/>
</linearGradient>
<linearGradient id="paint2_linear" x1="9382.68" y1="477.263" x2="9173.25" y2="-498.788" gradientUnits="userSpaceOnUse">
<stop stop-color="#808080" stop-opacity="0.25"/>
<stop offset="0.54" stop-color="#808080" stop-opacity="0.12"/>
<stop offset="1" stop-color="#808080" stop-opacity="0.1"/>
</linearGradient>
<linearGradient id="paint3_linear" x1="58942.2" y1="121340" x2="58942.2" y2="21739.2" gradientUnits="userSpaceOnUse">
<stop stop-color="#808080" stop-opacity="0.25"/>
<stop offset="0.54" stop-color="#808080" stop-opacity="0.12"/>
<stop offset="1" stop-color="#808080" stop-opacity="0.1"/>
</linearGradient>
<linearGradient id="paint4_linear" x1="28600.5" y1="2290.48" x2="28600.5" y2="1574.92" gradientUnits="userSpaceOnUse">
<stop stop-color="#808080" stop-opacity="0.25"/>
<stop offset="0.54" stop-color="#808080" stop-opacity="0.12"/>
<stop offset="1" stop-color="#808080" stop-opacity="0.1"/>
</linearGradient>
<linearGradient id="paint5_linear" x1="11269.8" y1="3033.55" x2="11269.8" y2="2034.16" gradientUnits="userSpaceOnUse">
<stop stop-color="#808080" stop-opacity="0.25"/>
<stop offset="0.54" stop-color="#808080" stop-opacity="0.12"/>
<stop offset="1" stop-color="#808080" stop-opacity="0.1"/>
</linearGradient>
<clipPath id="clip0">
<rect width="240" height="228.485" fill="white"/>
</clipPath>
</defs>
</svg>
