<svg width="849" height="614" viewBox="0 0 849 614" fill="none" xmlns="http://www.w3.org/2000/svg">
<rect x="0.5" y="0.5" width="848" height="613" stroke="#EBEDF0"/>
<path d="M683.153 167.204L677.892 168.773L673.315 170.619L672.035 170.928C671.709 171.211 671.367 171.498 670.997 171.789C670.592 172.108 670.214 172.399 669.924 172.61C669.602 172.842 669.124 173.278 668.882 173.554C668.52 173.968 668.234 174.408 668.11 174.746C667.892 175.356 667.999 175.974 668.421 176.544C668.961 177.271 670.039 178.012 671.295 178.517C671.936 178.775 673.013 179.105 673.824 179.291C675.172 179.603 677.781 179.941 679.216 179.992C679.506 180.003 679.896 180.003 679.912 179.992C679.944 179.974 680.167 179.585 680.425 179.102C681.308 177.456 681.944 175.912 682.29 174.593C682.497 173.794 682.66 172.73 682.767 171.469C682.795 171.117 682.807 169.936 682.783 169.536C682.747 168.882 682.683 168.352 682.584 167.833C682.568 167.756 682.564 167.687 682.572 167.684C682.588 167.673 682.636 167.658 683.284 167.487L683.153 167.204V167.204L683.153 167.204ZM681.952 167.847C682 167.847 682.127 168.962 682.159 169.667C682.167 169.816 682.163 169.914 682.155 169.914C682.123 169.914 681.483 169.569 681.026 169.308C680.628 169.079 679.872 168.621 679.753 168.534C679.713 168.508 679.717 168.505 680.043 168.403C680.596 168.232 681.908 167.847 681.952 167.847ZM679.272 168.654C679.308 168.654 679.399 168.701 679.618 168.824C680.437 169.293 681.55 169.86 682.028 170.049C682.175 170.107 682.19 170.085 681.853 170.296C681.129 170.746 680.226 171.189 679.121 171.636C678.926 171.716 678.763 171.778 678.759 171.778C678.751 171.778 678.775 171.687 678.807 171.578C679.073 170.673 679.224 169.758 679.232 169.024C679.236 168.661 679.236 168.661 679.272 168.65C679.264 168.654 679.268 168.654 679.272 168.654ZM678.719 168.846C678.743 168.868 678.727 169.682 678.695 169.903C678.624 170.434 678.512 170.928 678.33 171.484C678.286 171.618 678.246 171.731 678.238 171.738C678.222 171.756 677.677 171.269 677.498 171.08C677.188 170.753 676.946 170.426 676.767 170.107C676.675 169.943 676.532 169.624 676.544 169.613C676.608 169.573 678.703 168.832 678.719 168.846ZM676.119 169.78C676.123 169.78 676.127 169.78 676.131 169.783C676.139 169.791 676.166 169.849 676.19 169.914C676.318 170.23 676.604 170.695 676.85 170.993C677.121 171.32 677.475 171.669 677.769 171.898C677.864 171.97 677.952 172.039 677.964 172.05C677.988 172.072 677.996 172.068 677.347 172.294C676.596 172.555 675.777 172.817 674.838 173.093C674.614 173.159 674.39 173.226 674.166 173.293C674.131 173.304 674.143 173.285 674.246 173.137C674.711 172.472 675.419 171.167 675.817 170.245C675.884 170.085 675.952 169.925 675.964 169.889C675.98 169.838 675.999 169.82 676.051 169.794C676.079 169.787 676.107 169.78 676.119 169.78ZM675.324 170.081C675.335 170.089 675.133 170.477 674.934 170.833C674.548 171.52 674.127 172.196 673.562 173.017C673.467 173.158 673.375 173.289 673.363 173.304C673.343 173.329 673.335 173.322 673.272 173.209C673.137 172.966 673.025 172.653 672.966 172.366C672.906 172.083 672.918 171.589 672.985 171.284C673.037 171.059 673.033 171.062 673.152 171.008C673.661 170.772 675.308 170.067 675.324 170.081ZM682.183 170.336V170.488C682.183 171.298 682.087 172.41 681.948 173.22C681.924 173.362 681.904 173.478 681.9 173.482C681.9 173.482 681.785 173.453 681.65 173.416C681.053 173.245 680.405 172.995 679.821 172.701C679.435 172.508 678.874 172.192 678.89 172.177C678.894 172.174 679.061 172.094 679.256 171.999C680.035 171.629 680.783 171.229 681.431 170.833C681.674 170.684 682.039 170.445 682.119 170.379L682.183 170.336ZM672.321 171.411C672.337 171.411 672.333 171.44 672.309 171.571C672.294 171.665 672.274 171.84 672.266 171.959C672.234 172.49 672.329 172.882 672.616 173.42C672.695 173.569 672.759 173.692 672.755 173.696C672.727 173.718 670.095 174.423 669.268 174.63C669.021 174.691 668.806 174.746 668.79 174.749C668.763 174.757 668.759 174.753 668.771 174.691C668.862 174.157 669.307 173.46 669.928 172.871C670.341 172.479 670.671 172.25 671.236 171.956C671.641 171.745 672.266 171.429 672.313 171.414C672.313 171.411 672.317 171.411 672.321 171.411ZM678.524 172.424C678.528 172.421 678.624 172.468 678.739 172.53C679.59 172.98 680.775 173.398 681.785 173.612L681.876 173.631L681.749 173.696C681.22 173.965 679.483 174.626 677.705 175.233C677.447 175.32 677.192 175.407 677.145 175.425C677.097 175.443 677.053 175.454 677.053 175.451C677.053 175.447 677.125 175.32 677.216 175.164C677.713 174.314 678.214 173.278 678.469 172.559C678.501 172.49 678.52 172.428 678.524 172.424ZM677.892 172.613C677.896 172.617 677.864 172.693 677.825 172.78C677.479 173.547 677.025 174.383 676.445 175.32C676.298 175.56 676.174 175.752 676.17 175.752C676.166 175.752 676.047 175.687 675.904 175.607C675.061 175.135 674.313 174.553 673.824 173.99L673.753 173.91L674.115 173.819C675.411 173.496 676.512 173.147 677.606 172.719C677.761 172.661 677.888 172.613 677.892 172.613ZM681.821 173.867C681.821 173.867 681.825 173.87 681.821 173.867C681.825 173.95 681.622 174.699 681.455 175.24C681.316 175.694 681.196 176.05 680.978 176.679C680.882 176.955 680.799 177.183 680.795 177.183C680.791 177.183 680.767 177.18 680.743 177.173C679.562 176.976 678.505 176.704 677.51 176.341C677.232 176.239 676.834 176.075 676.811 176.057C676.803 176.05 677.041 175.948 677.343 175.828C679.153 175.105 681.029 174.284 681.674 173.932C681.749 173.888 681.809 173.867 681.821 173.867ZM672.751 174.15C672.759 174.157 672.254 174.822 671.546 175.727C671.299 176.043 671.013 176.413 670.906 176.551C670.798 176.689 670.635 176.907 670.544 177.038L670.377 177.274L670.198 177.136C669.987 176.976 669.621 176.635 669.458 176.446C669.116 176.057 668.886 175.647 668.794 175.273C668.751 175.098 668.751 175.011 668.79 175C668.85 174.986 669.912 174.757 670.906 174.546C671.459 174.43 672.099 174.292 672.329 174.241C672.56 174.19 672.747 174.15 672.751 174.15ZM673.26 174.328L673.387 174.459C673.96 175.044 674.544 175.476 675.252 175.854C675.379 175.919 675.475 175.977 675.467 175.981C675.439 175.999 673.009 176.788 671.884 177.144C671.252 177.347 670.731 177.51 670.727 177.51C670.723 177.51 670.687 177.489 670.647 177.463L670.576 177.416L670.691 177.263C671.065 176.769 671.534 176.228 672.556 175.102L673.26 174.328ZM676.433 176.402C676.437 176.399 676.612 176.457 676.826 176.53C677.343 176.708 677.753 176.82 678.302 176.947C678.978 177.104 679.956 177.256 680.532 177.3C680.62 177.307 680.668 177.314 680.652 177.325C680.624 177.34 680.039 177.518 679.61 177.641C678.926 177.837 676.838 178.401 675.137 178.847C674.822 178.931 674.552 179 674.536 179.004C674.496 179.011 674.365 178.978 674.365 178.964C674.365 178.956 674.461 178.844 674.576 178.72C675.148 178.095 675.717 177.398 676.19 176.737C676.322 176.555 676.433 176.406 676.433 176.402ZM675.733 176.421C675.737 176.424 675.455 176.838 674.962 177.55C674.751 177.852 674.516 178.193 674.433 178.313C674.353 178.43 674.234 178.611 674.166 178.713L674.051 178.898L673.991 178.884C673.848 178.847 672.842 178.524 672.576 178.426C672.246 178.306 671.904 178.161 671.649 178.037C671.331 177.881 670.934 177.649 670.965 177.641C670.973 177.638 671.518 177.503 672.174 177.34C673.916 176.907 674.882 176.657 675.514 176.475C675.63 176.442 675.729 176.417 675.733 176.421ZM680.683 177.481H680.687C680.703 177.518 680.059 179.153 679.825 179.668C679.773 179.785 679.753 179.814 679.725 179.81C679.658 179.806 678.723 179.687 678.155 179.61C677.165 179.472 675.502 179.207 675.085 179.12L674.989 179.102L675.582 178.978C676.854 178.717 677.467 178.575 678.087 178.401C678.87 178.183 679.646 177.91 680.429 177.576C680.552 177.525 680.656 177.485 680.683 177.481Z" fill="url(#paint0_linear)"/>
<path d="M677.729 156C677.642 155.989 676.23 156.454 675.319 156.792C674.091 157.25 673.136 157.686 672.548 158.064C672.329 158.205 672.055 158.456 672.011 158.554C671.995 158.59 671.987 158.634 671.987 158.678L672.52 159.139L673.789 159.51L676.807 160.004L680.258 160.545L680.294 160.272C680.282 160.272 680.274 160.269 680.262 160.269L679.809 160.203L679.717 160.055C679.248 159.299 678.731 158.362 678.429 157.729C678.194 157.239 677.972 156.672 677.848 156.265C677.781 156.018 677.773 156.004 677.729 156V156H677.729L677.729 156ZM677.665 156.186H677.669C677.673 156.189 677.689 156.291 677.705 156.411C677.773 156.919 677.896 157.41 678.091 157.94C678.238 158.34 678.238 158.318 678.067 158.271C677.661 158.169 675.844 157.882 674.528 157.715C674.317 157.69 674.138 157.664 674.138 157.66C674.123 157.646 675.089 157.185 675.514 157.003C676.059 156.774 677.554 156.204 677.665 156.186ZM673.832 157.813L673.987 157.86C674.83 158.122 676.95 158.492 678.119 158.58C678.25 158.59 678.361 158.601 678.365 158.601C678.369 158.605 678.258 158.66 678.115 158.721C677.55 158.979 676.93 159.295 676.5 159.539C676.373 159.611 676.258 159.669 676.242 159.669C676.226 159.669 676.143 159.655 676.055 159.644L675.896 159.622L675.498 159.266C674.799 158.645 674.25 158.165 674.039 157.984L673.832 157.813ZM673.673 157.926L674.234 158.565C674.54 158.917 674.85 159.263 674.918 159.339C674.985 159.415 675.041 159.477 675.037 159.481C675.021 159.491 674.226 159.35 673.804 159.263C673.371 159.172 673.192 159.128 672.926 159.052L672.707 158.986V158.936C672.711 158.692 673.049 158.329 673.622 157.958L673.673 157.926ZM678.437 158.798C678.453 158.798 678.473 158.83 678.52 158.928C678.655 159.201 679.077 159.935 679.18 160.076C679.212 160.124 679.268 160.127 678.707 160.044C677.359 159.844 676.926 159.778 676.926 159.771C676.926 159.768 676.966 159.742 677.017 159.717C677.435 159.506 677.856 159.237 678.23 158.95C678.322 158.881 678.405 158.816 678.421 158.805C678.425 158.798 678.433 158.794 678.437 158.798Z" fill="url(#paint1_linear)"/>
<path d="M672.039 158.503C672.039 158.503 671.951 158.63 672.035 158.819C672.087 158.936 672.238 159.077 672.409 159.223C672.409 159.223 674.178 160.799 674.393 161.025C675.371 162.056 675.796 163.073 675.836 164.476C675.86 165.377 675.673 166.169 675.208 167.088C674.381 168.737 672.635 170.557 669.943 172.577L670.337 172.457C670.592 172.283 670.937 172.098 671.749 171.691C673.621 170.753 675.729 169.892 678.313 169.006C682.035 167.727 688.155 166.23 691.638 165.744L692 165.693L691.944 165.613C691.626 165.162 691.407 164.883 691.145 164.585C690.381 163.72 689.455 163.019 688.322 162.438C686.763 161.642 684.747 161.021 682.194 160.56C681.713 160.472 680.655 160.305 679.797 160.185C677.975 159.927 676.798 159.749 675.502 159.546C675.037 159.473 674.341 159.364 673.88 159.274C673.641 159.226 673.184 159.128 672.826 159.016C672.54 158.914 672.126 158.812 672.039 158.503ZM673.065 159.412C673.069 159.408 673.132 159.43 673.216 159.455C673.367 159.502 673.562 159.557 673.793 159.615C673.967 159.659 674.142 159.701 674.317 159.742C674.556 159.797 674.755 159.847 674.759 159.847C674.787 159.873 675.188 161.046 675.323 161.497C675.375 161.668 675.415 161.813 675.411 161.813C675.407 161.817 675.363 161.755 675.311 161.671C674.846 160.923 674.111 160.164 673.26 159.553C673.148 159.481 673.065 159.415 673.065 159.412ZM675.021 159.906C675.041 159.906 675.129 159.917 675.236 159.938C675.912 160.076 677.125 160.287 677.9 160.407C678.031 160.425 678.135 160.447 678.135 160.454C678.135 160.461 678.087 160.487 678.027 160.516C677.896 160.578 677.367 160.865 677.192 160.974C676.751 161.242 676.353 161.533 676.067 161.795C675.952 161.9 675.852 161.987 675.852 161.987C675.852 161.987 675.828 161.925 675.808 161.849C675.665 161.344 675.367 160.596 675.097 160.069C675.053 159.986 675.017 159.909 675.017 159.902C675.017 159.909 675.017 159.906 675.021 159.906ZM678.465 160.505C678.488 160.512 678.528 160.636 678.608 160.908C678.755 161.435 678.822 162.024 678.799 162.572C678.791 162.725 678.783 162.866 678.775 162.885L678.763 162.921L678.556 162.859C678.131 162.736 677.439 162.55 676.846 162.398C676.508 162.314 676.234 162.238 676.234 162.231C676.234 162.209 676.727 161.758 676.938 161.588C677.339 161.264 678.429 160.494 678.465 160.505ZM678.739 160.541C678.751 160.53 680.385 160.788 681.129 160.919C681.681 161.017 682.485 161.17 682.532 161.188C682.556 161.195 682.473 161.239 682.206 161.348C681.157 161.78 680.377 162.169 679.602 162.641C679.399 162.765 679.228 162.866 679.224 162.866C679.22 162.866 679.216 162.761 679.216 162.634C679.216 161.944 679.065 161.246 678.787 160.658C678.759 160.599 678.735 160.545 678.739 160.541ZM682.966 161.304C682.978 161.315 682.926 161.609 682.878 161.784C682.735 162.325 682.349 163.128 681.876 163.884C681.793 164.018 681.717 164.127 681.709 164.131C681.701 164.134 681.594 164.08 681.471 164.014C681.009 163.767 680.485 163.535 679.912 163.317C679.753 163.255 679.614 163.204 679.61 163.197C679.582 163.175 680.862 162.401 681.538 162.031C682.075 161.733 682.95 161.29 682.966 161.304ZM683.268 161.348C683.304 161.348 684.027 161.53 684.405 161.631C685.34 161.886 686.413 162.245 687.113 162.536L687.403 162.656L687.2 162.699C685.491 163.059 684.027 163.473 682.616 163.996C682.5 164.04 682.397 164.076 682.389 164.076C682.381 164.076 682.421 163.993 682.473 163.891C682.898 163.066 683.173 162.205 683.24 161.471C683.244 161.402 683.256 161.348 683.268 161.348ZM676.063 162.859C676.075 162.848 676.628 162.968 676.926 163.044C677.379 163.161 678.341 163.455 678.341 163.477C678.341 163.48 678.234 163.564 678.107 163.666C677.586 164.062 677.085 164.479 676.484 165.01C676.305 165.166 676.154 165.293 676.146 165.293C676.138 165.293 676.135 165.271 676.138 165.242C676.23 164.632 676.21 163.847 676.083 163.052C676.071 162.95 676.059 162.863 676.063 162.859ZM687.678 162.87C687.686 162.877 687.423 163.255 687.256 163.469C687.018 163.782 686.668 164.196 685.876 165.104C685.459 165.584 684.99 166.125 684.835 166.307C684.675 166.488 684.544 166.641 684.54 166.641C684.536 166.641 684.485 166.576 684.429 166.496C683.984 165.885 683.451 165.351 682.819 164.872C682.699 164.781 682.568 164.683 682.524 164.654C682.481 164.625 682.445 164.596 682.445 164.592C682.445 164.581 683.121 164.316 683.634 164.127C684.532 163.793 685.757 163.393 686.676 163.135C687.157 162.997 687.67 162.863 687.678 162.87ZM687.984 162.943C688 162.939 688.095 162.983 688.21 163.044C689.177 163.549 690.123 164.2 690.871 164.868C691.081 165.057 691.602 165.551 691.594 165.555C691.594 165.555 691.411 165.569 691.197 165.584C689.523 165.7 687.379 166.023 685.32 166.477C685.181 166.506 685.057 166.532 685.049 166.532C685.041 166.532 685.196 166.39 685.391 166.22C686.6 165.155 687.153 164.483 687.805 163.284C687.896 163.106 687.976 162.954 687.984 162.943C687.98 162.943 687.98 162.943 687.984 162.943ZM679.129 163.771C679.184 163.782 679.701 164.004 680.091 164.182C680.449 164.345 680.986 164.607 681.013 164.628C681.017 164.632 680.826 164.723 680.592 164.828C679.844 165.17 679.204 165.493 678.536 165.863C678.345 165.969 678.186 166.056 678.182 166.056C678.166 166.056 678.17 166.041 678.278 165.863C678.636 165.268 678.922 164.556 679.085 163.862C679.101 163.807 679.117 163.771 679.129 163.771ZM678.612 163.858C678.624 163.869 678.488 164.316 678.405 164.559C678.242 165.021 677.968 165.598 677.701 166.034C677.637 166.136 677.542 166.285 677.49 166.368L677.391 166.514L677.168 166.318C676.91 166.089 676.699 165.947 676.429 165.82C676.321 165.769 676.238 165.725 676.238 165.718C676.238 165.689 676.918 165.126 677.439 164.719C677.812 164.425 678.6 163.847 678.612 163.858ZM681.773 165.046L681.968 165.162C682.413 165.428 682.938 165.78 683.34 166.089C683.566 166.259 684.003 166.619 684.091 166.706L684.139 166.754L683.817 166.837C681.996 167.298 680.588 167.709 678.946 168.261C678.763 168.323 678.608 168.374 678.596 168.374C678.572 168.374 678.552 168.392 678.962 168.047C680.011 167.164 680.942 166.19 681.634 165.242L681.773 165.046ZM680.942 165.235C680.95 165.242 680.405 165.943 680.079 166.339C679.689 166.812 678.997 167.604 678.52 168.119C678.321 168.334 678.151 168.512 678.143 168.516C678.131 168.519 678.127 168.465 678.127 168.381C678.127 167.941 678.003 167.473 677.789 167.073C677.697 166.906 677.681 166.866 677.701 166.848C677.777 166.786 678.934 166.183 679.665 165.824C680.158 165.584 680.93 165.228 680.942 165.235ZM675.916 166.361C675.928 166.361 676.019 166.405 676.123 166.456C676.377 166.583 676.604 166.725 676.806 166.877C676.814 166.884 676.711 166.961 676.576 167.051C676.198 167.298 675.626 167.694 675.292 167.938C674.942 168.192 674.93 168.199 674.969 168.145C675.232 167.778 675.363 167.571 675.502 167.306C675.626 167.07 675.749 166.79 675.836 166.547C675.868 166.441 675.908 166.361 675.916 166.361ZM677.256 167.32C677.276 167.317 677.3 167.349 677.407 167.495C677.634 167.803 677.808 168.218 677.852 168.552L677.86 168.625L677.315 168.817C676.341 169.162 675.443 169.504 674.834 169.758C674.663 169.831 674.365 169.961 674.17 170.049C673.975 170.139 673.816 170.208 673.816 170.205C673.816 170.201 673.94 170.118 674.091 170.016C675.28 169.228 676.309 168.363 677.081 167.498C677.164 167.407 677.24 167.324 677.248 167.32L677.256 167.32ZM676.64 167.458C676.655 167.473 676.202 167.942 675.892 168.228C675.125 168.944 674.365 169.504 673.423 170.049C673.303 170.118 673.196 170.179 673.184 170.187C673.156 170.201 673.192 170.165 673.606 169.754C673.868 169.496 674.067 169.278 674.293 169.01C674.445 168.832 674.472 168.806 674.691 168.664C675.276 168.279 676.624 167.444 676.64 167.458Z" fill="url(#paint2_radial)"/>
<defs>
<linearGradient id="paint0_linear" x1="671.958" y1="177.626" x2="673.767" y2="176.456" gradientUnits="userSpaceOnUse">
<stop stop-color="#909CA9"/>
<stop offset="1" stop-color="#EDEDEE"/>
</linearGradient>
<linearGradient id="paint1_linear" x1="672.001" y1="158.265" x2="673.532" y2="158.265" gradientUnits="userSpaceOnUse">
<stop stop-color="#939FAB"/>
<stop offset="1" stop-color="#DCDEE1"/>
</linearGradient>
<radialGradient id="paint2_radial" cx="0" cy="0" r="1" gradientUnits="userSpaceOnUse" gradientTransform="translate(679.725 164.679) rotate(-172.186) scale(1.96976 3.61335)">
<stop stop-color="#EE352C"/>
<stop offset="1" stop-color="#A91D22"/>
</radialGradient>
</defs>
</svg>
