<svg width="31" height="30" viewBox="0 0 48 48" fill="none" xmlns="http://www.w3.org/2000/svg">
<path d="M23.9999 0C37.2555 0 48 10.746 48 24.0001C48 37.2557 37.2555 48 23.9999 48C10.7443 48 0 37.2555 0 24.0001C0 10.746 10.7445 0 23.9999 0Z" fill="#26A6D1"/>
<path d="M39.0045 16.1683C37.9561 16.6213 36.828 16.9257 35.6446 17.0638C36.8537 16.3603 37.7806 15.2487 38.2171 13.9214C37.0862 14.5738 35.8351 15.0464 34.5016 15.2998C33.4351 14.1974 31.9156 13.5088 30.2326 13.5088C27.0047 13.5088 24.3857 16.0484 24.3857 19.1832C24.3857 19.6288 24.4368 20.0623 24.5371 20.4778C19.6771 20.2409 15.3661 17.9803 12.4832 14.5468C11.9792 15.3853 11.6911 16.3588 11.6911 17.3998C11.6911 19.3678 12.7231 21.1077 14.2922 22.1233C13.3322 22.0934 12.4321 21.8398 11.6417 21.4124V21.4844C11.6417 24.2353 13.6576 26.5289 16.3336 27.0509C15.8431 27.1799 15.3271 27.2504 14.7931 27.2504C14.4166 27.2504 14.0506 27.216 13.6936 27.1484C14.4375 29.4044 16.5976 31.0454 19.1581 31.0905C17.1557 32.6144 14.6341 33.5205 11.8936 33.5205C11.4211 33.5205 10.9561 33.4935 10.4971 33.4411C13.0876 35.052 16.1596 35.9925 19.4641 35.9925C30.2221 35.9925 36.1051 27.3406 36.1051 19.8405L36.0886 19.1055C37.2285 18.3073 38.2201 17.3083 39.0045 16.1683Z" fill="white"/>
</svg>
