<svg width="96" height="96" viewBox="0 0 96 96" fill="none" xmlns="http://www.w3.org/2000/svg">
<path d="M24 34C18.6957 34 13.6086 36.1071 9.85786 39.8579C6.10714 43.6086 4 48.6957 4 54C4 59.3043 6.10714 64.3914 9.85786 68.1421C13.6086 71.8929 18.6957 74 24 74C29.3043 74 34.3914 71.8929 38.1421 68.1421C41.8929 64.3914 44 59.3043 44 54C44 48.6957 41.8929 43.6086 38.1421 39.8579C34.3914 36.1071 29.3043 34 24 34Z" fill="#FFC8A3"/>
<path d="M48 18C41.6348 18 35.5303 20.5286 31.0294 25.0294C26.5286 29.5303 24 35.6348 24 42C24 48.3652 26.5286 54.4697 31.0294 58.9706C35.5303 63.4714 41.6348 66 48 66C54.3652 66 60.4697 63.4714 64.9706 58.9706C69.4714 54.4697 72 48.3652 72 42C72 35.6348 69.4714 29.5303 64.9706 25.0294C60.4697 20.5286 54.3652 18 48 18Z" fill="#FFC8A3"/>
<path d="M75 40C72.7675 40 70.5569 40.4397 68.4944 41.294C66.4318 42.1484 64.5578 43.4006 62.9792 44.9792C61.4006 46.5578 60.1484 48.4318 59.294 50.4944C58.4397 52.5569 58 54.7675 58 57C58 59.2325 58.4397 61.4431 59.294 63.5056C60.1484 65.5682 61.4006 67.4422 62.9792 69.0208C64.5578 70.5994 66.4318 71.8516 68.4944 72.706C70.5569 73.5603 72.7675 74 75 74C77.2325 74 79.4431 73.5603 81.5056 72.706C83.5681 71.8516 85.4422 70.5994 87.0208 69.0208C88.5994 67.4422 89.8516 65.5682 90.706 63.5056C91.5603 61.4431 92 59.2325 92 57C92 54.7675 91.5603 52.5569 90.706 50.4944C89.8516 48.4318 88.5994 46.5578 87.0208 44.9792C85.4422 43.4006 83.5681 42.1484 81.5056 41.294C79.4431 40.4397 77.2325 40 75 40Z" fill="#FFC8A3"/>
<path d="M24 54H74V74H24V54Z" fill="#FFC8A3"/>
<path d="M44 48H52V64H44V48Z" fill="#FF6700" fill-opacity="0.7"/>
<path d="M48 34L36 48H60L48 34Z" fill="#FF6700" fill-opacity="0.7"/>
</svg>
