<svg width="40" height="40" viewBox="0 0 40 40" fill="none" xmlns="http://www.w3.org/2000/svg">
<path d="M37.9575 27.3119H2.04278C0.916408 27.3119 0 26.3959 0 25.2697V5.95818C0 4.83206 0.916408 3.91589 2.04278 3.91589H37.9575C39.0834 3.91589 40 4.83206 40 5.95818V25.2697C40 26.3959 39.0834 27.3119 37.9575 27.3119ZM2.04278 5.56561C1.82612 5.56561 1.64955 5.74169 1.64955 5.95818V25.2697C1.64955 25.4862 1.82612 25.6623 2.04278 25.6623H37.9575C38.174 25.6623 38.3504 25.4862 38.3504 25.2697V5.95818C38.3504 5.74169 38.1741 5.56561 37.9575 5.56561H2.04278Z" fill="#1E266D"/>
<path d="M15.7299 21.8823C15.459 21.7342 15.2828 21.458 15.2828 21.1494V10.0785C15.2828 9.76977 15.4554 9.48708 15.7299 9.34545C16.0041 9.20389 16.3343 9.22749 16.5859 9.40642L24.3702 14.9419C24.588 15.0966 24.717 15.3471 24.717 15.614C24.717 15.881 24.588 16.1315 24.3702 16.2863C24.3702 16.2863 18.5317 20.4376 16.5859 21.8215C16.4437 21.9227 16.1371 22.1053 15.7299 21.8823ZM16.9327 11.6772V19.5508L22.4688 15.614L16.9327 11.6772Z" fill="#1E266D"/>
<path d="M39.1753 31.9942H23.4095C23.0434 30.5917 21.7657 29.5538 20.2502 29.5538C18.7349 29.5538 17.4575 30.5917 17.0913 31.9942H0.824816C0.369388 31.9942 0 32.3635 0 32.819C0 33.2746 0.369388 33.6438 0.824816 33.6438H17.0913C17.4576 35.0462 18.735 36.0843 20.2503 36.0843C21.7658 36.0843 23.0435 35.0462 23.4096 33.6438H39.1753C39.6304 33.6438 40 33.2746 40 32.819C40 32.3635 39.6304 31.9942 39.1753 31.9942ZM20.2502 34.4345C19.3598 34.4345 18.6349 33.7098 18.6349 32.8189C18.6349 31.9282 19.3598 31.2035 20.2502 31.2035C21.1411 31.2035 21.8658 31.9282 21.8658 32.8189C21.8658 33.7098 21.1411 34.4345 20.2502 34.4345Z" fill="#1E266D"/>
</svg>
